<svg width="375" height="667" viewBox="0 0 375 667" fill="none" xmlns="http://www.w3.org/2000/svg">
<path d="M1107.42 2530.45C1005.56 2530.55 904.681 2514.84 810.547 2484.24C716.413 2453.63 630.877 2408.72 558.835 2352.08L-907 1199.03L558.835 45.704C630.9 -10.965 716.448 -55.9137 810.597 -86.5758C904.745 -117.238 1005.65 -133.013 1107.55 -133C1209.45 -132.987 1310.34 -117.187 1404.48 -86.5009C1498.61 -55.815 1584.15 -10.8447 1656.19 45.8425C1728.23 102.53 1785.37 169.824 1824.35 243.882C1863.33 317.94 1883.38 397.313 1883.37 477.468C1883.35 557.623 1863.26 636.99 1824.25 711.039C1785.24 785.087 1728.08 852.367 1656.01 909.036L1287.35 1199.03L1656.01 1488.74C1765.05 1573.92 1839.42 1682.69 1869.65 1801.2C1899.89 1919.72 1884.63 2042.63 1825.82 2154.31C1767.01 2265.99 1667.3 2361.38 1539.38 2428.36C1411.45 2495.34 1261.09 2530.88 1107.42 2530.45Z" fill="url(#paint0_linear_10387_990)"/>
<path d="M-730.626 2530.45C-884.573 2530.77 -1035.16 2495.15 -1163.26 2428.13C-1291.36 2361.12 -1391.18 2265.72 -1450.03 2154.07C-1508.88 2042.42 -1524.11 1919.56 -1493.79 1801.1C-1463.46 1682.64 -1388.95 1573.93 -1279.71 1488.78L-910.243 1199.08L-1279.71 909.096C-1425.57 794.615 -1507.52 639.346 -1507.52 477.446C-1507.52 315.545 -1425.57 160.276 -1279.71 45.7954C-1133.85 -68.6854 -936.022 -133 -729.744 -133C-523.465 -133 -325.636 -68.6854 -179.775 45.7954L1289.28 1199.08L-179.775 2352.09C-252.101 2408.82 -337.997 2453.79 -432.528 2484.4C-527.06 2515.01 -628.366 2530.66 -730.626 2530.45Z" fill="url(#paint1_linear_10387_990)"/>
<path d="M189.905 336.685L-908 1200.05L189.905 2063.41L1287.81 1200.05L189.905 336.685Z" fill="#005B9C"/>
<defs>
<linearGradient id="paint0_linear_10387_990" x1="687.003" y1="-91.6758" x2="551.687" y2="1737.21" gradientUnits="userSpaceOnUse">
<stop stop-color="#419CCF"/>
<stop offset="1" stop-color="#3E70B7"/>
</linearGradient>
<linearGradient id="paint1_linear_10387_990" x1="347.079" y1="2154.61" x2="-647.696" y2="397.082" gradientUnits="userSpaceOnUse">
<stop stop-color="#419CCF"/>
<stop offset="0.4" stop-color="#408EC7"/>
<stop offset="1" stop-color="#3E70B7"/>
</linearGradient>
</defs>
</svg>
