<svg width="260" height="260" viewBox="0 0 260 260" fill="none" xmlns="http://www.w3.org/2000/svg">
<path d="M78.5797 229.872C77.5729 229.221 76.6367 228.468 75.7865 227.623C75.1892 226.973 74.4865 226.411 73.854 225.866C73.7106 225.668 73.587 225.456 73.4851 225.234C73.4017 225.082 73.3015 224.941 73.1865 224.812C72.3081 223.881 71.4297 222.95 70.5338 222.054C69.9189 221.439 69.2338 220.912 68.6013 220.297C68.2211 219.961 67.8794 219.584 67.5824 219.173C64.65 215.036 62.0534 210.671 59.8176 206.12C58.7108 203.678 57.7446 201.184 56.7432 198.707C56.2039 197.497 55.7461 196.253 55.373 194.982C54.7405 192.663 54.2486 190.327 53.704 187.955L53.2297 185.953C52.7554 183.88 52.2108 181.807 51.7892 179.699C51.473 178.082 51.2797 176.449 51.0689 174.797C50.5949 170.517 50.4363 166.207 50.5946 161.903C50.5946 159.549 50.8581 157.177 50.9986 154.876C51.104 153.259 51.2094 151.661 51.35 150.062C51.4905 148.463 51.6486 146.549 51.877 144.792C52.2459 142.016 52.6148 139.241 53.0716 136.465C53.4757 134.058 53.9676 131.669 54.5121 129.28C54.9338 127.4 55.4784 125.538 55.9703 123.676C56.0306 123.434 56.113 123.199 56.2162 122.973C57.129 120.872 58.1492 118.82 59.273 116.824C59.8878 115.805 60.3094 114.681 60.8365 113.609C60.9478 113.355 61.0769 113.108 61.223 112.872C62.5405 111.115 63.8932 109.358 65.1932 107.443C66.4932 105.528 67.6 104.404 68.8121 102.911C70.5689 100.732 72.4838 98.677 74.3635 96.5865C76.0306 94.7652 77.8723 93.1118 79.8621 91.65C81.127 90.7013 82.2689 89.5946 83.4986 88.6108C84.7284 87.627 85.9054 86.6608 87.2054 85.8176C92.4982 82.4506 97.9893 79.4059 103.649 76.7C106.547 75.2946 109.411 73.8365 112.292 72.4135C112.555 72.2905 112.854 72.2027 113.135 72.0797L114.663 71.3946C115.036 71.1819 115.431 71.011 115.841 70.8851C118.423 70.323 120.97 69.55 123.482 68.7419C125.117 68.2415 126.815 67.9753 128.524 67.9513C130.123 67.9513 131.739 67.7581 133.338 67.6878C133.923 67.6439 134.51 67.6439 135.095 67.6878C137.075 67.8898 139.07 67.8898 141.05 67.6878C141.377 67.6525 141.707 67.6525 142.034 67.6878L147.445 68.0216C149.342 68.127 151.222 68.2149 153.101 68.3554C153.527 68.4171 153.945 68.5231 154.349 68.6716C156.826 69.4622 159.268 70.4284 161.78 71.0081C163.247 71.5056 164.628 72.2286 165.873 73.1513C166.618 73.5873 167.303 74.1189 167.911 74.7324C168.227 75.033 168.589 75.282 168.982 75.4703C169.931 76.0149 170.915 76.5067 171.881 77.0338C172.167 77.1989 172.442 77.3807 172.707 77.5784C174.13 78.6851 175.57 79.7743 176.993 80.8986C177.473 81.2851 177.93 81.6892 178.363 82.1108C179.716 83.4284 181.069 84.7459 182.404 86.0811C183.441 87.1201 184.323 88.3035 185.022 89.5946C185.894 91.1495 186.893 92.6302 188.008 94.0216C191.082 97.8865 194.192 101.734 197.073 105.774C198.18 107.32 199.216 108.919 200.235 110.535C200.797 111.431 201.219 112.432 201.728 113.363C202.677 115.12 203.678 116.772 204.574 118.511C204.93 119.373 205.224 120.259 205.453 121.164C205.545 121.48 205.657 121.791 205.786 122.095C206.788 124.326 207.842 126.539 208.826 128.77C209.066 129.44 209.254 130.127 209.388 130.826C209.511 131.265 209.616 131.722 209.704 132.161C209.915 133.338 210.108 134.515 210.319 135.674C210.653 137.431 211.039 139.328 211.32 141.155C211.566 142.666 211.689 144.195 211.865 145.705C211.865 146.32 212.023 146.918 212.076 147.462C212.128 148.007 212.076 148.323 212.076 148.745C212.058 148.896 212.058 149.05 212.076 149.201C212.181 151.052 212.146 152.908 211.97 154.753C211.97 155.209 211.724 155.666 211.654 156.141C211.531 157.054 211.162 157.897 210.969 158.758C210.812 159.553 210.706 160.357 210.653 161.165C210.589 162.204 210.418 163.235 210.143 164.239C209.001 168.122 208 172.039 206.876 175.939C206.382 177.804 205.693 179.612 204.82 181.332C204.188 182.545 203.731 183.845 203.186 185.092C202.888 185.742 202.536 186.374 202.291 187.042C201.693 188.605 201.149 190.186 200.534 191.768C200.289 192.461 200.008 193.142 199.691 193.805C199.146 194.877 198.566 195.931 197.934 196.95C196.897 198.707 196.282 200.569 195.422 202.343C194.912 203.38 194.332 204.363 193.665 205.347C192.574 207.25 191.226 208.994 189.659 210.53C189.276 210.906 188.929 211.318 188.623 211.759C187.442 213.301 186.025 214.647 184.424 215.747C183.595 216.336 182.866 217.054 182.263 217.873C181.842 218.414 181.358 218.903 180.823 219.331C180.226 219.911 179.558 220.42 178.978 221.088C178.399 221.755 177.52 222.686 176.712 223.459C174.988 225.022 173.124 226.421 171.143 227.641C169.65 228.607 167.981 229.292 166.453 230.188C164.924 231.084 163.22 231.558 161.622 232.296C160.479 232.833 159.306 233.303 158.108 233.701C143.791 238.55 99.327 243.03 78.5797 229.872Z" fill="white"/>
<path d="M222.159 183.177C222.546 182.597 232.243 165.469 232.243 165.469L239.973 169.176L245.243 152.258L248.862 154.788L258.243 122.973L243.17 113.873L238.568 139.803L233.508 137.027L229.503 153.084L223.828 150.73L222.159 183.177Z" fill="white"/>
<path d="M52.4392 90.35C51.9649 89.7352 40.1419 71.8338 40.1419 71.8338L32.0081 76.4716L24.9811 58.4473L21.0811 61.4865L8.55542 27.4406L24.3662 16.373L31.3933 44.2703L36.6635 41.0027L42.1622 58.1838L48.1703 55.1797L52.4392 90.35Z" fill="white"/>
<path d="M134.954 120.32C134.445 119.635 133.97 118.985 133.514 118.335C133.316 118.075 133.151 117.792 133.022 117.492C132.876 117.182 132.853 116.829 132.957 116.503C133.061 116.177 133.285 115.903 133.584 115.735C133.886 115.587 134.232 115.556 134.556 115.646C134.88 115.737 135.159 115.944 135.341 116.227C135.762 116.824 136.166 117.422 136.605 117.984C136.746 118.195 136.922 118.37 137.08 118.564C137.642 118.388 137.888 117.826 138.432 117.632C138.92 117.372 139.374 117.054 139.785 116.684C139.258 116.245 138.784 115.841 138.292 115.472C137.989 115.282 137.767 114.986 137.669 114.642C137.572 114.298 137.606 113.93 137.765 113.609C137.854 113.449 137.974 113.309 138.119 113.196C138.264 113.084 138.431 113.003 138.608 112.957C138.785 112.911 138.97 112.901 139.152 112.929C139.333 112.957 139.507 113.021 139.662 113.118C140.55 113.443 141.3 114.063 141.788 114.874C142.606 114.185 143.364 113.427 144.054 112.608C144.596 111.764 145.016 110.847 145.301 109.885C145.856 108.343 146.176 106.726 146.25 105.089C146.342 104.167 146.495 103.251 146.707 102.349C146.865 101.277 147.005 100.205 147.093 99.1338C147.117 98.2196 146.93 97.3122 146.549 96.4811C146.004 95.1108 145.389 93.7581 144.792 92.3879C144.21 91.1625 143.44 90.0361 142.508 89.05C141.107 87.5982 139.578 86.2753 137.941 85.0973C137.233 84.5314 136.43 84.097 135.569 83.8149C135.286 83.7098 135.01 83.5865 134.743 83.446C133.372 82.7904 131.871 82.4483 130.351 82.4446C129.28 82.4446 128.191 82.2865 127.119 82.2865C125.55 82.2865 123.986 82.3392 122.428 82.4446C120.599 82.5936 118.835 83.1975 117.299 84.2014C116.438 84.7284 115.542 85.3257 114.786 85.9581L113.469 86.8189C111.881 87.9396 110.451 89.2691 109.218 90.7716L107.97 92.1946C106.979 93.3454 106.195 94.6589 105.651 96.077C105.282 97.0784 104.755 98.027 104.316 99.0108C103.877 99.9946 103.543 100.978 103.086 101.927C102.213 103.807 101.914 105.903 102.226 107.953C102.226 108.128 102.226 108.304 102.226 108.48C102.244 109.507 102.415 110.525 102.735 111.501C102.816 111.743 102.88 111.989 102.928 112.239C103.135 113.352 103.625 114.393 104.351 115.261C104.668 115.647 104.843 116.122 105.124 116.526C105.405 116.93 106.178 117.299 106.688 117.668C107.197 118.037 107.373 118.177 107.707 118.458C108.538 119.293 109.478 120.014 110.5 120.601C110.894 120.824 111.331 120.962 111.782 121.005C112.455 121.113 113.073 121.44 113.539 121.937C114.074 122.485 114.795 122.811 115.559 122.85C115.876 123.535 116.543 123.623 117.176 123.781C117.978 123.894 118.707 124.309 119.214 124.941C119.321 125.078 119.4 125.237 119.446 125.406C119.491 125.575 119.502 125.751 119.477 125.924C119.477 126.487 119.477 127.066 119.477 127.681C119.477 128.296 119.301 129.174 119.249 129.93C119.196 130.685 119.249 131.177 119.249 131.809C119.249 132.442 119.249 132.758 119.126 133.232C119.003 133.707 118.95 134.462 118.862 135.182C118.014 135.681 117.112 136.081 116.174 136.377C115.389 136.645 114.634 136.999 113.926 137.431C112.784 138.011 111.642 138.608 110.518 139.188C109.991 139.487 109.516 139.838 108.989 140.154C108.718 140.334 108.429 140.487 108.128 140.611C104.764 141.883 101.499 143.404 98.3608 145.161C97.0786 145.913 95.7462 146.576 94.373 147.146C93.1665 147.736 92.0342 148.467 91 149.324C90.7952 149.508 90.6589 149.756 90.6135 150.027C90.4203 150.853 90.3149 151.784 90.1216 152.539C89.8054 153.874 89.4189 155.209 89.0851 156.545C88.9797 156.931 88.9622 157.335 88.8919 157.722C88.6108 159.478 88.3122 161.235 88.0135 162.992C88.0135 163.414 87.8203 163.835 87.7324 164.239C87.4689 165.504 87.1878 166.751 86.9243 167.999C86.9243 168.473 86.9243 168.947 86.7662 169.422C86.7055 169.895 86.6175 170.364 86.5027 170.827C86.2568 171.741 85.9054 172.584 85.6946 173.568C85.3257 175.149 85.027 176.765 84.7108 178.346C84.7108 178.346 84.7108 178.451 84.7108 178.504C84.4297 179.646 84.1311 180.788 83.8324 182.018C83.3937 183.349 83.0301 184.704 82.7432 186.076C82.4789 187.708 82.133 189.326 81.7067 190.924C81.3027 192.681 80.9338 194.315 80.5473 196.001C80.2486 197.407 79.9851 198.812 79.6513 200.218C79.4405 201.149 79.1595 202.062 78.8784 202.976C78.4762 204.117 78.1822 205.293 78 206.489C77.877 207.508 77.5959 208.509 77.4203 209.528C77.3762 209.82 77.3762 210.116 77.4203 210.407C77.4203 211.303 76.9284 212.023 76.7527 212.849C76.61 213.444 76.434 214.03 76.2257 214.605C76.1873 214.757 76.1111 214.897 76.0042 215.012C75.8973 215.127 75.7632 215.213 75.6142 215.262C75.4653 215.311 75.3064 215.321 75.1522 215.293C74.9981 215.264 74.8537 215.197 74.7324 215.097C73.7284 214.471 72.7974 213.734 71.9567 212.901C71.377 212.234 70.6743 211.689 70.0595 211.145C69.9063 210.959 69.7819 210.752 69.6905 210.53C69.6011 210.382 69.5013 210.241 69.3919 210.108C68.5486 209.212 67.6351 208.351 66.827 207.438C66.0189 206.524 65.5094 206.278 64.8594 205.681C64.4851 205.351 64.1492 204.98 63.8581 204.574C60.9226 200.431 58.3315 196.053 56.1108 191.487C54.9689 188.992 54.0203 186.409 52.9486 183.88C51.8771 181.225 51.048 178.48 50.4716 175.676C49.8216 172.795 49.154 169.931 48.5392 167.05C48.2064 165.682 47.9426 164.298 47.7486 162.904C47.4676 160.585 47.2216 158.249 47.0986 155.877C46.9757 153.172 46.923 150.431 46.9932 147.726C47.0635 145.02 47.2743 142.455 47.45 139.961C47.5554 138.397 47.6608 136.834 47.8013 135.288C48.1176 131.774 48.4865 128.261 49.1013 124.642C49.4878 122.464 49.7865 120.268 50.2257 118.107C50.784 115.238 51.5114 112.405 52.404 109.622C52.8549 108.418 53.383 107.244 53.9851 106.108C54.4595 105.124 55.0392 104.158 55.5311 103.174C56.023 102.191 56.5676 101.049 57.077 99.9946C57.2109 99.695 57.3696 99.4071 57.5513 99.1338C58.9567 97.2014 60.4149 95.3216 61.7851 93.3365C62.7338 91.9487 63.9108 90.7365 64.9649 89.4189C66.7216 87.3108 68.4784 85.3433 70.2351 83.3406C71.941 81.4476 73.8365 79.7346 75.8919 78.2284C77.1392 77.2973 78.2459 76.1906 79.4054 75.2243C80.531 74.2594 81.7036 73.3506 82.9189 72.5014C88.0469 69.2526 93.368 66.3193 98.8527 63.7176C101.857 62.2595 104.826 60.7662 107.795 59.2906C108.041 59.1676 108.322 59.0973 108.568 58.9919L110.078 58.3068C110.47 58.0912 110.882 57.9147 111.308 57.7797C113.803 57.2176 116.245 56.5149 118.651 55.7243C120.215 55.227 121.842 54.9549 123.482 54.9162C125.397 54.9162 127.312 54.6527 129.209 54.5649C130.063 54.5835 130.915 54.6657 131.757 54.8108C133.368 54.9047 134.985 54.8577 136.588 54.6703C137.368 54.6352 138.15 54.6705 138.924 54.7757C141.823 54.9514 144.722 55.0919 147.603 55.2852C148.276 55.3426 148.942 55.4722 149.588 55.6716C151.626 56.2865 153.628 56.9365 155.649 57.5689C156.386 57.8149 157.142 58.0081 157.897 58.2189C158.136 58.2994 158.366 58.4055 158.582 58.5352C159.461 59.0797 160.339 59.6243 161.182 60.2919C161.762 60.7135 162.307 61.2054 162.939 61.6446C163.272 61.916 163.624 62.1626 163.993 62.3824C164.959 62.927 165.943 63.4189 166.909 63.9635C167.219 64.1299 167.513 64.3239 167.788 64.5433C169.193 65.6149 170.599 66.6865 171.969 67.7757C172.514 68.1973 173.005 68.6716 173.497 69.1284L177.327 72.8879C178.37 73.9261 179.258 75.1094 179.962 76.4014C180.829 77.9391 181.822 79.4022 182.931 80.7757C185.97 84.6054 189.027 88.4176 191.873 92.4054C192.98 93.9338 194.016 95.5149 195.018 97.1135C195.562 98.0095 195.966 98.9933 196.476 99.9243C197.407 101.593 198.391 103.227 199.251 104.931C199.624 105.804 199.936 106.702 200.182 107.619C200.269 107.935 200.375 108.246 200.499 108.55C201.5 110.746 202.536 112.942 203.503 115.155C203.732 115.79 203.908 116.442 204.03 117.105C204.153 117.597 204.276 118.089 204.364 118.581C204.609 119.828 204.785 121.111 205.049 122.358C205.828 126.162 206.415 130.002 206.805 133.865C206.858 134.637 206.858 135.412 206.805 136.184C206.805 137.589 206.805 138.995 206.647 140.4C206.608 140.993 206.514 141.581 206.366 142.157C206.12 143.193 205.804 144.23 205.541 145.266C205.418 145.695 205.347 146.138 205.33 146.584C205.325 147.885 205.142 149.18 204.785 150.431C203.678 154.243 202.712 158.055 201.605 161.85C201.114 163.674 200.431 165.44 199.568 167.12C198.935 168.332 198.478 169.65 197.916 170.915C197.67 171.477 197.336 172.022 197.108 172.672C196.528 174.235 195.984 175.834 195.351 177.415C195.053 178.223 194.719 179.014 194.35 179.769C193.981 180.524 193.331 181.737 192.751 182.685C191.715 184.442 191.118 186.199 190.257 187.955C189.765 188.939 189.203 189.905 188.641 190.854C187.558 192.733 186.229 194.458 184.688 195.984C184.253 196.409 183.859 196.874 183.511 197.372C182.467 198.724 181.223 199.909 179.822 200.885C178.844 201.561 177.984 202.392 177.274 203.345C176.87 203.851 176.404 204.306 175.886 204.697C175.342 205.207 174.745 205.681 174.13 206.226C173.515 206.77 172.636 207.982 171.811 208.668C170.086 210.241 168.215 211.647 166.224 212.866C164.784 213.815 163.15 214.482 161.657 215.343C160.164 216.204 158.459 216.714 156.878 217.434C156.507 217.572 156.115 217.649 155.719 217.662C155.645 217.658 155.574 217.637 155.51 217.6C155.445 217.564 155.391 217.513 155.35 217.451C155.216 217.242 155.121 217.01 155.069 216.766C154.911 215.273 154.718 213.762 154.647 212.269C154.577 210.776 154.647 209.739 154.647 208.492C154.647 207.614 154.647 206.735 154.647 205.839C154.692 204.838 154.797 203.841 154.964 202.853C155.122 201.096 155.157 199.339 155.245 197.582C155.209 196.931 155.244 196.277 155.35 195.632C155.56 194.729 155.613 193.796 155.508 192.874C155.508 192.593 155.508 192.312 155.508 192.031C155.508 191.03 155.614 190.028 155.649 189.027C155.676 188.126 155.8 187.231 156.018 186.357C156.161 185.616 156.208 184.861 156.158 184.108C156.158 181.596 156.158 179.066 156.158 176.554C156.158 175.5 156.158 174.446 156.158 173.374C156.158 171.337 156.158 169.299 156.158 167.261C156.158 166.259 156.158 165.258 156.158 164.239C156.158 163.572 156.053 162.904 156.035 162.237C156.035 161.903 156.158 161.569 156.158 161.253C156.158 160.937 156.035 160.409 156 160.005C155.965 159.702 155.965 159.395 156 159.092C156.105 157.546 156.264 155.982 156.334 154.437C156.334 153.418 156.334 152.381 156.334 151.362C156.334 150.958 156.334 150.554 156.334 150.15C156.334 148.692 156.334 147.234 156.334 145.776C156.334 145.196 156.334 145.178 155.701 145.038C154.921 144.845 154.162 144.574 153.435 144.23C150.818 142.982 148.323 141.507 145.828 140.066C144.511 139.311 143.299 138.309 141.964 137.695C140.207 136.799 138.45 136.061 136.693 135.235C136.078 134.954 135.481 134.62 134.936 134.304L131.651 132.547C131.373 132.402 131.134 132.192 130.954 131.935C130.774 131.679 130.657 131.382 130.615 131.072C130.412 130.22 130.467 129.327 130.773 128.507C131.072 127.628 131.159 126.75 131.37 125.784C131.581 124.818 131.616 123.658 131.95 122.622C131.98 122.44 132.06 122.269 132.181 122.13C132.302 121.99 132.459 121.887 132.635 121.831C133.636 121.568 134.181 120.83 134.954 120.32ZM72.027 202.343C72.1149 201.869 72.1676 201.553 72.2378 201.237C73.0459 198.145 73.8892 195.053 74.6622 191.961C75.4351 188.869 76.2432 185.391 77.0162 182.105C77.1919 181.297 77.3324 180.489 77.5257 179.681C77.6311 179.259 77.8419 178.873 77.9473 178.469C78.2459 177.292 78.4919 176.115 78.7905 174.955C79.0892 173.796 79.3176 172.97 79.5108 171.951C79.8852 171.001 80.1733 170.019 80.3716 169.018C80.3979 168.869 80.4515 168.726 80.5297 168.596C80.7982 168.153 80.9828 167.665 81.0743 167.155C81.0743 166.962 81.1622 166.769 81.2149 166.576C81.654 165.17 82.1459 163.765 82.5149 162.342C82.8838 160.919 83.2703 159.057 83.6743 157.441C83.9905 156.158 84.3243 154.893 84.6932 153.646C85.0569 152.025 85.5746 150.443 86.2392 148.92C86.3685 148.647 86.48 148.365 86.573 148.077C86.8716 147.146 87.2054 146.32 87.4338 145.301C87.5433 144.925 87.7758 144.595 88.0942 144.366C88.4126 144.137 88.7985 144.021 89.1905 144.037C89.8372 143.962 90.47 143.796 91.0703 143.545L98.2554 140.541C99.0678 140.27 99.8239 139.853 100.486 139.311C100.646 139.19 100.824 139.095 101.014 139.03L107.461 136.043C108.304 135.657 109.218 135.305 110.026 134.989C111.304 134.605 112.526 134.056 113.662 133.355C113.904 133.214 114.164 133.108 114.435 133.039C114.583 133.01 114.719 132.938 114.825 132.832C114.931 132.725 115.004 132.59 115.032 132.442C115.032 132.196 115.155 131.95 115.191 131.704C115.278 130.773 115.384 129.859 115.454 128.928C115.472 128.677 115.472 128.424 115.454 128.173C115.454 127.751 115.243 127.576 114.857 127.435C113.434 126.943 112.011 126.416 110.605 125.872C108.409 125.059 106.32 123.979 104.386 122.657C103.438 122.056 102.595 121.302 101.892 120.426C101.365 119.723 100.697 119.108 100.241 118.353C99.315 116.955 98.5878 115.435 98.0797 113.838C97.3715 111.688 97.1554 109.407 97.4473 107.162C97.4473 106.811 97.4473 106.459 97.4473 106.108C97.4694 105.152 97.6352 104.204 97.9392 103.297C98.0374 103.009 98.1195 102.716 98.1851 102.419C98.3693 101.584 98.6099 100.762 98.9054 99.9595C99.7311 98.0446 100.662 96.1649 101.523 94.2676C101.9 93.4193 102.334 92.5975 102.823 91.8081C105.129 88.3388 107.962 85.2507 111.22 82.6554C112.239 81.8122 113.293 81.0392 114.33 80.2487C114.734 79.913 115.163 79.6076 115.612 79.3352C116.965 78.6324 118.3 77.9297 119.67 77.3149C121.666 76.3311 123.843 75.769 126.065 75.6635C126.24 75.6804 126.417 75.6804 126.592 75.6635C129.138 75.2083 131.764 75.6099 134.058 76.8054C135.502 77.4575 136.899 78.2088 138.239 79.0541C139.778 80.0625 141.198 81.2411 142.473 82.5676C143.279 83.4288 143.986 84.3775 144.581 85.396C145.126 86.327 145.723 87.1527 146.215 88.2068C146.707 89.2608 147.093 90.0689 147.48 91.0176C147.954 92.2297 148.393 93.4595 148.868 94.6716C149.153 95.7619 149.306 96.8826 149.324 98.0095C149.438 98.8831 149.491 99.7636 149.482 100.645C149.482 102.155 149.377 103.666 149.289 105.177C149.268 105.575 149.203 105.97 149.096 106.354C148.745 107.531 148.358 108.691 147.989 109.868C147.778 110.605 147.568 111.361 147.392 112.116C147.304 112.415 147.181 112.661 146.882 112.731C146.626 112.796 146.396 112.936 146.22 113.133C146.045 113.331 145.933 113.576 145.899 113.838C145.734 114.187 145.514 114.507 145.249 114.786C145.003 115.067 144.739 115.331 144.458 115.577C143.843 116.245 143.264 116.947 142.701 117.562C142.139 118.177 140.945 119.143 140.049 119.916C139.304 120.665 138.421 121.262 137.449 121.673C136.742 121.983 136.135 122.482 135.692 123.114C135.512 123.322 135.305 123.505 135.077 123.658C134.409 124.15 133.672 124.607 133.636 125.591C133.636 125.766 133.531 125.924 133.496 126.1C133.253 127.258 133.095 128.432 133.022 129.614C133.022 130.158 133.232 130.65 133.215 131.159C133.197 131.669 133.338 131.809 133.724 131.915C135.361 132.422 136.921 133.149 138.362 134.076C139.978 135.024 141.735 135.622 143.404 136.447L146.918 138.204C147.585 138.555 148.235 138.924 148.92 139.258C149.605 139.592 150.431 139.926 151.186 140.259L155.403 142.297C155.591 142.4 155.803 142.454 156.018 142.454C156.232 142.454 156.444 142.4 156.632 142.297C156.861 142.226 157.106 142.226 157.335 142.297C158.091 142.297 158.319 142.947 158.547 143.562C158.976 145.219 159.171 146.928 159.127 148.639C159.232 149.922 159.127 151.204 159.127 152.487C159.127 153.488 159.022 154.489 159.022 155.508C159.022 157.265 159.022 159.022 159.127 160.778C159.127 163.08 159.426 165.381 159.478 167.7C159.478 170.318 159.478 172.97 159.478 175.535C159.478 176.537 159.391 177.538 159.391 178.557C159.391 179.295 159.391 180.05 159.478 180.788C159.566 181.526 159.707 182.545 159.777 183.423C159.9 185.18 159.988 187.077 160.111 188.904C160.111 189.712 160.286 190.503 160.339 191.311C160.339 192.822 160.445 194.315 160.48 195.826C160.48 197.055 160.48 198.303 160.48 199.532C160.48 200.762 160.585 201.693 160.62 202.765C160.655 203.837 160.62 205.33 160.761 206.612C160.781 207.205 160.863 207.794 161.007 208.369C161.019 208.485 161.063 208.596 161.134 208.689C161.205 208.782 161.3 208.853 161.41 208.895C161.519 208.937 161.637 208.948 161.752 208.926C161.867 208.905 161.974 208.852 162.061 208.773C163.309 208.035 164.485 207.182 165.574 206.226C166.007 205.775 166.483 205.369 166.997 205.014C168.721 203.942 170.354 202.732 171.881 201.395C173.87 199.664 175.683 197.739 177.292 195.65C178.205 194.491 179.049 193.278 179.909 192.137C180.454 191.416 180.981 190.678 181.473 189.923C182.211 188.816 182.949 187.709 183.651 186.585C183.86 186.267 184.042 185.932 184.196 185.584C184.688 184.442 185.145 183.265 185.654 182.07C186.164 180.876 186.849 179.646 187.411 178.416C187.973 177.187 188.728 175.834 189.291 174.499C190.274 172.197 191.188 169.861 192.066 167.472C192.505 166.33 192.839 165.135 193.243 163.958C193.77 162.412 194.385 160.901 194.859 159.338C195.457 157.335 195.966 155.315 196.511 153.295C196.616 152.873 196.739 152.434 196.845 151.995L197.635 148.481C197.899 147.392 198.18 146.285 198.373 145.178C198.689 143.422 198.882 141.665 199.216 140.049C199.608 137.846 199.737 135.606 199.603 133.373C199.497 131.107 199.304 128.858 199.164 126.592C199.027 124.763 198.667 122.958 198.092 121.216C197.916 120.689 197.723 120.18 197.547 119.653C197.266 118.827 197.055 117.896 196.722 117.158C196.142 115.805 195.492 114.47 194.965 113.118C194.192 111.466 193.454 109.797 192.699 108.128C192.224 107.109 191.697 106.108 191.293 105.054C190.927 104.13 190.498 103.232 190.011 102.366C189.624 101.646 189.132 100.961 188.816 100.205C188.447 99.3345 187.987 98.5044 187.446 97.7284C186.726 96.6392 186.076 95.4973 185.373 94.4081C184.864 93.6176 184.336 92.8622 183.792 92.1068C183.247 91.3514 182.316 90.0689 181.578 89.05C180.612 87.7324 179.681 86.3973 178.715 85.0797C178.346 84.5703 177.942 84.0784 177.538 83.6041C177.134 83.1297 176.255 82.1987 175.623 81.496C174.991 80.7933 174.464 80.1081 173.866 79.4406C172.553 77.8522 171.145 76.3446 169.65 74.9257C168.438 73.9068 167.331 72.7824 166.136 71.7108C165.926 71.5176 165.785 71.2716 165.574 71.096C164.222 69.9189 162.869 68.7068 161.464 67.5825C160.61 66.9434 159.718 66.3567 158.793 65.8257C158.582 65.7027 158.319 65.6852 158.108 65.5622C156.914 64.8595 155.684 64.2095 154.595 63.4365C152.899 62.3997 150.974 61.7964 148.991 61.6797C147.638 61.5041 146.285 61.4162 144.932 61.3108C143.58 61.2054 142.28 61.0824 140.945 61.0473C139.012 61.0473 137.062 61.0473 135.13 61.0473C133.703 60.9558 132.27 61.0325 130.861 61.2757C130.374 61.3748 129.881 61.4394 129.385 61.4689C128.314 61.4689 127.207 61.4689 126.153 61.6446C123.851 62.0311 121.532 62.2946 119.214 62.4703C118.792 62.4703 118.353 62.4703 117.931 62.4703C116.836 62.7547 115.707 62.8906 114.576 62.8743H114.365L111.976 63.6649C110.764 64.0338 109.569 64.3676 108.374 64.7716C106.758 65.3162 105.159 65.896 103.543 66.5284C103.373 66.5679 103.223 66.6678 103.122 66.8095C102.841 67.3541 102.314 67.5122 101.822 67.7581C101.33 68.0041 100.838 68.2852 100.381 68.5838C99.2392 69.3216 98.15 70.1122 96.9905 70.8149C96.0929 71.5005 95.0821 72.0237 94.004 72.3608C93.8986 72.3608 93.8108 72.5189 93.7054 72.5892C93.5181 72.751 93.3184 72.8978 93.1081 73.0284C92.8095 73.2216 92.4932 73.3622 92.1946 73.5379C91.4919 73.9595 90.7892 74.4162 90.0689 74.8203C89.3486 75.2243 88.3122 75.7865 87.3811 76.3311C85.8 77.1216 84.3243 78.1054 82.9189 79.0541C82.6999 79.2248 82.4491 79.3502 82.1811 79.423C81.3202 79.6376 80.5656 80.1553 80.0554 80.8811C78.2986 83.0068 76.7 85.0973 75.0135 87.223C74.8905 87.3635 74.7851 87.5392 74.6622 87.6973C73.5554 89.2257 72.4838 90.7716 71.3595 92.2824C70.7095 93.1433 69.9189 93.8987 69.2338 94.7243C68.9798 95.0336 68.7507 95.3626 68.5486 95.7081C68.3203 96.0068 68.127 96.3406 67.8986 96.6216C67.3365 97.3595 66.7568 98.0798 66.1419 98.8C65.8206 99.1451 65.5432 99.5286 65.3162 99.9419C64.9785 100.668 64.5664 101.357 64.0865 101.997C63.2784 103.087 62.5405 104.211 61.7676 105.318C60.6432 106.916 59.5189 108.515 58.4122 110.131C57.5496 111.335 56.8248 112.631 56.2513 113.996C55.9 114.909 55.3554 115.753 54.9689 116.631C54.2598 118.336 53.7014 120.099 53.3 121.901C52.9486 123.395 52.5973 124.888 52.3338 126.399C51.9824 128.384 51.6135 130.369 51.4203 132.372C51.1509 135.526 51.0746 138.694 51.1919 141.858C51.1919 144.3 51.35 146.724 51.5608 149.149C51.7716 151.573 52.0878 154.155 52.4216 156.65C52.65 158.407 52.9838 160.023 53.3176 161.692C53.6513 163.361 53.95 164.749 54.3013 166.259C54.475 167.473 54.818 168.655 55.3203 169.773C55.3302 169.872 55.3302 169.972 55.3203 170.072C55.3945 170.563 55.4942 171.049 55.6189 171.53C55.9351 172.496 56.2865 173.48 56.6203 174.446C57.2351 176.203 57.8676 177.959 58.4824 179.857C58.4824 179.962 58.5878 180.12 58.6757 180.173C59.0622 180.366 59.0973 180.753 59.2203 181.104C59.7052 182.933 60.4824 184.671 61.5216 186.251C62.0245 186.85 62.3903 187.552 62.5932 188.307C62.6476 188.474 62.7244 188.634 62.8216 188.781C63.3311 189.642 63.8932 190.538 64.3676 191.364C65.1708 192.935 66.0991 194.438 67.1432 195.861C68.6189 197.828 70.0419 199.849 71.5 201.851L72.027 202.343Z" fill="black"/>
<path d="M142.824 209.634C142.725 209.642 142.625 209.642 142.526 209.634C142.2 209.628 141.888 209.504 141.647 209.284C141.407 209.064 141.255 208.764 141.22 208.44C141.186 208.117 141.271 207.791 141.46 207.526C141.648 207.26 141.927 207.073 142.245 206.999C143.58 206.63 144.932 206.314 146.25 205.892C147.568 205.47 148.639 205.014 149.764 204.557C149.992 204.557 150.22 204.328 150.449 204.258C150.756 204.147 151.093 204.152 151.397 204.27C151.701 204.388 151.953 204.612 152.105 204.901C152.257 205.19 152.299 205.524 152.224 205.842C152.149 206.16 151.961 206.439 151.696 206.63C151.509 206.762 151.309 206.873 151.099 206.964C149.604 207.692 148.046 208.28 146.443 208.72C145.653 208.931 144.862 209.195 144.054 209.423C143.632 209.546 143.193 209.616 142.754 209.722L142.824 209.634Z" fill="black"/>
<path d="M141.946 215.659C141.671 215.677 141.395 215.677 141.12 215.659C140.78 215.62 140.468 215.453 140.246 215.192C140.025 214.931 139.91 214.596 139.926 214.254C139.921 214.088 139.95 213.923 140.011 213.769C140.071 213.614 140.163 213.474 140.279 213.355C140.396 213.237 140.535 213.144 140.689 213.081C140.842 213.018 141.007 212.987 141.173 212.989C142.101 212.954 143.018 212.782 143.896 212.48C145.073 212.164 146.25 211.795 147.409 211.373C148.08 211.137 148.796 211.065 149.5 211.162C149.828 211.196 150.132 211.349 150.355 211.592C150.578 211.834 150.705 212.15 150.712 212.48C150.727 212.814 150.61 213.141 150.387 213.39C150.163 213.64 149.852 213.792 149.518 213.815C148.523 213.95 147.549 214.21 146.619 214.588C145.459 214.957 144.282 215.273 143.105 215.589C142.734 215.658 142.358 215.699 141.981 215.712L141.946 215.659Z" fill="black"/>
<path d="M146.268 202.361C145.914 202.407 145.556 202.325 145.259 202.128C144.962 201.931 144.746 201.633 144.651 201.289C144.602 201.112 144.591 200.926 144.62 200.745C144.649 200.563 144.716 200.389 144.818 200.236C144.92 200.083 145.053 199.953 145.209 199.856C145.365 199.759 145.541 199.696 145.723 199.673C147.182 199.424 148.608 199.012 149.974 198.443C150.15 198.443 150.308 198.303 150.466 198.268C150.639 198.203 150.823 198.173 151.008 198.18C151.192 198.186 151.374 198.229 151.542 198.306C151.71 198.382 151.861 198.491 151.987 198.626C152.113 198.762 152.211 198.92 152.276 199.093C152.34 199.266 152.37 199.45 152.364 199.635C152.357 199.819 152.314 200.001 152.238 200.169C152.161 200.337 152.052 200.488 151.917 200.614C151.782 200.74 151.623 200.838 151.45 200.903C149.816 201.447 148.147 201.886 146.478 202.361C146.408 202.37 146.338 202.37 146.268 202.361Z" fill="black"/>
<path d="M147.216 196.458C146.968 196.436 146.721 196.395 146.478 196.335C146.183 196.257 145.925 196.076 145.751 195.825C145.577 195.574 145.499 195.269 145.53 194.965C145.536 194.67 145.647 194.388 145.844 194.169C146.04 193.949 146.309 193.808 146.601 193.77C147.915 193.57 149.189 193.167 150.378 192.576C150.586 192.466 150.816 192.408 151.05 192.407C151.285 192.405 151.516 192.46 151.725 192.567C151.933 192.674 152.113 192.83 152.249 193.021C152.384 193.212 152.472 193.433 152.504 193.665C152.554 193.952 152.505 194.248 152.364 194.503C152.224 194.759 152.001 194.959 151.731 195.07C150.589 195.509 149.412 195.896 148.218 196.282C147.889 196.366 147.554 196.425 147.216 196.458Z" fill="black"/>
<path d="M95.9189 150.22C96.3694 150.194 96.8211 150.194 97.2716 150.22C97.4942 150.229 97.7115 150.291 97.9061 150.399C98.1007 150.508 98.267 150.661 98.3918 150.845C98.5166 151.03 98.5962 151.241 98.6244 151.462C98.6526 151.683 98.6285 151.908 98.554 152.118C98.4549 152.39 98.2728 152.625 98.0333 152.789C97.7938 152.953 97.509 153.037 97.2189 153.031C96.4635 153.031 95.7081 153.031 94.9527 152.926C94.6806 152.893 94.4144 152.822 94.1621 152.715C93.8984 152.589 93.6834 152.379 93.5501 152.119C93.4168 151.859 93.3726 151.562 93.4243 151.274C93.4775 150.972 93.6349 150.697 93.869 150.498C94.1032 150.299 94.3995 150.189 94.7067 150.185H95.9189V150.22Z" fill="black"/>
<path d="M98.2027 157.072C98.2054 157.261 98.169 157.45 98.096 157.625C98.023 157.8 97.9148 157.958 97.7781 158.09C97.6415 158.222 97.4792 158.324 97.3015 158.391C97.1237 158.457 96.9342 158.487 96.7446 158.477L94.4959 158.372C94.2063 158.371 93.9246 158.277 93.6932 158.103C93.4619 157.929 93.2935 157.684 93.2135 157.405C93.1516 157.239 93.1267 157.06 93.1405 156.883C93.1542 156.705 93.2063 156.533 93.2932 156.378C93.38 156.222 93.4996 156.088 93.6435 155.983C93.7875 155.878 93.9525 155.806 94.127 155.772C95.1256 155.666 96.1325 155.666 97.1311 155.772C97.4382 155.819 97.7172 155.977 97.9148 156.217C98.1125 156.457 98.2149 156.761 98.2027 157.072Z" fill="black"/>
<path d="M93.1081 167.735C92.7568 167.735 92.423 167.735 92.1068 167.559C91.8827 167.485 91.676 167.366 91.499 167.209C91.322 167.053 91.1784 166.862 91.0767 166.649C90.975 166.436 90.9174 166.204 90.9072 165.968C90.897 165.732 90.9346 165.497 91.0176 165.276C91.0823 165.098 91.185 164.937 91.3183 164.803C91.4517 164.67 91.6126 164.567 91.7898 164.501C91.9671 164.436 92.1564 164.41 92.3446 164.426C92.5328 164.441 92.7154 164.497 92.8797 164.591C93.191 164.794 93.5663 164.875 93.9338 164.819C94.2867 164.767 94.646 164.853 94.9371 165.059C95.2282 165.265 95.4288 165.576 95.4973 165.926C95.5541 166.277 95.4722 166.636 95.269 166.928C95.0657 167.219 94.757 167.421 94.4081 167.489C93.9162 167.612 93.4595 167.647 93.1081 167.735Z" fill="black"/>
<path d="M144.476 110.676C144.49 111.003 144.403 111.327 144.227 111.604C144.051 111.88 143.795 112.096 143.492 112.222C143.208 112.326 142.896 112.331 142.609 112.235C142.322 112.139 142.076 111.949 141.911 111.695C141.657 111.465 141.387 111.253 141.103 111.062C140.872 110.905 140.694 110.682 140.593 110.421C140.493 110.16 140.474 109.875 140.541 109.604C140.592 109.354 140.719 109.125 140.904 108.949C141.089 108.773 141.324 108.658 141.577 108.62C142.165 108.623 142.74 108.789 143.24 109.099C143.739 109.409 144.142 109.851 144.405 110.377C144.436 110.475 144.459 110.575 144.476 110.676Z" fill="black"/>
<path d="M150.642 189.835C150.397 189.789 150.157 189.724 149.922 189.642C149.665 189.53 149.453 189.337 149.317 189.092C149.18 188.848 149.127 188.566 149.166 188.289C149.19 188.012 149.302 187.75 149.485 187.542C149.668 187.333 149.914 187.189 150.185 187.13C150.56 187.036 150.929 186.966 151.292 186.919C151.478 186.884 151.669 186.886 151.854 186.925C152.039 186.964 152.214 187.04 152.37 187.148C152.525 187.256 152.658 187.394 152.759 187.554C152.861 187.713 152.929 187.892 152.961 188.078C152.999 188.269 152.995 188.467 152.95 188.656C152.905 188.846 152.82 189.023 152.7 189.177C152.579 189.33 152.428 189.456 152.254 189.546C152.081 189.635 151.891 189.686 151.696 189.695L150.642 189.835Z" fill="black"/>
<path d="M82.5676 84.3243C83.1314 84.3277 83.6724 84.5478 84.0784 84.9392C84.8162 85.6594 85.5365 86.3973 86.2216 87.1527C86.4591 87.3737 86.6093 87.6727 86.6448 87.9952C86.6803 88.3176 86.5987 88.6421 86.4149 88.9094C86.2827 89.1551 86.0796 89.3552 85.832 89.4836C85.5845 89.6121 85.3039 89.663 85.027 89.6297C84.8271 89.6076 84.6342 89.5429 84.4615 89.4398C84.2887 89.3368 84.1401 89.1978 84.0257 89.0324C83.6216 88.523 83.2 88.0135 82.7432 87.5392C82.5253 87.3412 82.276 87.1809 82.0054 87.0649C81.6756 86.9701 81.3934 86.7551 81.2145 86.4624C81.0356 86.1696 80.9731 85.8204 81.0392 85.4838C81.114 85.1401 81.309 84.8344 81.5893 84.6218C81.8695 84.4092 82.2164 84.3037 82.5676 84.3243Z" fill="black"/>
<path d="M77.3851 88.7514C77.5928 88.7526 77.7968 88.8065 77.978 88.9078C78.1592 89.0092 78.3119 89.1548 78.4216 89.3311C78.777 89.881 79.2748 90.3242 79.8622 90.6135C80.4364 90.9397 80.8871 91.446 81.1446 92.0541C81.3201 92.3352 81.3832 92.6722 81.3214 92.9978C81.2595 93.3233 81.0772 93.6137 80.8108 93.8108C80.5594 94.0226 80.2354 94.1283 79.9075 94.1053C79.5796 94.0823 79.2735 93.9326 79.0541 93.6879C78.2889 92.9629 77.4729 92.2936 76.6122 91.6852C76.2991 91.4283 76.0844 91.0712 76.0044 90.6742C75.9243 90.2773 75.9839 89.8649 76.173 89.5068C76.281 89.2777 76.4528 89.0846 76.6678 88.9506C76.8828 88.8166 77.1318 88.7474 77.3851 88.7514Z" fill="black"/>
<path d="M189.554 136.359L190.292 136.465L192.453 136.816C192.611 136.816 192.804 136.816 192.962 136.922C193.307 137.046 193.591 137.296 193.758 137.623C193.924 137.949 193.96 138.327 193.858 138.678C193.818 138.865 193.739 139.042 193.627 139.197C193.515 139.352 193.371 139.481 193.206 139.577C193.04 139.673 192.856 139.734 192.666 139.754C192.476 139.775 192.284 139.755 192.101 139.697C191.275 139.419 190.43 139.202 189.572 139.047H189.132C188.795 138.975 188.498 138.777 188.302 138.492C188.106 138.208 188.026 137.86 188.078 137.519C188.135 137.176 188.317 136.867 188.591 136.652C188.864 136.437 189.208 136.333 189.554 136.359Z" fill="black"/>
<path d="M90.6662 82.6906C90.6864 82.959 90.6447 83.2286 90.5442 83.4784C90.4436 83.7281 90.287 83.9515 90.0865 84.1311C89.9301 84.3191 89.7232 84.4584 89.4902 84.5327C89.2572 84.6069 89.0078 84.613 88.7715 84.5502C88.5352 84.4875 88.3217 84.3584 88.1563 84.1783C87.9909 83.9982 87.8804 83.7746 87.8378 83.5338C87.7891 83.2911 87.6864 83.0625 87.5374 82.8648C87.3884 82.6672 87.1969 82.5056 86.977 82.3919C86.8229 82.3155 86.6854 82.2091 86.5726 82.0792C86.4599 81.9492 86.374 81.7981 86.3201 81.6347C86.2662 81.4713 86.2452 81.2987 86.2585 81.1272C86.2717 80.9556 86.3189 80.7884 86.3973 80.6352C86.5558 80.3273 86.8263 80.0919 87.1531 79.9776C87.4799 79.8632 87.8382 79.8785 88.1541 80.0203C89.2176 80.4503 90.0737 81.2749 90.5432 82.3216C90.5988 82.4393 90.6401 82.5631 90.6662 82.6906Z" fill="black"/>
<path d="M192.189 133.514L191.047 133.636C190.696 133.7 190.335 133.626 190.037 133.429C189.739 133.233 189.529 132.93 189.449 132.582C189.405 132.404 189.4 132.218 189.433 132.038C189.467 131.857 189.538 131.685 189.643 131.534C189.747 131.383 189.883 131.256 190.04 131.161C190.197 131.066 190.373 131.006 190.555 130.984C191.336 130.832 192.132 130.767 192.927 130.791C193.117 130.785 193.306 130.82 193.481 130.892C193.657 130.964 193.815 131.073 193.946 131.21C194.077 131.348 194.178 131.511 194.241 131.69C194.305 131.869 194.33 132.059 194.315 132.249C194.304 132.437 194.255 132.622 194.17 132.791C194.086 132.96 193.967 133.111 193.822 133.232C193.678 133.354 193.51 133.445 193.328 133.499C193.147 133.554 192.957 133.57 192.769 133.549L192.189 133.514Z" fill="black"/>
<path d="M68.2851 184.178C68.3021 184.522 68.1911 184.859 67.9737 185.125C67.7563 185.391 67.4478 185.567 67.1081 185.619L66.0716 185.83C65.894 185.884 65.7074 185.902 65.5227 185.883C65.338 185.865 65.1588 185.81 64.9955 185.722C64.8322 185.633 64.6879 185.514 64.5711 185.369C64.4543 185.225 64.3672 185.059 64.3149 184.881C64.2148 184.553 64.2469 184.198 64.4044 183.893C64.5619 183.588 64.8323 183.356 65.1581 183.247C65.5469 183.067 65.9458 182.908 66.3527 182.773C66.5743 182.683 66.8153 182.65 67.0528 182.679C67.2904 182.708 67.5167 182.797 67.7102 182.938C67.9037 183.078 68.0581 183.266 68.1587 183.483C68.2594 183.7 68.3029 183.94 68.2851 184.178Z" fill="black"/>
<path d="M191.364 126.012C191.111 126.021 190.859 125.976 190.626 125.879C190.392 125.782 190.183 125.636 190.011 125.45C189.863 125.269 189.765 125.053 189.727 124.823C189.689 124.592 189.712 124.356 189.794 124.137C189.876 123.919 190.013 123.725 190.193 123.577C190.373 123.428 190.589 123.329 190.819 123.289C191.205 123.201 191.609 123.166 191.996 123.114C192.181 123.074 192.373 123.073 192.559 123.111C192.745 123.148 192.921 123.223 193.077 123.332C193.232 123.44 193.364 123.579 193.464 123.74C193.564 123.901 193.63 124.081 193.657 124.269C193.685 124.456 193.674 124.647 193.625 124.831C193.576 125.014 193.49 125.185 193.372 125.333C193.254 125.482 193.107 125.605 192.94 125.694C192.773 125.784 192.589 125.838 192.4 125.854C192.066 125.924 191.715 125.959 191.364 126.012Z" fill="black"/>
<path d="M93.6703 76.3486C94.4257 76.3486 94.8122 76.9986 95.1811 77.6311C95.3571 77.8902 95.4511 78.1962 95.4511 78.5094C95.4511 78.8227 95.3571 79.1287 95.1811 79.3878C95.0647 79.5767 94.9019 79.7327 94.7081 79.8409C94.5144 79.9491 94.2962 80.0059 94.0743 80.0059C93.8524 80.0059 93.6342 79.9491 93.4405 79.8409C93.2468 79.7327 93.084 79.5767 92.9676 79.3878C92.7287 79.0388 92.5229 78.6683 92.3527 78.2811C92.2506 78.0675 92.2064 77.8308 92.2245 77.5947C92.2425 77.3586 92.3222 77.1314 92.4556 76.9358C92.589 76.7402 92.7713 76.583 92.9845 76.48C93.1977 76.3769 93.4341 76.3317 93.6703 76.3486Z" fill="black"/>
<path d="M67.4243 189.449C67.2351 189.463 67.0448 189.44 66.8645 189.38C66.6842 189.321 66.5175 189.227 66.3738 189.102C66.2301 188.978 66.1124 188.827 66.0274 188.657C65.9424 188.488 65.8917 188.303 65.8784 188.113C65.8829 187.912 65.9276 187.713 66.01 187.53C66.0923 187.346 66.2106 187.18 66.358 187.042C66.5053 186.905 66.6787 186.798 66.8678 186.729C67.057 186.659 67.2582 186.628 67.4595 186.638C67.6544 186.623 67.8502 186.649 68.035 186.713C68.2197 186.776 68.3896 186.877 68.5342 187.009C68.6788 187.14 68.7952 187.3 68.8762 187.477C68.9572 187.655 69.0012 187.848 69.0054 188.043C68.9942 188.239 68.9444 188.431 68.8588 188.608C68.7732 188.785 68.6535 188.944 68.5067 189.074C68.3598 189.205 68.1885 189.305 68.0028 189.369C67.8171 189.434 67.6205 189.46 67.4243 189.449Z" fill="black"/>
<path d="M76.0149 96.9905C76.0367 97.1914 76.017 97.3946 75.9571 97.5875C75.8972 97.7805 75.7983 97.9591 75.6665 98.1123C75.5348 98.2654 75.373 98.3899 75.1911 98.478C75.0093 98.5661 74.8113 98.6159 74.6095 98.6243C74.4272 98.6198 74.2476 98.5793 74.081 98.5053C73.9143 98.4314 73.7639 98.3253 73.6383 98.1931C73.5126 98.061 73.4143 97.9054 73.3488 97.7352C73.2834 97.565 73.2521 97.3836 73.2568 97.2013C73.24 97 73.2638 96.7974 73.3267 96.6055C73.3896 96.4135 73.4904 96.2362 73.6231 96.0838C73.7558 95.9315 73.9176 95.8073 74.0991 95.7187C74.2806 95.63 74.478 95.5786 74.6797 95.5676C74.8635 95.5645 75.0458 95.5999 75.215 95.6716C75.3843 95.7432 75.5366 95.8494 75.6624 95.9834C75.7881 96.1174 75.8844 96.2762 75.9451 96.4497C76.0058 96.6231 76.0296 96.8074 76.0149 96.9905Z" fill="black"/>
<path d="M189.73 145.284C189.769 144.88 189.955 144.504 190.253 144.229C190.551 143.953 190.94 143.797 191.346 143.791C191.702 143.8 192.039 143.949 192.286 144.205C192.533 144.462 192.668 144.805 192.663 145.161C192.608 145.56 192.417 145.928 192.123 146.203C191.829 146.478 191.449 146.643 191.047 146.672C190.87 146.667 190.695 146.628 190.532 146.555C190.37 146.483 190.223 146.38 190.101 146.251C189.979 146.122 189.883 145.97 189.819 145.804C189.755 145.638 189.725 145.461 189.73 145.284Z" fill="black"/>
<path d="M153.418 235.511C166.467 235.511 177.046 222.895 177.046 207.332C177.046 191.77 166.467 179.154 153.418 179.154C140.368 179.154 129.789 191.77 129.789 207.332C129.789 222.895 140.368 235.511 153.418 235.511Z" fill="#FF3507"/>
<path d="M161.745 229.889C160.817 228.859 159.96 227.767 159.18 226.622C156.896 222.845 154.718 219.015 152.504 215.22C152.504 215.22 152.364 215.132 152.03 214.904C151.099 216.204 150.115 217.504 149.236 218.857C147.251 221.914 145.301 224.988 143.404 228.115C143 228.782 142.877 229.766 141.788 229.327C141.143 229.009 140.55 228.595 140.031 228.097C139.416 227.588 138.907 226.92 138.274 226.464C138.064 226.36 137.878 226.212 137.731 226.029C137.584 225.846 137.479 225.633 137.424 225.405C137.369 225.177 137.364 224.939 137.411 224.709C137.458 224.48 137.555 224.263 137.695 224.074C139.047 221.878 140.4 219.665 141.858 217.539C143.826 214.676 145.899 211.882 147.936 209.072C148.167 208.799 148.293 208.454 148.293 208.097C148.293 207.74 148.167 207.394 147.936 207.122C145.003 202.624 142.104 198.127 139.153 193.612C138.624 192.871 138.155 192.09 137.747 191.276C137.624 191.012 137.905 190.415 138.169 190.134C138.959 189.273 139.803 188.377 140.681 187.674C140.813 187.519 140.977 187.394 141.162 187.308C141.347 187.223 141.549 187.178 141.753 187.178C141.957 187.178 142.158 187.223 142.343 187.308C142.528 187.394 142.692 187.519 142.824 187.674C143.324 188.23 143.787 188.817 144.212 189.431C147.093 193.46 149.98 197.477 152.873 201.482C153.111 201.759 153.376 202.012 153.664 202.238C154.718 201.008 155.754 199.849 156.738 198.724C158.793 196.23 160.743 193.665 162.851 191.258C164.064 189.888 164.836 190.064 165.82 191.645C166.298 192.392 166.732 193.166 167.12 193.964C167.388 194.503 167.462 195.119 167.331 195.707C167.2 196.295 166.872 196.821 166.4 197.196C162.976 200.378 159.966 203.978 157.441 207.912C157.337 208.197 157.293 208.499 157.311 208.801C157.329 209.104 157.409 209.399 157.546 209.669C159.303 213.499 161.059 217.276 162.816 221.07C163.589 222.827 164.362 224.426 165.082 226.13C165.146 226.322 165.165 226.527 165.137 226.728C165.11 226.929 165.037 227.121 164.924 227.289C163.941 228.15 162.957 228.87 161.745 229.889Z" fill="white"/>
<path d="M161.745 229.889C160.817 228.859 159.96 227.767 159.18 226.622C156.896 222.845 154.718 219.015 152.504 215.22C152.504 215.22 152.364 215.132 152.03 214.904C151.099 216.204 150.115 217.504 149.236 218.857C147.251 221.914 145.301 224.988 143.404 228.115C143 228.782 142.877 229.766 141.788 229.327C141.143 229.009 140.55 228.595 140.031 228.097C139.416 227.588 138.907 226.92 138.274 226.464C138.064 226.36 137.878 226.212 137.731 226.029C137.584 225.846 137.479 225.633 137.424 225.405C137.369 225.177 137.364 224.939 137.411 224.709C137.458 224.48 137.555 224.263 137.695 224.074C139.047 221.878 140.4 219.665 141.858 217.539C143.826 214.676 145.899 211.882 147.936 209.072C148.167 208.799 148.293 208.454 148.293 208.097C148.293 207.74 148.167 207.394 147.936 207.122C145.003 202.624 142.104 198.127 139.153 193.612C138.624 192.871 138.155 192.09 137.747 191.276C137.624 191.012 137.905 190.415 138.169 190.134C138.959 189.273 139.803 188.377 140.681 187.674C140.813 187.519 140.977 187.394 141.162 187.308C141.347 187.223 141.549 187.178 141.753 187.178C141.957 187.178 142.158 187.223 142.343 187.308C142.528 187.394 142.692 187.519 142.824 187.674C143.324 188.23 143.787 188.817 144.212 189.431C147.093 193.46 149.98 197.477 152.873 201.482C153.111 201.759 153.376 202.012 153.664 202.238C154.718 201.008 155.754 199.849 156.738 198.724C158.793 196.23 160.743 193.665 162.851 191.258C164.064 189.888 164.836 190.064 165.82 191.645C166.298 192.392 166.732 193.166 167.12 193.964C167.388 194.503 167.462 195.119 167.331 195.707C167.2 196.295 166.872 196.821 166.4 197.196C162.976 200.378 159.966 203.978 157.441 207.912C157.337 208.197 157.293 208.499 157.311 208.801C157.329 209.104 157.409 209.399 157.546 209.669C159.303 213.499 161.059 217.276 162.816 221.07C163.589 222.827 164.362 224.426 165.082 226.13C165.146 226.322 165.165 226.527 165.137 226.728C165.11 226.929 165.037 227.121 164.924 227.289C163.941 228.15 162.957 228.87 161.745 229.889ZM152.082 211.25C152.557 211.865 152.891 212.251 153.154 212.673C155.982 217.082 157.704 222.159 161.13 226.218C161.434 226.509 161.763 226.774 162.114 227.008C162.114 226.551 162.43 226.042 162.307 225.655C160.633 220.264 158.42 215.055 155.701 210.108C155.369 209.312 155.253 208.442 155.368 207.587C155.482 206.732 155.821 205.923 156.351 205.242C156.703 204.873 157.107 204.557 157.441 204.17C159.637 201.623 161.78 199.058 163.993 196.546C165.469 194.877 165.434 194.368 163.361 193.032C162.799 193.665 162.184 194.297 161.604 194.982C159.742 197.255 157.897 199.521 156.07 201.781C155.473 202.537 154.858 203.309 154.314 204.118C154.191 204.325 154.016 204.497 153.807 204.617C153.597 204.736 153.36 204.799 153.119 204.799C152.878 204.799 152.641 204.736 152.431 204.617C152.222 204.497 152.047 204.325 151.924 204.118C148.903 199.866 145.916 195.597 142.772 191.434C141.155 189.291 141.015 189.378 139.065 191.223C139.004 191.291 138.967 191.378 138.959 191.469C139.816 192.364 140.62 193.308 141.366 194.297C144.353 198.83 147.269 203.415 150.15 207.965C150.389 208.23 150.522 208.574 150.522 208.931C150.522 209.288 150.389 209.632 150.15 209.897C147.936 212.743 145.741 215.572 143.65 218.488C142.28 220.42 141.12 222.493 139.873 224.514C139.082 225.761 140.716 225.954 140.892 226.78C141.296 226.516 141.823 226.341 142.069 225.972C143.826 223.354 145.424 220.701 147.164 218.049C148.832 215.765 150.431 213.587 152.082 211.25Z" fill="black"/>
<path d="M222.81 194.22L212.375 204.654L222.81 215.089L233.245 204.654L222.81 194.22Z" fill="#3186FF"/>
<path d="M240.957 148.463C240.799 149.131 240.658 149.746 240.5 150.378C240.399 151.04 240.222 151.689 239.973 152.311C239.315 153.921 238.844 155.601 238.568 157.318C238.164 159.074 237.812 160.673 237.443 162.342C237.431 162.541 237.431 162.74 237.443 162.939C237.074 163.045 236.635 163.22 236.178 163.326C235.978 163.386 235.764 163.386 235.563 163.326L230.416 161.147C230.311 161.341 230.241 161.499 230.17 161.657C229.274 163.536 228.414 165.434 227.482 167.313C226.551 169.193 225.726 170.827 224.847 172.584C223.793 174.762 222.774 176.976 221.755 179.172C221.65 179.382 221.545 179.699 221.228 179.541C221.15 179.477 221.088 179.396 221.045 179.305C221.002 179.214 220.981 179.114 220.982 179.013C220.982 177.503 220.982 175.992 220.982 174.481L220.824 169.088C220.824 167.507 220.684 165.926 220.719 164.345C220.719 162.096 220.965 159.847 221.053 157.599C221.053 156.299 221.053 154.981 221.053 153.663C221.053 151.678 221.176 149.693 221.246 147.691C221.246 146.988 221.369 146.268 221.457 145.565C221.457 145.213 221.738 145.143 222.019 145.336C223.091 146.057 224.162 146.742 225.216 147.48C225.761 147.866 226.27 148.288 226.973 148.78C227.236 147.778 227.518 146.847 227.763 145.899C227.922 145.266 228.027 144.616 228.168 143.966C228.431 142.772 228.642 141.542 228.993 140.453C229.415 139.03 229.959 137.642 230.434 136.254C230.592 135.797 230.732 135.341 230.908 134.901C231.084 134.462 231.347 134.269 231.857 134.55C232.981 135.182 234.088 135.85 235.195 136.5C235.686 136.781 236.073 136.939 236.178 136.043C236.336 134.761 236.512 133.461 236.688 132.178C236.951 130.105 237.197 128.05 237.478 125.995C237.759 123.939 238.093 122.007 238.392 120.004C238.568 118.862 238.673 117.703 238.831 116.491C238.989 115.278 239.112 114.734 239.27 113.732C239.27 113.434 239.428 113.223 239.868 113.328C240.74 113.63 241.568 114.05 242.327 114.576C244.347 115.612 246.42 116.596 248.388 117.738C250.355 118.88 252.305 120.25 254.273 121.532C254.396 121.532 254.501 121.761 254.624 121.866C254.747 121.972 255.151 122.393 254.624 122.604C254.536 122.604 254.484 122.85 254.449 122.991C254.115 124.132 253.781 125.292 253.465 126.504C253.149 127.716 252.85 128.823 252.516 130.018C252.112 131.511 251.673 132.969 251.269 134.462C250.988 135.481 250.795 136.518 250.531 137.536C250.391 138.046 250.162 138.52 250.022 139.03C249.688 140.224 249.407 141.436 249.055 142.649C248.704 143.861 248.265 145.196 247.878 146.478C247.597 147.374 247.369 148.235 247.088 149.166C246.807 150.097 246.543 150.747 246.262 151.538C246.139 151.819 245.595 151.836 245.349 151.538C244.923 151.112 244.471 150.713 243.996 150.343C243.258 149.799 242.485 149.289 241.712 148.78L240.957 148.463ZM239.534 114.47C239.534 115.015 239.358 115.489 239.305 115.963C239.077 118.072 238.866 120.162 238.655 122.27C238.445 124.378 238.339 126.17 238.164 128.103C237.988 130.035 237.865 132.02 237.654 133.953C237.531 135.13 237.268 136.289 237.074 137.466C237.074 137.958 236.6 137.888 236.301 137.835C236.034 137.765 235.787 137.632 235.581 137.449C234.366 136.457 233.003 135.662 231.541 135.095C231.541 135.27 231.418 135.428 231.382 135.586C231.172 136.518 230.996 137.449 230.785 138.38C230.574 139.311 230.363 140.136 230.205 140.874C229.678 143.668 229.169 146.478 228.642 149.254C228.519 149.904 228.203 150.027 227.57 149.974C227.344 149.956 227.124 149.889 226.927 149.777C226.729 149.664 226.559 149.51 226.428 149.324C225.359 148.27 224.125 147.398 222.774 146.742C222.774 146.742 222.774 146.742 222.546 146.742L222.318 151.169C222.681 151.247 223.038 151.346 223.389 151.468C223.389 151.468 223.565 151.678 223.547 151.766C223.53 151.854 223.354 151.942 223.266 151.942C223.178 151.942 222.651 151.819 222.318 151.749C222.212 153.131 222.107 154.536 222.001 155.965C221.914 157.247 221.826 158.512 221.755 159.777C221.597 162.342 221.404 164.924 221.316 167.489C221.316 167.999 221.035 168.613 221.58 169.07C221.568 169.171 221.532 169.268 221.474 169.351C221.405 169.43 221.353 169.522 221.323 169.623C221.293 169.723 221.285 169.829 221.3 169.933C221.316 170.036 221.353 170.136 221.41 170.223C221.468 170.311 221.543 170.385 221.632 170.441C221.783 170.583 221.924 170.736 222.054 170.897C221.755 171.073 221.404 171.161 221.386 171.301C221.386 172.197 221.281 173.058 221.264 174.024C221.246 174.991 221.264 176.185 221.264 177.257V178.381H221.386C221.616 178.142 221.816 177.876 221.984 177.591C222.134 177.229 222.263 176.86 222.37 176.484C222.809 175.272 223.196 174.059 223.688 172.865C224.18 171.67 224.9 170.423 225.357 169.158C226.031 167.226 226.823 165.337 227.728 163.501C228.203 162.57 228.554 161.569 228.993 160.62C229.048 160.51 229.127 160.413 229.224 160.337C229.322 160.261 229.435 160.208 229.555 160.181C230.028 160.171 230.495 160.286 230.908 160.515C232.191 161.095 233.508 161.657 234.826 162.272C235.124 162.395 235.441 162.465 235.511 161.973C235.581 161.481 235.704 160.989 235.809 160.497C236.02 159.619 236.196 158.741 236.477 157.845C236.758 156.949 237.268 155.912 237.531 154.911C238.137 152.758 238.894 150.65 239.797 148.604C239.909 148.345 240.057 148.102 240.236 147.884C240.273 147.823 240.323 147.771 240.381 147.731C240.44 147.691 240.507 147.664 240.577 147.652C240.647 147.641 240.719 147.644 240.788 147.663C240.856 147.682 240.92 147.715 240.974 147.761L242.309 148.604L245.103 150.501C245.263 150.188 245.404 149.866 245.524 149.535C245.999 148.007 246.455 146.478 246.93 144.95C247.597 142.789 248.282 140.628 248.95 138.468C249.336 137.185 249.705 135.92 250.057 134.638C250.066 134.446 250.003 134.259 249.881 134.111C249.582 133.672 249.635 133.513 250.162 133.391C250.297 133.337 250.41 133.238 250.478 133.109C250.478 133.109 250.391 132.863 250.32 132.758C250.241 132.698 250.164 132.634 250.092 132.565L249.899 132.143C250.051 132.134 250.203 132.134 250.355 132.143C250.472 132.131 250.59 132.131 250.707 132.143C250.76 132.059 250.807 131.971 250.847 131.88C251.041 131.493 251.181 131.142 250.619 130.896C250.496 130.896 250.496 130.527 250.391 130.211L251.339 130.509L252.305 127.347C251.796 127.224 251.392 127.031 251.445 126.328L252.586 126.68L253.113 124.747C252.845 124.776 252.574 124.776 252.305 124.747C252.138 124.659 251.993 124.533 251.884 124.378C251.875 124.328 251.878 124.276 251.893 124.227C251.908 124.178 251.935 124.133 251.972 124.097C252.137 124.045 252.315 124.045 252.481 124.097C252.709 124.213 252.927 124.348 253.131 124.501C253.377 123.693 253.395 123.693 252.674 123.359C252.569 123.359 252.428 123.359 252.358 123.219C252.271 123.106 252.2 122.982 252.147 122.85C252.27 122.85 252.393 122.85 252.499 122.85C252.71 122.882 252.917 122.941 253.113 123.026C253.307 123.131 253.518 123.272 253.553 123.026C253.588 122.78 253.974 122.481 253.447 122.253C252.877 121.953 252.325 121.618 251.796 121.251C251.058 120.795 250.338 120.25 249.582 119.828C247.826 118.915 246.209 118.072 244.541 117.158L239.885 114.681C239.815 114.558 239.692 114.541 239.534 114.47Z" fill="black"/>
<path d="M196.195 172.619C196.335 172.619 196.441 172.759 196.476 172.83C196.588 173.152 196.682 173.481 196.757 173.814C196.755 173.872 196.739 173.929 196.712 173.981C196.685 174.033 196.646 174.078 196.599 174.112C196.476 174.112 196.23 174.112 196.195 174.112C196.086 173.78 196.004 173.439 195.949 173.093C195.949 172.918 196.107 172.777 196.195 172.619Z" fill="black"/>
<path d="M194.438 173.234C194.614 173.568 194.824 173.901 194.982 174.253C194.982 174.253 194.982 174.481 194.877 174.586C194.779 174.561 194.689 174.513 194.614 174.446C194.439 174.302 194.325 174.098 194.292 173.874C194.26 173.65 194.312 173.422 194.438 173.234Z" fill="black"/>
<path d="M240.781 180.507C241.291 180.507 241.308 180.999 241.378 181.35C241.378 181.35 241.15 181.596 241.062 181.578C240.974 181.561 240.676 180.805 240.781 180.507Z" fill="black"/>
<path d="M242.591 178.662L243.118 179.505L242.924 179.664C242.701 179.497 242.49 179.315 242.292 179.119C242.376 178.957 242.476 178.804 242.591 178.662Z" fill="black"/>
<path d="M242.116 117.597C241.572 117.369 241.009 117.176 240.482 116.93C240.324 116.93 240.272 116.596 240.166 116.438C240.345 116.396 240.532 116.396 240.711 116.438C241.12 116.552 241.514 116.711 241.888 116.912C242.064 117.018 242.151 117.299 242.292 117.492L242.116 117.597Z" fill="black"/>
<path d="M223.108 148.499C223.493 148.434 223.888 148.499 224.231 148.683C224.575 148.868 224.847 149.161 225.005 149.518C224.814 149.585 224.611 149.611 224.409 149.596C224.207 149.58 224.011 149.522 223.832 149.427C223.654 149.331 223.497 149.199 223.372 149.039C223.248 148.879 223.158 148.695 223.108 148.499Z" fill="black"/>
<path d="M239.955 117.597C240.09 117.581 240.225 117.581 240.359 117.597L241.765 118.37C241.815 118.412 241.851 118.468 241.87 118.53C241.889 118.593 241.889 118.659 241.87 118.722C241.833 118.769 241.785 118.805 241.729 118.826C241.673 118.848 241.613 118.854 241.554 118.845C241.2 118.8 240.865 118.66 240.583 118.44C240.302 118.221 240.085 117.93 239.955 117.597Z" fill="black"/>
<path d="M232.419 136.412L233.666 136.886C233.8 136.942 233.92 137.026 234.018 137.132C234.115 137.248 234.203 137.371 234.281 137.501C234.141 137.501 234 137.624 233.877 137.501C233.439 137.351 233.011 137.175 232.595 136.974C232.454 136.974 232.384 136.693 232.278 136.553L232.419 136.412Z" fill="black"/>
<path d="M243.364 147.743C244.022 147.865 244.615 148.22 245.032 148.745C244.747 148.833 244.444 148.847 244.152 148.785C243.86 148.724 243.589 148.589 243.364 148.393C243.328 148.178 243.328 147.958 243.364 147.743Z" fill="black"/>
<path d="M233.438 138.274C233.319 138.37 233.179 138.435 233.029 138.463C232.879 138.491 232.725 138.481 232.58 138.434C232.435 138.386 232.304 138.304 232.199 138.193C232.094 138.082 232.019 137.947 231.98 137.8C232.595 137.449 233.034 137.589 233.438 138.274Z" fill="black"/>
<path d="M224.303 150.378C224.178 150.465 224.034 150.521 223.884 150.541C223.733 150.561 223.58 150.544 223.437 150.493C223.294 150.441 223.166 150.356 223.063 150.244C222.96 150.133 222.885 149.998 222.845 149.851C223.266 149.57 223.723 149.711 224.303 150.378Z" fill="black"/>
<path d="M235.089 161.411C234.58 161.745 234.246 161.692 233.701 161.218C233.965 160.743 234.703 160.831 235.089 161.411Z" fill="black"/>
<path d="M235.563 158.723C235.398 158.82 235.206 158.861 235.016 158.839C234.825 158.816 234.648 158.733 234.509 158.6C234.463 158.538 234.432 158.466 234.417 158.39C234.401 158.314 234.403 158.236 234.422 158.161C234.481 158.109 234.552 158.073 234.628 158.055C234.705 158.036 234.784 158.037 234.861 158.055C235.124 158.207 235.377 158.377 235.616 158.565L235.563 158.723Z" fill="black"/>
<path d="M235.142 160.286C235.039 160.372 234.914 160.429 234.782 160.45C234.649 160.472 234.513 160.458 234.388 160.41C234.263 160.361 234.153 160.28 234.069 160.175C233.985 160.07 233.931 159.945 233.912 159.812C234.351 159.566 234.615 159.672 235.142 160.286Z" fill="black"/>
<path d="M243.539 146.636C243.732 146.215 244.013 146.303 244.259 146.496C244.446 146.656 244.611 146.839 244.751 147.041C244.751 147.041 244.751 147.181 244.751 147.251C244.725 147.269 244.695 147.278 244.664 147.278C244.632 147.278 244.602 147.269 244.576 147.251L243.539 146.636Z" fill="black"/>
<path d="M232.366 140.418C232.085 140.418 231.786 140.295 231.523 140.207C231.474 140.171 231.436 140.123 231.411 140.067C231.386 140.012 231.377 139.951 231.382 139.891C231.382 139.891 231.628 139.68 231.716 139.715C231.983 139.838 232.241 139.979 232.489 140.137L232.366 140.418Z" fill="black"/>
<path d="M240.676 120.32L240.061 119.776C240.166 119.67 240.324 119.459 240.359 119.495C240.616 119.648 240.863 119.818 241.097 120.004L240.676 120.32Z" fill="black"/>
<path d="M222.37 172.162C222.195 172.162 222.107 172.285 222.054 172.268C221.845 172.168 221.646 172.05 221.457 171.916C221.457 171.916 221.457 171.741 221.457 171.653L222.054 171.934L222.37 172.162Z" fill="black"/>
<path d="M205.664 54.477C211.883 54.477 216.924 49.4354 216.924 43.2162C216.924 36.9971 211.883 31.9554 205.664 31.9554C199.444 31.9554 194.403 36.9971 194.403 43.2162C194.403 49.4354 199.444 54.477 205.664 54.477Z" fill="#F6AE42"/>
<path d="M193.085 35.873L190.626 47.0108L190.907 47.1689C192.664 44.85 194.631 42.5311 196.458 40.1419C197.407 38.9297 197.776 39.0176 198.496 40.5108C199.628 42.9123 200.937 45.2259 202.414 47.4324V39.3162H202.695V50.3135L202.115 50.4541L197.003 40.546L189.536 50.0149L189.009 49.8568L191.838 37.0324H189.73L193.085 35.873Z" fill="black"/>
<path d="M211.32 22.1176L200.27 28.2487L201.851 21.0987H202.291L201.5 26.1757L212.568 21.0811L212.936 21.5905L205.909 32.7284L213.903 37.05V37.4541L202.695 38.4378V37.9635L211.777 36.8743L204.627 32.6932L211.777 22.346L211.32 22.1176Z" fill="black"/>
<path d="M196.107 30.3568L190.52 20.8176H190.257C190.643 22.8203 191.03 24.8054 191.399 26.8081C191.497 27.695 191.649 28.5751 191.855 29.4432C192.664 32.1838 192.716 32.2189 190.099 33.6595C187.481 35.1 184.951 36.3649 182.386 37.9635L187.85 37.1378V37.5243L179.786 38.8595L179.576 38.3676C182.492 36.7513 185.338 34.9946 188.359 33.5365C191.609 31.9554 191.645 32.0784 190.977 28.5473C190.52 26.0703 190.116 23.5932 189.73 21.1162C189.704 20.8468 189.734 20.5749 189.819 20.3178C189.903 20.0607 190.04 19.8241 190.222 19.623L195.755 28.6L202.782 16.0392C202.878 17.5249 202.386 18.9887 201.412 20.1149C199.655 23.3122 198.109 26.6851 196.476 29.9703C196.458 30.1459 196.282 30.2162 196.107 30.3568Z" fill="black"/>
<path d="M18.0612 114.592L10.0613 122.591L18.0612 130.591L26.061 122.591L18.0612 114.592Z" fill="#3186FF"/>
<path d="M37.7878 132.688C37.7615 132.998 37.7615 133.309 37.7878 133.619C37.7878 134.041 37.9811 134.445 38.0689 134.849C38.1818 135.259 38.2698 135.675 38.3324 136.096C38.2967 136.458 38.2967 136.823 38.3324 137.185C38.3998 137.769 38.3998 138.358 38.3324 138.942C38.3189 139.114 38.2895 139.285 38.2446 139.451C38.2446 139.873 38.104 140.295 38.0162 140.716C38.0162 140.716 38.0162 140.874 38.0162 140.909C37.5975 141.582 37.222 142.28 36.8919 143C36.6811 143.281 36.4176 143.527 36.1892 143.808C36.4256 144.405 36.5334 145.046 36.5054 145.688C36.5476 146.211 36.4818 146.737 36.3122 147.234C35.9013 148.396 35.1325 149.399 34.1162 150.097C33.8283 150.277 33.5577 150.482 33.3081 150.712C32.9562 151.044 32.5177 151.269 32.0432 151.362C31.604 151.362 31.2176 151.766 30.7784 151.872C30.3392 151.977 30.023 152.065 29.8473 152.434C29.6716 152.803 29.7594 152.961 29.654 153.189C29.4257 153.699 29.1622 154.208 28.8811 154.718C28.4839 155.23 27.9955 155.665 27.4405 156C27.3 156 27.2473 156.316 27.1243 156.422L25.5432 157.458C25.402 157.561 25.2724 157.679 25.1567 157.809C25.1567 157.809 25.1567 157.915 25.0338 157.932C24.4365 158.284 23.8392 158.635 23.277 158.951C22.7149 159.268 22.1176 159.478 21.5203 159.707C21.2738 159.799 21.0096 159.835 20.7473 159.812C20.1058 159.796 19.4686 159.702 18.85 159.531C18.3516 159.37 17.8954 159.1 17.5149 158.741C17.3098 158.495 17.1492 158.216 17.0405 157.915C16.9303 157.727 16.8306 157.534 16.7419 157.335C17.3392 157.036 18.0067 156.685 18.6919 156.422C19.377 156.158 20.273 155.947 21.0635 155.649C21.9418 155.326 22.7791 154.902 23.5581 154.384C24.1378 153.997 24.7878 153.681 25.3149 153.33C25.5605 153.227 25.791 153.091 26 152.926C26.0382 152.9 26.0672 152.863 26.0824 152.82C26.0977 152.777 26.0984 152.73 26.0845 152.686C26.0706 152.642 26.0428 152.604 26.0054 152.578C25.9679 152.551 25.9229 152.538 25.877 152.539C25.0363 152.298 24.2493 151.898 23.5581 151.362C23.3297 151.222 23.2595 150.782 23.1365 150.484C23.0135 150.185 23.0135 150.009 22.9432 149.764C22.9182 149.615 22.883 149.468 22.8378 149.324C22.8128 149.221 22.7648 149.125 22.6973 149.043C22.3713 148.69 22.1521 148.251 22.0649 147.778C22.021 147.58 22.0186 147.374 22.0579 147.175C22.0972 146.975 22.1773 146.786 22.2932 146.619C22.5423 146.174 22.9406 145.832 23.4176 145.653C23.4869 145.669 23.5591 145.669 23.6284 145.653C23.7949 145.48 24.0083 145.359 24.2425 145.306C24.4766 145.253 24.7211 145.27 24.9459 145.354C25.2622 145.354 25.5784 145.565 25.8946 145.67C26.527 145.881 26.8784 146.443 27.3878 146.812C27.8973 147.181 27.9851 147.691 28.4067 148.182L31.1122 147.427C31.7622 147.234 32.4122 147.058 33.0446 146.83C33.3357 146.72 33.5971 146.544 33.8076 146.315C34.0182 146.086 34.172 145.811 34.2567 145.512L32.9216 145.811C32.9216 145.811 32.8162 145.811 32.7635 145.811L30.0054 146.057C29.508 146.079 29.02 145.916 28.6351 145.6C28.477 145.495 28.4067 145.284 28.2838 145.126C27.8622 144.546 27.177 144.142 27.0716 143.369C27.0716 142.947 26.9486 142.543 26.8959 142.122C26.8084 141.498 26.7556 140.871 26.7378 140.242C26.7414 139.528 27.018 138.843 27.5108 138.327C27.6965 138.174 27.9118 138.06 28.1432 137.993C28.3476 137.919 28.5713 137.919 28.7757 137.993C29.5297 138.264 30.2538 138.611 30.9365 139.03C31.4108 139.258 31.8851 139.522 32.3419 139.785C32.7986 140.049 33.2027 140.33 33.6067 140.611C34.0108 140.892 33.8527 140.734 34.0635 140.611C34.7309 140.301 35.3285 139.858 35.8203 139.311C36.4727 138.655 36.9238 137.826 37.1203 136.922C37.2081 136.482 37.4013 136.061 37.454 135.622C37.4803 135.148 37.4803 134.673 37.454 134.199C37.4275 133.818 37.4275 133.437 37.454 133.057C37.454 132.899 37.7 132.776 37.823 132.618L37.7878 132.688ZM32.1135 141.472C31.9281 141.134 31.6469 140.859 31.3054 140.681C30.7784 140.47 30.1459 140.558 29.7419 140.066C29.7419 140.066 29.6365 140.066 29.6013 140.066L28.9689 139.785C28.8635 139.785 28.723 139.645 28.6527 139.68C28.5878 139.716 28.532 139.766 28.4894 139.827C28.4468 139.888 28.4186 139.958 28.4067 140.031C28.3827 140.542 28.552 141.044 28.8811 141.436C28.9865 141.577 29.25 141.612 29.4257 141.7H29.5311C29.7701 141.843 30.0397 141.927 30.3177 141.946C30.5956 141.964 30.874 141.916 31.1297 141.805L32.1135 141.472ZM27.3351 148.2C26.8784 147.181 26.8784 147.181 26.2811 146.795C26.1405 146.707 25.9824 146.654 25.8419 146.549C25.582 146.388 25.293 146.281 24.9915 146.233C24.6901 146.185 24.382 146.196 24.0851 146.268C23.9946 146.31 23.9155 146.374 23.8544 146.454C23.7933 146.533 23.752 146.626 23.7338 146.724C23.7338 146.83 23.8743 147.023 23.9973 147.111C24.1203 147.199 24.4013 147.357 24.577 147.497C25.2602 148.049 26.125 148.325 27.0013 148.27C27.1156 148.246 27.2274 148.21 27.3351 148.165V148.2Z" fill="black"/>
<path d="M28.8811 54.0203C28.0203 54.6 27.1243 55.1622 26.2987 55.777C25.7759 56.1995 25.2774 56.6512 24.8054 57.1297C24.5068 57.3933 23.8919 57.3757 23.7689 57.1297C23.4527 56.2338 23.1365 55.373 22.8378 54.4595C22.5392 53.546 22.2581 52.4392 21.9419 51.4379C21.5027 49.9973 21.0284 48.5743 20.6243 47.1338C20.2203 45.6933 19.9216 44.4108 19.5527 43.0581C19.3946 42.496 19.1135 41.9514 18.973 41.3014C18.6743 40.1595 18.446 39 18.1297 37.7878C17.6905 36.1189 17.1811 34.4676 16.7243 32.7987C16.3554 31.4987 16.0216 30.1811 15.6703 28.8811L14.5635 25.0162C14.5635 24.8581 14.5635 24.6122 14.3703 24.577C13.6851 24.3487 13.9135 24.0676 14.3703 23.7514C14.4916 23.6093 14.627 23.4798 14.7743 23.3649C16.9703 21.9243 19.1135 20.4135 21.3797 19.096C23.646 17.7784 25.9122 16.7068 28.1959 15.5824C29.055 14.9934 29.9884 14.5208 30.9716 14.177C31.4459 14.0716 31.5689 14.3 31.6392 14.6338C31.8149 15.6703 31.973 16.6892 32.1311 17.7257C32.3068 19.0257 32.4297 20.3257 32.623 21.6081C32.9568 23.8568 33.3257 26.0878 33.6419 28.3365C33.9581 30.5851 34.2568 32.9743 34.5554 35.3635C34.7311 36.8216 34.9419 38.2622 35.1176 39.7203C35.2405 40.7216 35.6622 40.546 36.2068 40.2297L39.9838 38.0338C40.546 37.7176 40.7919 37.823 41.0378 38.4203C41.2838 39.0176 41.3892 39.4392 41.5649 39.9487C42.1095 41.5122 42.7243 43.0581 43.1987 44.6568C43.5851 45.9743 43.8135 47.3446 44.1122 48.6973C44.2703 49.4176 44.3932 50.1554 44.5865 50.8757C44.85 51.9297 45.1662 52.9838 45.4649 54.1081C46.1676 53.5635 46.7297 53.0716 47.327 52.65C48.5216 51.8243 49.7338 51.0338 50.9284 50.2257C51.2622 50.0149 51.5257 50.1027 51.5608 50.4892C51.6662 51.2973 51.7716 52.0878 51.8068 52.896C51.8068 55.127 51.9649 57.3757 52.0176 59.6068C52.0176 61.0824 52.0176 62.5581 52.0176 64.0338C52.123 66.5635 52.3338 69.0757 52.4041 71.6054C52.4041 73.3622 52.4041 75.1189 52.2811 76.8757C52.1581 78.6324 52.1581 80.9162 52.1054 82.9365C52.1054 84.6933 52.1054 86.327 52.1054 88.0311C52.1054 88.2419 51.9824 88.5581 51.8243 88.6284C51.6662 88.6987 51.35 88.4527 51.227 88.2068C50.0676 85.7473 48.9432 83.2527 47.7135 80.7933C46.7473 78.7906 45.7108 76.823 44.727 74.8203C43.7432 72.8176 42.6541 70.6216 41.6527 68.5135L41.3892 67.9338L35.5919 70.3933C35.3675 70.4537 35.1311 70.4537 34.9068 70.3933C34.4234 70.278 33.948 70.1313 33.4838 69.9541C33.4953 69.7317 33.4953 69.5089 33.4838 69.2865C33.0622 67.4068 32.6581 65.527 32.2189 63.6473C31.9155 61.7156 31.3787 59.8279 30.6203 58.0257C30.3532 57.3152 30.1589 56.5795 30.0405 55.8297C29.8649 55.127 29.7068 54.4243 29.5311 53.6865C29.3083 53.7854 29.0913 53.8969 28.8811 54.0203ZM30.6378 15.6703C28.8811 16.6014 27.1243 17.55 25.3676 18.4635C23.6108 19.377 21.573 20.4487 19.7108 21.4676C18.85 21.9419 18.0595 22.5392 17.2162 23.0662C16.6162 23.4743 15.9946 23.8496 15.3541 24.1906C14.7743 24.4541 15.196 24.7879 15.2311 25.0514C15.2662 25.3149 15.5122 25.2622 15.7405 25.1392C15.9591 25.0402 16.1893 24.9693 16.4257 24.9284C16.5487 24.9284 16.6716 24.9284 16.8122 25.0338C16.7529 25.1719 16.6761 25.3018 16.5838 25.4203C16.5838 25.4203 16.3554 25.5257 16.2324 25.5784C15.4243 25.9649 15.4243 25.9649 15.723 26.8784C15.9617 26.6764 16.2207 26.4998 16.496 26.3514C16.6783 26.2898 16.8758 26.2898 17.0581 26.3514C17.0581 26.3514 17.2162 26.6149 17.1635 26.6676C17.0497 26.847 16.8844 26.9878 16.6892 27.0716C16.3858 27.1091 16.079 27.1091 15.7757 27.0716L16.373 29.2676L17.6554 28.8635C17.6554 29.6541 17.2689 29.8824 16.6892 30.0054L17.7784 33.5189L18.85 33.1676C18.727 33.5189 18.727 33.8703 18.5865 33.9406C17.9541 34.2216 18.1297 34.6257 18.3405 35.0473C18.3801 35.1501 18.4271 35.2499 18.4811 35.346C18.6392 35.346 18.7622 35.2581 18.9027 35.2406H19.3243C19.2647 35.4032 19.1943 35.5616 19.1135 35.7149C19.1135 35.7149 18.9203 35.8554 18.8676 35.9433C18.8149 36.0311 18.6392 36.2243 18.6743 36.3297C18.7102 36.4054 18.7616 36.4726 18.8252 36.5271C18.8887 36.5815 18.963 36.622 19.0432 36.646C19.623 36.7865 19.6932 36.9797 19.3419 37.4541C19.2746 37.5371 19.2244 37.6326 19.1942 37.7351C19.1641 37.8376 19.1546 37.9451 19.1662 38.0514C19.5527 39.4919 19.9568 40.9324 20.396 42.3554C21.1514 44.7973 21.9243 47.2216 22.6797 49.6635C23.2068 51.4203 23.7162 53.0892 24.2432 54.8108C24.3836 55.1841 24.5479 55.5479 24.7351 55.9L27.9324 53.9324L29.4257 52.9662C29.4879 52.914 29.5607 52.8758 29.6391 52.8544C29.7175 52.833 29.7995 52.8288 29.8797 52.8422C29.9598 52.8555 30.0361 52.8861 30.1033 52.9318C30.1705 52.9774 30.227 53.0372 30.2689 53.1068C30.4557 53.3616 30.6203 53.6319 30.7608 53.9149C31.7759 56.1937 32.6271 58.542 33.3081 60.9419C33.6068 62.0662 34.1338 63.1203 34.4851 64.227C34.8365 65.3338 34.9946 66.2297 35.2405 67.2311C35.3635 67.7757 35.4865 68.3203 35.5743 68.8649C35.6622 69.4095 35.996 69.3568 36.3473 69.2162C37.823 68.6014 39.2987 67.9865 40.7568 67.3189C41.2227 67.0563 41.7504 66.9229 42.2851 66.9324C42.4203 66.9685 42.5464 67.0324 42.6553 67.1202C42.7642 67.2079 42.8536 67.3175 42.9176 67.4419C43.4095 68.5135 43.796 69.6379 44.323 70.6743C45.343 72.7372 46.2348 74.8611 46.9932 77.0338C47.5203 78.4568 48.2933 79.7919 48.873 81.2149C49.4527 82.6379 49.8743 83.9203 50.3487 85.273C50.4738 85.6959 50.6204 86.1122 50.7878 86.5203C50.9787 86.8412 51.2025 87.1415 51.4554 87.4162H51.596V86.0811C51.596 84.8689 51.596 83.6568 51.596 82.4446C51.596 81.2324 51.596 80.4068 51.4554 79.3878C51.4554 79.2473 51.0514 79.1243 50.7176 78.9311C50.8554 78.7435 51.0146 78.5725 51.1919 78.4216C51.2904 78.3574 51.3741 78.2729 51.4374 78.1737C51.5006 78.0746 51.5419 77.963 51.5586 77.8466C51.5752 77.7302 51.5668 77.6115 51.5338 77.4986C51.5009 77.3857 51.4442 77.2811 51.3676 77.1919C51.3676 77.1919 51.2095 76.9108 51.2446 76.8757C51.8595 76.3662 51.5608 75.6635 51.5433 75.1189C51.4378 72.2203 51.227 69.3392 51.0514 66.4406C50.946 65 50.946 63.6473 50.7703 62.2243C50.5946 60.8014 50.5419 59.027 50.4189 57.4811L49.3649 57.6919C49.2595 57.6919 49.0487 57.5689 49.0487 57.4987C49.0456 57.43 49.0602 57.3617 49.0909 57.3002C49.1217 57.2387 49.1676 57.1861 49.2243 57.1473C49.5933 57.0243 49.9622 56.9365 50.4365 56.8135L50.173 51.8419C50.0149 51.8419 49.9446 51.8419 49.9095 51.8419C48.3963 52.595 47.0095 53.5788 45.7987 54.7581C45.6533 54.9648 45.4651 55.1378 45.2468 55.2651C45.0285 55.3924 44.7853 55.4712 44.5338 55.496C43.8311 55.496 43.4622 55.496 43.3216 54.6878C42.7243 51.5433 42.1622 48.3987 41.5649 45.2716C41.3716 44.323 41.1257 43.3919 40.9149 42.4608C40.7041 41.5297 40.4581 40.3527 40.2473 39.2987C40.2473 39.123 40.1243 38.9649 40.0541 38.7716C38.4119 39.4129 36.8775 40.3015 35.5041 41.4068C35.2785 41.6223 34.9995 41.7739 34.696 41.846C34.3622 41.846 33.923 41.9865 33.8351 41.4243C33.6243 40.1068 33.3257 38.8068 33.1851 37.4892C32.9392 35.2933 32.7987 33.0973 32.6054 30.9014C32.4122 28.7054 32.2541 26.527 32.0608 24.3487C31.8676 22.1703 31.5865 19.6054 31.3405 17.3216C31.3405 16.7946 31.1649 16.25 31.077 15.6527L30.6378 15.6703Z" fill="black"/>
<path d="M29.5662 88.0662C29.0216 88.0662 29.004 88.5932 28.9338 88.9797C28.9338 88.9797 29.1797 89.2608 29.2676 89.2257C29.3554 89.1905 29.8649 88.3824 29.5662 88.0662Z" fill="black"/>
<path d="M27.5987 86.0811L27.0365 87.0121L27.2297 87.1878C27.4797 87.0079 27.7146 86.8082 27.9324 86.5905C27.8435 86.4071 27.7314 86.2358 27.5987 86.0811Z" fill="black"/>
<path d="M28.1081 19.0257C28.723 18.7797 29.3378 18.5689 29.8649 18.2878C30.023 18.2878 30.0932 17.9365 30.1986 17.7433C30.0054 17.7433 29.7946 17.6203 29.6189 17.7433C29.1678 17.8715 28.732 18.0482 28.3189 18.2703C28.1257 18.3933 28.0203 18.6919 27.8797 18.9027L28.1081 19.0257Z" fill="black"/>
<path d="M48.9432 52.9311C48.5176 52.8636 48.0816 52.9391 47.7033 53.1457C47.3251 53.3523 47.026 53.6784 46.8527 54.073C47.0649 54.1399 47.2884 54.1633 47.5098 54.1417C47.7312 54.1201 47.946 54.0541 48.1412 53.9474C48.3365 53.8408 48.5082 53.6958 48.646 53.5211C48.7838 53.3465 48.8849 53.1458 48.9432 52.9311Z" fill="black"/>
<path d="M30.4973 19.0433C30.3216 19.0433 30.1635 18.9554 30.0581 19.0433C29.5311 19.3068 29.004 19.5878 28.4946 19.9041C28.446 19.9512 28.4094 20.0093 28.388 20.0735C28.3666 20.1377 28.361 20.2061 28.3716 20.273C28.4178 20.3247 28.4748 20.3657 28.5385 20.393C28.6023 20.4203 28.6712 20.4333 28.7405 20.4311C29.1297 20.3751 29.4971 20.2172 29.8056 19.9735C30.1141 19.7298 30.3527 19.4089 30.4973 19.0433Z" fill="black"/>
<path d="M38.7541 39.6852L37.4014 40.1946C37.2473 40.2568 37.1092 40.3529 36.9973 40.4757C36.8938 40.5971 36.7999 40.7263 36.7162 40.8622C36.8568 40.8622 37.0324 41.0027 37.1554 40.9676C37.6635 40.8089 38.1621 40.6212 38.6486 40.4054C38.8068 40.4054 38.8946 40.1068 39.0176 39.9487L38.7541 39.6852Z" fill="black"/>
<path d="M26.7554 52.123C26.0334 52.2515 25.3801 52.6311 24.9108 53.1946C25.2098 53.2968 25.5307 53.3164 25.8399 53.2515C26.149 53.1865 26.435 53.0395 26.6676 52.8257C26.7443 52.5998 26.7741 52.3608 26.7554 52.123Z" fill="black"/>
<path d="M37.6473 41.723C37.7775 41.8282 37.9321 41.8992 38.0968 41.9292C38.2616 41.9593 38.4312 41.9476 38.5903 41.8952C38.7493 41.8428 38.8927 41.7513 39.0072 41.6291C39.1218 41.507 39.2039 41.358 39.246 41.1959C38.6487 40.8095 38.0865 40.9676 37.6473 41.723Z" fill="black"/>
<path d="M47.6608 54.9865C47.7912 55.0727 47.9396 55.1277 48.0947 55.1474C48.2497 55.167 48.4072 55.1508 48.5549 55.0998C48.7027 55.0489 48.8367 54.9646 48.9467 54.8536C49.0567 54.7425 49.1397 54.6077 49.1892 54.4595C48.8027 54.1081 48.3108 54.2838 47.6608 54.9865Z" fill="black"/>
<path d="M35.8378 67.1081C36.3824 67.477 36.7513 67.4067 37.3486 66.8797C37.05 66.3703 36.2595 66.4757 35.8378 67.1081Z" fill="black"/>
<path d="M35.3108 64.1567C35.4929 64.2631 35.7048 64.3069 35.9142 64.2815C36.1235 64.2561 36.3188 64.1629 36.4703 64.0162C36.5119 63.9441 36.5338 63.8623 36.5338 63.779C36.5338 63.6958 36.5119 63.614 36.4703 63.5419C36.4079 63.4832 36.3318 63.4411 36.2489 63.4196C36.1659 63.3981 36.079 63.3979 35.9959 63.4189C35.7061 63.5839 35.43 63.7719 35.1703 63.9811L35.3108 64.1567Z" fill="black"/>
<path d="M35.7676 65.8784C35.8811 65.9745 36.0184 66.0381 36.165 66.0626C36.3117 66.0871 36.4623 66.0715 36.6008 66.0175C36.7394 65.9636 36.8608 65.8732 36.9522 65.7559C37.0436 65.6387 37.1017 65.4989 37.1203 65.3514C36.6284 65.0878 36.3473 65.1932 35.7676 65.8784Z" fill="black"/>
<path d="M26.5622 50.9459C26.3513 50.4892 26.0351 50.577 25.754 50.7878C25.5607 50.9706 25.3843 51.1705 25.227 51.3851C25.2099 51.4208 25.201 51.4598 25.201 51.4993C25.201 51.5388 25.2099 51.5779 25.227 51.6135C25.227 51.6135 25.3676 51.6135 25.4203 51.6135L26.5622 50.9459Z" fill="black"/>
<path d="M38.8067 44.0595C39.1214 44.002 39.4323 43.9257 39.7378 43.8311C39.8257 43.8311 39.9311 43.55 39.8959 43.4973C39.8608 43.4446 39.6149 43.2514 39.527 43.2865C39.2366 43.4274 38.955 43.5858 38.6838 43.7608L38.8067 44.0595Z" fill="black"/>
<path d="M29.654 22.0122L30.3216 21.4149C30.1986 21.3095 30.023 21.0811 29.9878 21.0986C29.7076 21.2699 29.4377 21.4576 29.1797 21.6608L29.654 22.0122Z" fill="black"/>
<path d="M49.7865 78.8608C49.9797 78.8608 50.0851 79.0013 50.1379 78.9838C50.3642 78.872 50.5815 78.7428 50.7878 78.5973C50.7734 78.4996 50.7437 78.4048 50.7 78.3162L50.0676 78.6149C49.9664 78.6879 49.8723 78.7702 49.7865 78.8608Z" fill="black"/>
<path d="M231.453 54.8284C231.519 55.3296 231.56 55.8338 231.576 56.3392C231.513 56.9231 231.513 57.512 231.576 58.0959C232.103 57.4986 232.612 56.8838 233.192 56.3392C233.474 56.1594 233.782 56.0232 234.105 55.9351C234.067 56.2786 233.966 56.6121 233.807 56.9189C233.262 57.6216 232.647 58.2365 231.927 59.0622C232.284 59.1527 232.649 59.2115 233.016 59.2378C233.701 59.2378 234.386 59.0622 235.072 59.0622C235.427 59.1172 235.771 59.2299 236.091 59.3959C235.809 59.6419 235.546 60.0459 235.23 60.1162C234.351 60.3095 233.473 60.3446 232.542 60.45L231.962 60.5554L233.719 63.0676C232.876 63.6122 232.665 62.9095 232.331 62.5932C231.997 62.277 231.593 61.8203 231.101 61.2757L230.908 64.4905H230.504C229.924 63.5419 230.504 62.4176 230.205 61.223C229.749 61.6797 229.38 62.0838 228.958 62.4703C228.754 62.6138 228.536 62.7373 228.308 62.8392C228.308 62.5405 228.168 62.1892 228.308 61.9784C228.624 61.523 228.977 61.0941 229.362 60.6959C228.466 60.0986 227.061 60.9068 226.551 59.3959H229.766L228.009 56.5149L228.378 56.2162C229.555 56.3216 229.415 57.8149 230.504 58.2892L231.031 54.7757L231.453 54.8284Z" fill="black"/>
<path d="M229.187 43.9189C229.187 44.3757 229.52 45.0608 228.747 45.4649C228.427 45.5852 228.074 45.5877 227.753 45.4718C227.431 45.3559 227.161 45.1293 226.991 44.8324C226.893 44.5106 226.902 44.1658 227.016 43.8493C227.13 43.5328 227.343 43.2615 227.623 43.0757C227.941 43.0076 228.273 43.0551 228.56 43.2096C228.846 43.3641 229.069 43.6156 229.187 43.9189Z" fill="black"/>
<path d="M219.138 59.923C219.911 60.3095 220.508 60.4324 220.895 60.8189C221.281 61.2054 220.701 62.1892 220.122 62.3122C219.542 62.4351 218.769 62.4878 218.646 61.7324C218.488 61.2757 218.874 60.7311 219.138 59.923Z" fill="black"/>
<g opacity="0.5">
<path opacity="0.5" d="M246.982 179.751C246.794 180.227 246.577 180.69 246.332 181.139C246.019 181.615 245.755 182.121 245.542 182.65C246.297 182.387 247.035 182.105 247.808 181.912C248.14 181.888 248.473 181.924 248.792 182.018C248.546 182.264 248.353 182.597 248.054 182.72C247.246 183.072 246.403 183.318 245.366 183.669C245.631 183.924 245.919 184.154 246.227 184.354C246.842 184.653 247.509 184.864 248.107 185.197C248.392 185.428 248.641 185.701 248.845 186.005C248.458 186.005 248.036 186.304 247.72 186.199C246.859 185.935 246.051 185.531 245.208 185.18L244.664 184.987L245.032 188.078C244.014 188.078 244.189 187.428 244.049 186.989C243.908 186.55 243.803 185.953 243.609 185.232L241.853 187.938L241.484 187.762C241.484 186.638 242.485 186.005 242.819 184.758C242.204 184.934 241.677 185.109 241.062 185.232C240.811 185.259 240.558 185.259 240.307 185.232C240.447 184.969 240.5 184.6 240.711 184.477C241.215 184.236 241.738 184.036 242.274 183.88C241.765 182.931 240.149 182.949 240.518 181.368L243.364 182.861L243.223 179.488H243.592C244.576 180.155 243.732 181.403 244.435 182.334L246.596 179.576L246.982 179.751Z" fill="black"/>
<path opacity="0.5" d="M250.338 169.141C250.18 169.597 250.074 170.3 249.196 170.282C248.864 170.229 248.56 170.061 248.339 169.808C248.118 169.554 247.992 169.231 247.984 168.895C248.055 168.572 248.229 168.282 248.479 168.066C248.729 167.851 249.042 167.723 249.372 167.7C249.674 167.792 249.936 167.985 250.112 168.248C250.288 168.51 250.368 168.826 250.338 169.141Z" fill="black"/>
<path opacity="0.5" d="M233.754 178.17C234.228 178.891 234.703 179.295 234.791 179.787C234.878 180.278 233.93 180.876 233.368 180.7C232.805 180.524 232.12 180.191 232.366 179.47C232.524 179.031 233.122 178.75 233.754 178.17Z" fill="black"/>
</g>
<path d="M104.211 30.9716C104.39 30.4981 104.596 30.0348 104.826 29.5838C105.129 29.0986 105.388 28.5871 105.599 28.0554C104.843 28.3189 104.105 28.6351 103.35 28.8459C103.014 28.8771 102.674 28.8473 102.349 28.7581C102.577 28.5122 102.788 28.1608 103.069 28.0378C103.877 27.6689 104.72 27.4054 105.739 27.0365C105.469 26.7852 105.175 26.5615 104.861 26.3689C104.246 26.0703 103.578 25.877 102.964 25.5608C102.683 25.3322 102.434 25.0662 102.226 24.7703C102.595 24.7703 103.016 24.454 103.332 24.5419C104.193 24.7878 105.089 25.1919 105.862 25.5081L106.407 25.7013L105.985 22.627C106.986 22.5392 106.846 23.2419 106.986 23.6986C107.127 24.1554 107.268 24.7176 107.461 25.4554L109.13 22.7149L109.499 22.8905C109.499 23.9973 108.55 24.6473 108.216 25.9122C108.831 25.7189 109.358 25.5257 109.973 25.4027C110.224 25.3676 110.478 25.3676 110.728 25.4027C110.605 25.6662 110.553 26.0351 110.342 26.1581C109.847 26.4153 109.329 26.627 108.796 26.7905C109.323 27.7392 110.922 27.6865 110.676 29.2676L107.795 27.827L108.005 31.2H107.636C106.635 30.55 107.461 29.2851 106.741 28.354L104.632 31.1649L104.211 30.9716Z" fill="black"/>
<path d="M101.066 41.6527C101.224 41.2135 101.312 40.4933 102.191 40.4933C102.523 40.5422 102.828 40.706 103.053 40.9563C103.277 41.2066 103.407 41.5275 103.42 41.8635C103.352 42.1845 103.185 42.476 102.942 42.6967C102.7 42.9174 102.394 43.0561 102.068 43.0933C101.762 43.0023 101.496 42.8102 101.315 42.5484C101.133 42.2867 101.045 41.9708 101.066 41.6527Z" fill="black"/>
<path d="M117.457 32.2892C116.965 31.5865 116.491 31.1824 116.403 30.7081C116.315 30.2338 117.228 29.5838 117.791 29.7595C118.353 29.9352 119.055 30.2338 118.827 30.9541C118.686 31.4108 118.089 31.7095 117.457 32.2892Z" fill="black"/>
<path d="M10.8216 95.919C10.9891 95.4345 11.1826 94.9595 11.4013 94.496C11.6963 94.0142 11.9378 93.5017 12.1216 92.9676C11.3838 93.2487 10.6635 93.5825 9.89053 93.8108C9.56532 93.8706 9.23195 93.8706 8.90674 93.8108C9.13512 93.5649 9.3108 93.2135 9.60945 93.073C10.4 92.6865 11.2432 92.4054 12.2446 92.0014C11.9706 91.7604 11.6767 91.543 11.3662 91.3514C10.7338 91.0879 10.0486 90.8946 9.43377 90.596C9.13512 90.4379 8.92431 90.0865 8.6608 89.8406C9.04728 89.7352 9.45134 89.4892 9.76755 89.5771C10.6459 89.8054 11.5243 90.1744 12.3324 90.473L12.877 90.6487L12.3851 87.5919C13.3865 87.469 13.2459 88.1892 13.404 88.6284C13.5621 89.0676 13.7027 89.6473 13.9135 90.3852L15.5297 87.5919L15.8986 87.75C15.8986 88.8568 14.9851 89.6122 14.704 90.8068C15.3013 90.6135 15.8284 90.4027 16.4608 90.2622C16.7113 90.2264 16.9657 90.2264 17.2162 90.2622C17.0932 90.5257 17.0405 90.8946 16.8297 91.0176C16.3446 91.2847 15.8395 91.5137 15.3189 91.7027C15.8635 92.6338 17.4621 92.546 17.2513 94.1271L14.3351 92.7568L14.6338 96.1298H14.2649C13.2635 95.5149 14.054 94.2325 13.2986 93.319L11.173 96.0946L10.8216 95.919Z" fill="black"/>
<path d="M7.9581 106.67C8.09864 106.213 8.18648 105.493 9.04729 105.493C9.38366 105.522 9.69837 105.671 9.93386 105.913C10.1693 106.155 10.3099 106.474 10.3297 106.811C10.2694 107.136 10.1077 107.433 9.8678 107.66C9.62793 107.888 9.32223 108.033 8.99459 108.076C8.68701 107.996 8.41626 107.812 8.2276 107.556C8.03894 107.301 7.94381 106.988 7.9581 106.67Z" fill="black"/>
<path d="M24.1027 96.8676C23.5933 96.1824 23.1189 95.7959 22.996 95.3216C22.873 94.8473 23.7865 94.1797 24.3662 94.3378C24.946 94.4959 25.6487 94.777 25.4378 95.5149C25.2973 95.9541 24.7176 96.2703 24.1027 96.8676Z" fill="black"/>
<path d="M154.595 178.557C158.061 178.518 161.488 179.303 164.591 180.849C167.694 182.395 170.386 184.656 172.443 187.446C174.689 190.224 176.633 193.233 178.241 196.423C179.662 199.354 180.786 202.42 181.596 205.576C182.259 208.265 182.379 211.061 181.947 213.797C181.624 216.962 180.861 220.066 179.681 223.02C178.873 224.988 177.503 226.727 176.712 228.712C175.502 231.402 173.465 233.636 170.897 235.089C170.639 235.208 170.368 235.297 170.089 235.353C168.332 235.827 166.365 236.178 164.555 236.793C159.454 238.581 153.916 238.698 148.745 237.127C146.212 236.518 143.719 235.755 141.278 234.843C138.606 233.643 136.249 231.839 134.392 229.573C131.593 226.511 129.76 222.692 129.122 218.593C128.726 215.155 128.726 211.684 129.122 208.246C129.523 204.811 130.252 201.423 131.3 198.127C132.236 194.174 134.069 190.489 136.658 187.358C137.901 185.724 139.245 184.169 140.681 182.703C143.478 180.409 146.941 179.078 150.554 178.908C151.889 178.785 153.224 178.662 154.595 178.557ZM175.447 212.726C175.292 210.286 174.992 207.857 174.551 205.453C173.343 199.605 170.866 194.094 167.296 189.308C165.557 186.886 163.301 184.882 160.691 183.441C154.12 180.191 147.445 179.593 140.857 183.441C140.599 183.6 140.387 183.824 140.242 184.091C140.031 184.424 139.926 184.846 139.68 185.18C138.091 186.911 136.684 188.8 135.481 190.819C134.204 193.902 133.148 197.073 132.319 200.305C131.91 201.68 131.639 203.093 131.511 204.522C131.093 209.121 131.546 213.758 132.846 218.189C133.617 221.432 135.153 224.444 137.326 226.973C139.329 229.483 142.11 231.257 145.231 232.015C150.1 233.065 155.08 233.513 160.058 233.35C162.66 233.084 165.16 232.198 167.349 230.768C168.365 229.968 169.193 228.955 169.773 227.799C171.037 225.996 172.21 224.132 173.286 222.212C174.713 219.254 175.445 216.01 175.43 212.726H175.447Z" fill="black"/>
</svg>
