<svg width="226" height="253" viewBox="0 0 226 253" fill="none" xmlns="http://www.w3.org/2000/svg">
<path d="M108.394 134.74C107.049 134.659 106.955 134.485 106.82 133.207C106.765 130.961 106.868 128.713 107.129 126.482C107.256 125.2 107.472 123.928 107.775 122.676C108.286 119.609 108.757 116.556 109.322 113.503C109.582 112.172 109.74 110.823 109.793 109.468C109.887 107.262 110.142 105.069 110.344 102.877C110.438 101.761 110.573 100.644 110.694 99.5281C111.062 95.5402 112.061 91.636 113.653 87.9611C114.584 85.8133 116.241 84.0613 118.333 83.0115C120.66 81.8144 122.247 82.4197 123.364 84.9079C123.428 85.0443 123.474 85.1892 123.498 85.3383C123.673 86.5623 124.211 87.3693 125.623 87.1272C127.95 87.6652 130.317 88.0956 132.59 88.8084C134.618 89.5022 136.481 90.6055 138.064 92.0499C140.034 93.6131 141.837 95.3755 143.444 97.3088C144.574 98.8018 145.61 100.362 146.659 101.909C147.17 102.648 147.641 103.415 148.098 104.182C148.555 104.948 148.798 105.527 149.174 106.145C149.699 107.047 150.264 107.921 150.788 108.835L153.613 113.772C153.778 114 153.879 114.269 153.904 114.55C153.929 114.831 153.877 115.113 153.754 115.367C153.631 115.621 153.442 115.837 153.206 115.992C152.971 116.146 152.697 116.234 152.416 116.246C151.029 116.59 149.565 116.413 148.3 115.749C148.174 115.668 148.031 115.617 147.883 115.601C146.296 115.708 145.193 114.659 143.929 113.973C142.906 113.422 141.965 112.763 140.943 112.211C140.37 111.944 139.781 111.71 139.181 111.512C138.502 112.675 138.071 113.967 137.916 115.305C137.177 119.461 136.571 123.63 135.832 127.786C135.59 129.239 134.81 129.535 133.411 129.01C132.11 128.378 130.909 127.557 129.846 126.576C128.756 125.731 127.59 124.988 126.363 124.357C125.102 123.575 123.889 122.717 122.731 121.788L120.768 120.443C119.669 121.185 118.787 122.206 118.212 123.402C117.203 125.056 116.383 126.818 115.522 128.526C115.415 128.715 115.24 128.876 115.132 129.064C114.54 130.019 113.962 130.974 113.397 131.943C113.069 132.345 112.81 132.8 112.63 133.288C112.474 134.175 112.42 135.078 112.469 135.978C112.577 137.995 112.738 140.013 112.899 142.017C112.948 142.262 113.011 142.505 113.088 142.743L114.675 141.021C116.138 139.271 117.862 137.756 119.786 136.529C121.252 135.709 122.705 134.646 124.547 134.834C126.39 135.023 128.582 135.292 130.559 135.574C131.305 135.683 131.987 136.055 132.483 136.623C133.82 137.864 135.053 139.214 136.168 140.658C137.378 142.449 138.444 144.334 139.356 146.294C139.826 147.383 140.27 148.499 140.701 149.589C140.983 150.221 141.212 150.302 141.938 150.127C143.116 149.73 144.392 149.73 145.57 150.127C146.409 150.515 147.188 151.023 147.883 151.633C148.798 152.4 149.591 153.274 150.573 154.216C151.068 154.157 151.535 153.957 151.918 153.637C152.2 153.409 152.523 153.207 152.819 152.965C153.323 152.554 153.922 152.276 154.562 152.159C155.201 152.041 155.86 152.087 156.477 152.292C160.259 153.254 163.791 155.015 166.834 157.457C168.545 158.852 170.179 160.338 171.73 161.909C172.225 162.464 172.675 163.058 173.075 163.685C173.559 164.344 174.03 165.03 174.5 165.689C175.064 166.517 175.559 167.389 175.98 168.298C176.893 170.054 177.899 171.76 178.993 173.409C179.315 173.9 179.585 174.423 179.8 174.969C180.244 176.193 180.876 177.35 181.427 178.533C181.737 179.206 182.046 179.878 182.342 180.564C182.638 181.25 183.028 182.124 183.364 182.918C182.436 183.644 182.476 183.577 181.508 182.918C180.54 182.259 179.248 181.573 178.105 180.968C176.962 180.363 176.074 179.892 174.985 179.313C174.829 179.524 174.702 179.755 174.608 179.999C173.773 183.412 172.763 186.779 171.582 190.087C171.017 191.903 170.412 193.705 169.887 195.467C169.708 196.228 169.582 197.001 169.511 197.78C169.376 198.897 167.762 199.193 166.955 198.816C166.846 198.749 166.753 198.661 166.679 198.557C166.605 198.453 166.552 198.335 166.525 198.211C166.436 197.885 166.28 197.582 166.067 197.32C165.854 197.058 165.588 196.844 165.287 196.691C162.947 195.077 160.593 193.503 158.293 191.835C156.787 190.733 155.401 189.482 153.949 188.298C153.64 188.042 153.303 187.827 152.913 187.545C152.702 187.794 152.505 188.055 152.321 188.325L149.779 192.656C148.717 194.458 147.641 196.247 146.565 198.036C146.418 198.251 146.305 198.486 146.229 198.735C146.159 199.034 146.019 199.313 145.82 199.547C145.621 199.781 145.369 199.964 145.085 200.08C143.66 200.833 142.57 200.215 142.557 198.601C142.597 195.538 142.409 192.476 141.992 189.441C141.682 187.518 141.723 185.581 141.535 183.658C141.333 180.761 141.333 177.853 141.535 174.956C141.743 171.854 142.39 168.797 143.458 165.877C144.009 164.29 144.628 162.73 145.301 161.196C145.678 160.42 146.128 159.682 146.646 158.99C146.886 158.695 147.001 158.319 146.969 157.94C146.936 157.561 146.758 157.209 146.471 156.96C145.512 155.722 144.319 154.684 142.96 153.906L141.777 153.422C141.682 153.61 141.602 153.678 141.615 153.732C141.948 155.3 142.075 156.905 141.992 158.506C141.992 160.12 141.992 161.721 141.992 163.335C141.992 164.559 141.763 165.783 141.629 166.993C141.588 167.211 141.52 167.424 141.427 167.625L140.862 169.051C140.854 169.159 140.854 169.266 140.862 169.374C140.485 171.257 140.109 171.512 138.172 171.27C137.774 171.193 137.414 170.985 137.15 170.679C136.391 169.755 135.787 168.715 135.361 167.598C134.648 166.253 133.801 164.976 133.007 163.671C133.007 163.59 132.819 163.55 132.59 163.416C132.442 163.859 132.294 164.263 132.187 164.666C132.136 165.036 132.055 165.4 131.945 165.756C130.724 168.774 129.905 171.939 129.51 175.171C128.865 178.668 128.717 182.219 128.34 185.743C128.071 188.271 127.762 190.786 127.533 193.328C127.466 194.448 127.466 195.571 127.533 196.691C127.533 199.193 127.668 201.694 127.762 204.196C127.762 204.586 127.869 204.989 127.923 205.42C130.995 204.048 134.289 203.241 137.647 203.039C139.221 202.972 140.781 202.811 142.355 202.716C142.874 202.676 143.396 202.676 143.915 202.716C144.213 202.734 144.505 202.815 144.769 202.954C145.033 203.093 145.265 203.287 145.448 203.523C145.865 204.048 146.43 204.451 146.793 204.989C147.057 205.413 147.273 205.864 147.439 206.334C147.496 206.588 147.577 206.836 147.681 207.074C148.186 207.984 148.523 208.977 148.676 210.006C149.695 214.223 150.147 218.556 150.021 222.891C149.998 223.515 149.866 224.129 149.631 224.707C149.383 225.585 149.225 226.487 149.161 227.397C148.811 229.805 148.475 232.212 148.085 234.606C147.923 235.548 147.641 235.83 147.062 235.871C146.724 235.886 146.39 235.789 146.112 235.594C145.835 235.399 145.63 235.118 145.529 234.795C145.287 234.082 145.206 233.329 144.978 232.616C144.483 230.74 144.168 228.821 144.036 226.886C143.844 225.864 143.592 224.853 143.283 223.86C143.135 223.322 143.027 222.77 142.866 222.246C142.102 220.356 140.729 218.775 138.966 217.754C138.016 217.21 136.918 216.984 135.832 217.108C134.677 217.083 133.526 217.256 132.429 217.619C131.097 217.886 129.726 217.886 128.394 217.619C128.394 218.224 128.475 218.789 128.501 219.368C128.528 219.946 128.501 220.565 128.582 221.156C128.977 223.783 129.184 226.435 129.201 229.092C129.161 229.653 129.239 230.217 129.43 230.746C129.807 232.225 130.019 233.74 130.062 235.265C130.304 236.61 130.438 237.955 130.6 239.381C130.804 240.512 130.881 241.663 130.828 242.811C130.809 243.561 130.905 244.309 131.111 245.03C131.299 245.904 131.582 246.752 131.797 247.626C131.922 248.023 131.94 248.445 131.848 248.851C131.757 249.257 131.56 249.631 131.277 249.936C130.994 250.24 130.636 250.465 130.238 250.586C129.84 250.707 129.417 250.721 129.013 250.625C127.884 250.379 126.787 250.005 125.744 249.509C125.292 249.24 124.942 248.828 124.749 248.339C124.522 247.792 124.368 247.218 124.292 246.631C124.244 246.22 124.244 245.804 124.292 245.393C124.339 243.454 124.177 241.515 123.807 239.61C123.579 238.413 123.565 237.162 123.431 235.938C123.296 234.714 123.175 233.571 123.041 232.387C123.041 231.903 122.893 231.419 122.866 230.935C122.624 227.424 122.409 223.927 122.153 220.417C122.019 218.628 121.803 216.852 121.696 215.037C121.575 213.033 121.467 211.002 121.454 208.998C121.454 206.751 121.561 204.505 121.602 202.273C121.602 200.295 121.602 198.305 121.682 196.328C121.776 193.786 121.924 191.257 122.099 188.715C122.261 186.375 122.462 184.021 122.651 181.681C122.989 178.898 123.561 176.149 124.359 173.463C125.045 170.773 125.892 168.083 126.834 165.541C127.544 163.776 128.353 162.051 129.255 160.376C129.396 160.184 129.457 159.944 129.424 159.708C129.392 159.472 129.268 159.258 129.08 159.112C127.385 157.471 125.785 155.736 124.063 154.135C123.554 153.537 122.918 153.061 122.201 152.74C121.484 152.419 120.705 152.261 119.92 152.279C119.098 152.31 118.275 152.274 117.459 152.171C117.203 152.152 116.947 152.196 116.712 152.299C116.478 152.402 116.272 152.562 116.114 152.763C115.334 153.61 114.527 154.444 113.693 155.238C113.142 155.776 113.303 156.422 113.357 157.04C113.437 157.955 113.653 158.883 113.706 159.811C113.706 161.156 113.706 162.568 113.787 163.94C113.908 166.065 114.123 168.19 114.218 170.315C114.298 171.983 114.218 173.664 114.218 175.332C114.218 175.749 114.218 176.166 114.218 176.57C114.366 179.972 114.5 183.362 114.648 186.765C114.648 187.061 114.648 187.357 114.648 187.652C114.863 189.697 115.132 191.687 115.28 193.786C115.468 196.274 115.536 198.776 115.657 201.277C115.652 201.61 115.674 201.943 115.724 202.273C116.107 204.404 116.323 206.563 116.37 208.729C116.491 210.585 116.787 212.427 117.015 214.283C117.239 216.279 117.342 218.287 117.325 220.296C117.325 222.205 117.405 224.115 117.486 226.025C117.529 226.43 117.638 226.826 117.809 227.195C118.07 227.814 118.099 228.507 117.889 229.146C117.739 229.684 117.703 230.247 117.782 230.8C118.105 233.315 118.468 235.83 118.844 238.332C119.06 239.677 119.355 241.022 119.584 242.367C119.678 243.013 119.692 243.712 119.759 244.358C119.775 244.576 119.811 244.792 119.867 245.003C120.039 245.489 120.187 245.982 120.31 246.483C120.472 247.276 120.405 247.976 119.45 248.272C119.168 248.384 118.918 248.564 118.723 248.796C118.511 249.066 118.202 249.245 117.862 249.295C117.522 249.345 117.176 249.263 116.894 249.065C115.711 248.5 114.527 247.949 113.316 247.451C113.077 247.363 112.868 247.209 112.714 247.006C112.559 246.804 112.465 246.562 112.442 246.308C112.048 243.618 111.626 240.959 111.178 238.332C110.909 236.718 110.546 235.117 110.25 233.503C110.075 232.549 109.887 231.594 109.793 230.625C109.451 228.325 109.227 226.008 109.12 223.685C109.12 221.062 108.972 218.453 108.932 215.844C108.932 214.203 109.026 212.548 108.932 210.907C108.824 207.545 108.622 204.182 108.501 200.82C108.421 198.507 108.38 196.193 108.353 193.866C108.282 189.975 108.237 186.088 108.219 182.205C108.219 181.196 108.3 180.188 108.313 179.179C108.313 177.834 108.313 176.341 108.313 174.929C108.313 173.1 108.313 171.257 108.313 169.428C108.313 166.401 108.421 163.375 108.434 160.349C108.434 156.058 108.434 151.754 108.434 147.464C108.434 146.307 108.434 145.137 108.434 143.98C108.434 142.38 108.434 140.779 108.434 139.179C108.434 138.022 108.434 136.879 108.434 135.722L108.394 134.74ZM122.207 87.1003C121.75 86.6295 121.494 86.1319 121.158 86.0646C120.511 85.8824 119.827 85.8824 119.181 86.0646C117.786 86.5458 116.623 87.5351 115.926 88.8353C115.011 90.7721 113.693 92.5475 113.491 94.7937C113.444 95.3255 113.331 95.8495 113.155 96.3539C112.643 98.2235 112.31 100.138 112.16 102.07C112.16 102.164 112.16 102.258 112.281 102.42C112.388 102.299 112.469 102.231 112.496 102.137C113.247 100.317 113.889 98.4527 114.419 96.5556C115.15 94.0064 116.049 91.5082 117.109 89.0774C117.809 87.302 119.315 86.8582 121.064 87.8131L122.207 87.1003ZM117.741 90.3821L119.598 88.5663C118.535 88.5394 118.158 88.8891 117.741 90.3821Z" fill="white"/>
<path d="M103.606 252.051C102.53 252.051 100.835 251.258 96.4636 248.783C96.4375 248.293 96.4646 247.801 96.5443 247.317C97.0436 244.897 97.2826 242.43 97.2571 239.96C97.4185 237.955 97.4858 235.925 97.7144 233.934C98.142 230.449 98.3352 226.94 98.2928 223.429C98.2928 222.34 98.2928 221.264 98.4004 220.175C98.6694 216.301 99.0325 212.427 99.2208 208.554C99.3419 205.756 99.2208 202.945 99.2208 200.148C99.1665 199.553 99.063 198.963 98.9115 198.386C98.6783 198.534 98.4537 198.696 98.239 198.87C96.698 200.27 94.858 201.3 92.859 201.883C91.5463 202.404 90.2966 203.072 89.1333 203.873C86.996 205.386 85.0217 207.117 83.2422 209.038C82.3051 210.067 81.509 211.216 80.875 212.454C79.9871 214.046 79.2487 215.716 78.6692 217.444C78.1178 218.91 77.3242 220.309 76.6921 221.721C76.6254 221.928 76.514 222.117 76.3659 222.276C76.2178 222.435 76.0365 222.559 75.835 222.64C75.6334 222.721 75.4165 222.757 75.1997 222.744C74.9829 222.732 74.7715 222.672 74.5804 222.569C74.4297 222.497 74.2949 222.396 74.1839 222.271C74.0729 222.147 73.988 222.001 73.9341 221.843C73.8802 221.685 73.8585 221.518 73.8701 221.352C73.8818 221.185 73.9267 221.023 74.0021 220.874C74.2019 220.401 74.3376 219.903 74.4056 219.394C74.5939 217.121 74.7553 214.848 74.8763 212.562C74.7986 211.95 74.7537 211.335 74.7418 210.719C74.9945 209.094 75.3631 207.49 75.8447 205.918C76.391 204.006 77.1774 202.171 78.185 200.457C78.723 199.569 78.992 198.534 79.53 197.632C80.5388 195.817 81.3458 193.907 82.3949 192.104C83.2659 190.59 84.5119 189.326 86.0129 188.433C86.8603 187.895 87.6269 187.222 88.4608 186.644C89.6848 185.81 90.9222 184.949 92.1999 184.182C93.4637 183.423 94.9494 183.119 96.4098 183.322C96.5559 183.354 96.7074 183.354 96.8536 183.322C97.253 183.229 97.6693 183.239 98.0641 183.349C98.4589 183.46 98.8196 183.668 99.1132 183.954C99.1805 183.954 99.3284 183.954 99.4764 183.954C99.8261 183.416 100.162 182.918 99.8395 182.219C99.7646 181.891 99.7646 181.551 99.8395 181.223C99.8395 179.058 99.9202 176.879 99.9471 174.714C99.9471 174.566 99.9471 174.418 99.9471 174.27C100.134 172.03 100.102 169.778 99.853 167.545C99.853 165.083 99.9606 162.609 100.001 160.147C100.001 157.121 100.162 154.095 100.095 151.068C99.9875 146.845 99.8395 142.622 99.5302 138.412C99.3346 136.579 98.9331 134.775 98.3331 133.032C98.0706 132.452 97.6859 131.935 97.2054 131.517C96.7249 131.1 96.1599 130.79 95.549 130.611C95.011 130.382 94.4461 130.786 94.0695 131.216C92.8503 132.547 91.9814 134.16 91.5409 135.91C91.5003 136.231 91.5767 136.556 91.7561 136.825C92.173 137.484 92.7648 138.049 93.1011 138.735C94.3111 140.757 95.2175 142.946 95.7911 145.231C96.0601 146.738 96.5443 148.204 96.7326 149.723C97.0611 151.95 97.2318 154.198 97.2437 156.448C97.2977 159.772 96.9865 163.092 96.3156 166.348C96.2391 166.634 96.1896 166.927 96.1677 167.222C96.1677 168.567 96.0466 169.912 95.9928 171.338C95.9868 171.524 95.9597 171.709 95.9121 171.889C95.4817 173.234 95.0244 174.485 94.5671 175.803C94.2443 176.866 94.0157 177.968 93.6525 179.031C93.5935 179.304 93.479 179.561 93.3161 179.788C93.1532 180.014 92.9454 180.205 92.7056 180.347C92.4658 180.49 92.1993 180.582 91.9225 180.617C91.6458 180.652 91.3647 180.629 91.097 180.551C90.9009 180.494 90.6948 180.48 90.4927 180.51C90.2907 180.54 90.0977 180.614 89.9269 180.726C89.5397 181.021 89.0687 181.186 88.5819 181.196C88.0917 181.162 87.6143 181.024 87.1809 180.792C86.7476 180.56 86.3679 180.24 86.0667 179.851C84.5469 177.726 83.0136 175.615 81.5072 173.463C80.9019 172.575 80.4043 171.607 79.799 170.773C79.4617 170.289 79.0789 169.839 78.6558 169.428C78.5915 169.358 78.5135 169.302 78.4267 169.264C78.3399 169.226 78.2462 169.207 78.1514 169.207C78.0566 169.207 77.9629 169.226 77.876 169.264C77.7892 169.302 77.7112 169.358 77.647 169.428C77.3108 169.724 77.0014 170.06 76.6786 170.356C74.4594 172.373 72.3074 174.391 70.0343 176.354C68.5952 177.565 67.3443 178.91 65.9993 180.188C65.8305 180.344 65.6314 180.464 65.4143 180.54C65.1973 180.616 64.9669 180.647 64.7375 180.631C64.508 180.614 64.2843 180.551 64.0803 180.445C63.8763 180.339 63.6963 180.192 63.5514 180.013C63.3497 179.757 63.121 179.515 62.8924 179.26C62.4108 178.813 62.1094 178.205 62.045 177.551C62.1392 173.853 62.1661 170.154 62.2468 166.455C62.314 164.101 62.4216 161.748 62.5427 159.407C62.5427 157.968 62.3678 157.82 61.0363 158.345C59.1264 159.098 57.1761 159.771 55.2528 160.497C54.0154 160.954 52.7914 161.506 51.5137 161.842C50.7583 162.035 49.9729 162.081 49.2003 161.976C48.4067 161.882 48.2857 161.317 48.8775 160.712C48.9575 160.637 49.0481 160.573 49.1465 160.524C49.2076 159.929 49.3339 159.343 49.5231 158.775C51.6675 154.201 54.4428 149.95 57.7679 146.146C60.2554 143.501 62.9543 141.063 65.8379 138.856C68.1027 137.147 70.5154 135.644 73.0471 134.364C74.9433 133.383 76.9961 132.741 79.1131 132.467C80.3236 132.265 81.561 132.171 82.7715 132.037C84.0492 131.938 85.3242 132.26 86.403 132.951C86.5644 133.045 86.7123 133.153 86.8872 133.234C87.5193 133.53 87.7211 133.449 88.0977 132.897C88.4743 132.346 89.093 131.431 89.6444 130.732C90.9006 129.296 92.3384 128.03 93.9215 126.966C94.8508 126.408 95.9559 126.22 97.0174 126.439C98.0789 126.659 99.0191 127.269 99.6512 128.15C100.795 130.211 101.715 132.389 102.395 134.646C102.942 136.428 103.33 138.256 103.552 140.107C103.676 140.803 103.847 141.491 104.063 142.165C104.063 142.46 104.251 142.743 104.291 143.025C104.668 146.361 105.098 149.75 105.394 153.046C105.558 154.982 105.607 156.927 105.542 158.869C105.501 160.7 105.65 162.53 105.986 164.33C106.336 166.698 106.471 169.093 106.39 171.486C106.39 173.153 106.484 174.835 106.524 176.516C106.524 178.641 106.618 180.766 106.659 182.878C106.659 183.55 106.739 184.223 106.739 184.895C106.739 186.012 106.739 187.128 106.739 188.244C106.739 191.19 106.82 194.135 107.062 197.081C107.345 199.874 107.399 202.685 107.224 205.487C106.968 208.527 106.995 211.607 106.941 214.674C106.941 216.731 106.941 218.789 106.941 220.847C106.941 222.367 106.941 223.9 106.941 225.42C106.82 227.438 106.551 229.455 106.376 231.446C106.376 232.078 106.376 232.71 106.376 233.342C106.376 234.23 106.255 235.118 106.201 236.032C106.094 237.754 106 239.462 105.892 241.183C105.909 241.484 105.853 241.783 105.731 242.058C105.157 243.275 104.815 244.589 104.722 245.931C104.386 247.653 104.184 249.401 103.915 251.136C103.74 251.432 103.74 251.755 103.606 252.051Z" fill="white"/>
<path d="M108.864 130.665C107.519 130.584 107.425 130.409 107.304 129.131C107.245 126.886 107.343 124.638 107.6 122.406C107.728 121.148 107.934 119.9 108.219 118.667C108.743 115.601 109.201 112.548 109.779 109.494C110.028 108.162 110.18 106.814 110.236 105.459C110.344 103.254 110.586 101.061 110.788 98.869C110.895 97.7526 111.016 96.6363 111.138 95.5199C111.513 91.5332 112.511 87.63 114.097 83.9529C115.028 81.8052 116.685 80.0532 118.777 79.0033C121.104 77.8063 122.705 78.4115 123.807 80.8998C123.872 81.0362 123.918 81.1811 123.942 81.3302C124.117 82.5541 124.655 83.3611 126.067 83.119C128.394 83.657 130.761 84.0874 133.048 84.8003C135.071 85.4943 136.93 86.5977 138.508 88.0417C140.477 89.6055 142.28 91.3678 143.888 93.3007C145.018 94.7936 146.04 96.3538 147.103 97.9006C147.6 98.6403 148.071 99.407 148.529 100.174C148.986 100.94 149.241 101.519 149.605 102.124C150.129 103.038 150.694 103.913 151.219 104.814C152.16 106.455 153.115 108.096 154.043 109.75C154.209 109.978 154.309 110.247 154.334 110.528C154.359 110.809 154.307 111.092 154.185 111.345C154.062 111.599 153.872 111.815 153.637 111.97C153.401 112.125 153.128 112.213 152.846 112.225C151.459 112.568 149.995 112.391 148.73 111.727C148.605 111.646 148.462 111.596 148.313 111.579C146.726 111.687 145.623 110.638 144.359 109.952C143.35 109.4 142.395 108.741 141.373 108.19C140.8 107.922 140.212 107.689 139.611 107.49C138.932 108.654 138.501 109.945 138.347 111.283C137.607 115.439 137.002 119.609 136.262 123.765C136.02 125.218 135.24 125.513 133.841 124.989C132.54 124.356 131.34 123.536 130.277 122.554C129.189 121.712 128.028 120.97 126.807 120.335C125.541 119.553 124.324 118.695 123.162 117.766L121.198 116.421C120.103 117.168 119.222 118.188 118.643 119.38C117.634 121.035 116.813 122.797 115.953 124.505C115.845 124.693 115.67 124.854 115.563 125.043C114.971 125.998 114.392 126.953 113.828 127.921C113.504 128.327 113.245 128.781 113.061 129.266C112.902 130.153 112.852 131.057 112.913 131.956C113.007 133.973 113.182 135.991 113.33 137.995C113.378 138.242 113.446 138.485 113.532 138.721L115.119 137C116.574 135.247 118.294 133.731 120.216 132.507C121.682 131.687 123.148 130.624 124.978 130.813C126.807 131.001 129.013 131.27 130.99 131.552C131.735 131.662 132.418 132.034 132.913 132.602C134.25 133.843 135.483 135.193 136.598 136.637C137.809 138.428 138.875 140.312 139.786 142.272C140.257 143.362 140.701 144.478 141.131 145.567C141.413 146.2 141.656 146.28 142.368 146.105C143.546 145.709 144.822 145.709 146 146.105C146.839 146.494 147.619 147.001 148.313 147.612C149.228 148.378 150.035 149.253 151.003 150.194C151.499 150.138 151.967 149.937 152.348 149.616C152.644 149.387 152.954 149.185 153.249 148.943C153.756 148.532 154.358 148.255 154.999 148.137C155.641 148.02 156.302 148.066 156.921 148.271C160.699 149.233 164.226 150.994 167.264 153.436C168.975 154.83 170.61 156.316 172.16 157.888C172.655 158.442 173.105 159.036 173.505 159.663C173.989 160.322 174.46 161.008 174.931 161.667C175.494 162.495 175.989 163.368 176.41 164.276C177.323 166.035 178.333 167.741 179.437 169.387C179.754 169.879 180.02 170.402 180.23 170.948C180.674 172.171 181.306 173.328 181.858 174.512C182.167 175.184 182.476 175.857 182.772 176.543C183.068 177.229 183.458 178.103 183.794 178.896C182.866 179.609 182.907 179.556 181.938 178.896C180.97 178.237 179.679 177.551 178.535 176.946C177.392 176.341 176.505 175.87 175.415 175.292C175.259 175.503 175.133 175.733 175.038 175.978C174.208 179.39 173.203 182.757 172.026 186.065C171.447 187.881 170.856 189.683 170.331 191.445C170.139 192.204 170.013 192.978 169.954 193.759C169.82 194.875 168.192 195.171 167.385 194.794C167.277 194.727 167.183 194.639 167.109 194.535C167.035 194.431 166.983 194.314 166.955 194.189C166.868 193.863 166.713 193.558 166.5 193.296C166.287 193.034 166.02 192.82 165.718 192.669C163.391 191.055 161.024 189.482 158.737 187.814C157.231 186.711 155.832 185.46 154.379 184.276C154.07 184.021 153.734 183.806 153.344 183.523C153.133 183.77 152.94 184.031 152.765 184.303C151.904 185.743 151.071 187.195 150.21 188.634L147.009 194.014C146.859 194.229 146.741 194.465 146.659 194.714C146.59 195.013 146.45 195.291 146.251 195.525C146.052 195.759 145.8 195.942 145.516 196.059C144.09 196.812 143.001 196.193 142.987 194.579C143.028 191.516 142.839 188.455 142.422 185.42C142.113 183.496 142.153 181.56 141.978 179.636C141.77 176.739 141.77 173.831 141.978 170.934C142.175 167.832 142.819 164.774 143.888 161.855C144.44 160.268 145.058 158.708 145.731 157.175C146.119 156.404 146.569 155.667 147.076 154.969C147.314 154.674 147.431 154.299 147.4 153.921C147.37 153.543 147.197 153.191 146.915 152.938C145.951 151.7 144.754 150.662 143.391 149.885L142.207 149.401C142.113 149.575 142.032 149.656 142.046 149.71C142.379 151.278 142.505 152.884 142.422 154.485C142.422 156.099 142.422 157.699 142.422 159.313C142.422 160.537 142.194 161.748 142.059 162.972C142.018 163.19 141.95 163.402 141.857 163.604L141.292 165.03C141.278 165.137 141.278 165.245 141.292 165.352C140.916 167.235 140.526 167.491 138.602 167.249C138.205 167.172 137.845 166.963 137.58 166.657C136.821 165.734 136.217 164.694 135.791 163.577C135.079 162.232 134.231 160.954 133.438 159.65C133.438 159.569 133.249 159.528 133.021 159.394C132.873 159.838 132.725 160.241 132.617 160.645C132.573 161.015 132.492 161.38 132.375 161.734C131.16 164.754 130.342 167.919 129.941 171.149C129.295 174.646 129.147 178.197 128.77 181.721C128.501 184.25 128.192 186.765 127.963 189.293C127.896 190.418 127.896 191.545 127.963 192.669C127.963 195.171 128.098 197.673 128.192 200.174C128.192 200.564 128.3 200.968 128.354 201.398C131.43 200.025 134.728 199.218 138.091 199.018C139.652 198.95 141.225 198.789 142.785 198.695C143.305 198.654 143.826 198.654 144.346 198.695C144.645 198.714 144.938 198.796 145.204 198.935C145.471 199.074 145.705 199.267 145.892 199.502C146.296 200.026 146.861 200.43 147.237 200.968C147.501 201.389 147.714 201.841 147.869 202.313C147.93 202.567 148.016 202.815 148.125 203.053C148.625 203.963 148.958 204.957 149.107 205.985C150.125 210.201 150.577 214.534 150.452 218.87C150.434 219.494 150.301 220.109 150.062 220.686C149.819 221.565 149.662 222.466 149.591 223.376C149.241 225.783 148.905 228.191 148.515 230.585C148.354 231.526 148.071 231.809 147.493 231.849C147.154 231.864 146.82 231.767 146.543 231.572C146.265 231.378 146.06 231.097 145.96 230.773C145.731 230.06 145.637 229.307 145.408 228.594C144.914 226.718 144.599 224.8 144.467 222.865C144.281 221.841 144.029 220.83 143.713 219.838C143.579 219.3 143.458 218.749 143.296 218.224C142.537 216.332 141.163 214.75 139.396 213.732C138.447 213.187 137.349 212.961 136.262 213.086C135.107 213.062 133.956 213.235 132.859 213.597C131.528 213.865 130.156 213.865 128.824 213.597C128.824 214.203 128.905 214.768 128.932 215.346C128.959 215.924 128.932 216.543 129.026 217.135C129.409 219.759 129.611 222.405 129.631 225.057C129.592 225.623 129.67 226.19 129.86 226.725C130.239 228.203 130.451 229.719 130.492 231.244C130.734 232.589 130.869 233.934 131.044 235.36C131.237 236.492 131.309 237.642 131.259 238.789C131.253 239.538 131.348 240.285 131.541 241.009C131.729 241.883 132.025 242.73 132.227 243.604C132.356 244 132.377 244.423 132.287 244.829C132.198 245.235 132.003 245.61 131.721 245.916C131.438 246.221 131.08 246.446 130.682 246.567C130.284 246.688 129.861 246.701 129.456 246.604C128.323 246.36 127.222 245.985 126.175 245.487C125.73 245.21 125.382 244.801 125.179 244.317C124.958 243.769 124.804 243.195 124.722 242.609C124.674 242.198 124.674 241.783 124.722 241.372C124.776 239.432 124.614 237.492 124.238 235.588C124.023 234.391 123.996 233.14 123.861 231.916C123.727 230.692 123.606 229.549 123.471 228.366C123.471 227.881 123.337 227.397 123.296 226.913C123.054 223.403 122.839 219.906 122.583 216.395C122.462 214.606 122.247 212.831 122.126 211.015C122.005 208.998 121.898 206.98 121.884 204.976C121.884 202.73 121.992 200.484 122.032 198.251C122.032 196.274 122.032 194.283 122.113 192.306C122.207 189.764 122.368 187.235 122.53 184.693C122.691 182.353 122.893 179.999 123.095 177.659C123.429 174.877 123.995 172.128 124.789 169.441C125.489 166.751 126.323 164.061 127.264 161.519C127.98 159.756 128.789 158.032 129.685 156.354C129.826 156.162 129.887 155.923 129.855 155.687C129.822 155.45 129.698 155.236 129.51 155.09C127.816 153.449 126.215 151.714 124.493 150.113C123.985 149.515 123.349 149.038 122.632 148.717C121.915 148.396 121.136 148.239 120.351 148.257C119.529 148.288 118.706 148.252 117.889 148.15C117.634 148.132 117.378 148.176 117.144 148.279C116.909 148.382 116.704 148.541 116.544 148.742C115.764 149.589 114.957 150.423 114.123 151.216C113.572 151.754 113.733 152.4 113.787 153.019C113.868 153.933 114.083 154.861 114.137 155.789C114.218 157.134 114.137 158.479 114.231 159.919C114.339 162.044 114.554 164.169 114.661 166.294C114.661 167.962 114.661 169.643 114.661 171.311C114.661 171.728 114.661 172.145 114.661 172.548C114.809 175.951 114.957 179.34 115.092 182.743C115.092 183.039 115.092 183.335 115.092 183.631C115.307 185.675 115.589 187.666 115.737 189.764C115.912 192.252 115.993 194.754 116.114 197.256C116.087 197.587 116.087 197.92 116.114 198.251C116.504 200.382 116.72 202.541 116.76 204.707C116.881 206.563 117.177 208.406 117.419 210.262C117.638 212.258 117.737 214.266 117.715 216.274C117.715 218.184 117.795 220.094 117.876 221.99C117.917 222.4 118.026 222.8 118.199 223.174C118.465 223.791 118.498 224.484 118.293 225.124C118.132 225.66 118.091 226.225 118.172 226.778C118.495 229.298 118.853 231.809 119.248 234.31C119.45 235.655 119.759 237 119.974 238.345C120.082 238.991 120.082 239.69 120.149 240.336C120.17 240.555 120.21 240.771 120.27 240.982C120.405 241.479 120.606 241.964 120.7 242.461C120.862 243.255 120.795 243.954 119.84 244.25C119.56 244.359 119.314 244.54 119.127 244.775C118.903 245.033 118.594 245.202 118.255 245.251C117.917 245.301 117.573 245.227 117.284 245.044C116.101 244.479 114.917 243.927 113.706 243.43C113.467 243.341 113.258 243.187 113.104 242.985C112.949 242.782 112.855 242.54 112.832 242.286C112.438 239.596 112.021 236.938 111.581 234.31C111.299 232.696 110.936 231.096 110.64 229.482C110.465 228.527 110.277 227.559 110.183 226.604C109.842 224.2 109.622 221.78 109.524 219.354C109.524 216.731 109.376 214.122 109.335 211.513C109.335 209.872 109.429 208.217 109.335 206.577C109.228 203.214 109.039 199.852 108.905 196.489C108.824 194.176 108.784 191.862 108.757 189.535C108.703 185.644 108.663 181.757 108.636 177.874C108.636 176.866 108.636 175.857 108.717 174.848C108.717 173.503 108.717 172.01 108.717 170.598C108.717 168.769 108.717 166.926 108.717 165.097C108.717 162.071 108.838 159.044 108.838 156.018C108.838 151.727 108.838 147.423 108.838 143.133V139.649C108.838 138.049 108.838 136.448 108.838 134.848C108.838 133.691 108.838 132.548 108.838 131.391C108.878 131.324 108.864 130.988 108.864 130.665ZM167.843 192.091C167.991 191.755 168.112 191.566 168.179 191.351C168.65 189.697 169.094 188.042 169.524 186.388C170.075 184.411 170.627 182.434 171.205 180.47C171.784 178.506 172.483 176.193 173.142 174.041C173.359 173.363 173.765 172.761 174.312 172.306C174.434 172.161 174.6 172.06 174.784 172.018C174.969 171.977 175.163 171.998 175.334 172.077C176.155 172.481 176.989 172.911 177.782 173.422C178.361 173.772 178.885 174.202 179.464 174.552C179.697 174.636 179.942 174.686 180.19 174.7C180.19 174.471 180.19 174.35 180.19 174.27C179.127 172.306 178.119 170.302 176.948 168.392C175.778 166.482 174.581 164.868 173.384 163.106C173.133 162.689 172.854 162.289 172.55 161.909C171.336 160.403 169.945 159.049 168.408 157.874C167.775 157.43 167.063 157 166.484 156.529C164.943 155.479 163.251 154.667 161.467 154.122C160.231 153.729 158.974 153.406 157.701 153.153C157.447 153.113 157.189 153.113 156.935 153.153C156.491 153.153 156.047 153.261 155.59 153.315C154.728 153.339 153.884 153.564 153.125 153.973C152.366 154.382 151.713 154.962 151.219 155.668C149.998 157.859 149.216 160.267 148.919 162.756C148.529 165.605 148.323 168.476 148.3 171.351C148.152 174.888 148.434 178.439 148.044 181.977C148.024 182.236 148.024 182.497 148.044 182.757C148.119 183.914 148.01 185.076 147.722 186.2C147.374 187.183 147.291 188.241 147.479 189.266C148.801 187.647 149.863 185.832 150.627 183.886C150.933 182.998 151.466 182.205 152.173 181.586C152.469 181.304 152.873 181.116 153.169 181.425C153.68 181.923 154.393 181.99 154.904 182.393C156.644 183.676 158.29 185.083 159.827 186.603C161.013 187.834 162.372 188.885 163.862 189.724C165.05 190.253 166.16 190.945 167.157 191.782C167.376 191.904 167.606 192.007 167.843 192.091V192.091ZM147.762 108.163L147.991 107.961C147.856 107.638 147.735 107.302 147.574 106.993C146.057 104.091 144.359 101.288 142.489 98.6C141.052 96.5033 139.456 94.5203 137.715 92.6685C135.381 90.0329 132.51 87.9278 129.295 86.495C128.681 86.1754 127.985 86.0469 127.297 86.126C126.609 86.2051 125.961 86.4882 125.435 86.9388C125.213 87.0714 124.997 87.215 124.789 87.3692C124.111 87.9059 123.493 88.5147 122.947 89.185C122.14 90.4358 121.521 91.875 120.822 93.1393C119.572 95.7372 118.546 98.437 117.755 101.209C116.961 103.63 116.141 106.051 115.589 108.513C114.527 113.22 113.653 117.928 112.711 122.702C112.695 122.899 112.695 123.097 112.711 123.294C113.047 122.823 113.276 122.528 113.478 122.232C114.312 120.994 115.146 119.743 115.993 118.506C117.445 116.328 119.078 114.276 120.875 112.373C121.521 111.7 121.938 111.673 122.53 112.373C123.121 113.072 123.377 113.503 123.875 114.054C124.265 114.671 124.715 115.248 125.22 115.776C126.309 116.684 127.449 117.528 128.636 118.304C129.384 118.8 130.187 119.207 131.03 119.515C131.94 119.723 132.787 120.142 133.505 120.739C133.586 120.819 133.774 120.739 133.989 120.833C134.1 120.512 134.19 120.184 134.258 119.851C134.393 119.111 134.473 118.371 134.594 117.632C135.132 114.511 135.724 111.391 136.222 108.217C136.459 106.841 137.173 105.594 138.239 104.693C138.66 104.255 139.214 103.968 139.814 103.876C140.414 103.784 141.028 103.891 141.561 104.182C142.241 104.565 142.901 104.983 143.539 105.433L147.036 107.867C147.267 107.991 147.51 108.09 147.762 108.163V108.163ZM110.68 130.033C110.68 130.436 110.68 130.719 110.68 131.014C110.68 132.359 110.788 133.704 110.68 135.049C110.586 137.054 110.357 139.084 110.209 141.062C110.095 142.813 110.095 144.569 110.209 146.321C110.438 149.858 110.452 153.409 110.452 156.96C110.452 160.282 110.304 163.604 110.277 166.939C110.277 168.083 110.438 169.239 110.452 170.396C110.452 173.274 110.452 176.153 110.532 179.031C110.613 182.434 110.801 185.756 110.936 189.226C110.936 189.522 111.016 189.899 110.936 190.1C110.559 190.638 110.747 191.163 110.747 191.714C110.747 192.75 110.747 193.786 110.747 194.821C110.747 195.857 110.895 196.61 110.963 197.511C111.084 199.045 111.205 200.564 111.312 202.098C111.42 203.631 111.501 204.922 111.528 206.334C111.554 207.747 111.393 209.388 111.447 210.907C111.447 212.885 111.729 214.862 111.85 216.825C111.958 218.547 112.012 220.255 112.092 221.977C112.092 222.192 112.187 222.421 112.2 222.636C112.496 225.608 113.424 228.5 113.209 231.526C113.189 231.714 113.189 231.903 113.209 232.091C113.411 233.53 113.612 234.97 113.841 236.395C114.07 237.821 114.325 239.341 114.608 240.807C114.675 241.157 114.809 241.641 115.065 241.762C115.9 242.22 116.811 242.521 117.755 242.649C117.775 242.327 117.775 242.004 117.755 241.681C117.567 240.578 117.338 239.475 117.177 238.372C116.934 236.637 116.733 234.889 116.504 233.154C116.275 231.419 115.993 229.63 115.818 227.854C115.616 225.85 115.509 223.819 115.347 221.829C115.347 221.681 115.347 221.533 115.347 221.385C114.945 219.334 114.742 217.248 114.742 215.158C114.762 214.858 114.762 214.557 114.742 214.257C114.54 212.629 114.191 211.002 114.15 209.361C114.11 207.72 114.15 206.039 114.15 204.371C114.15 203.766 114.15 203.174 114.15 202.568C113.895 200.121 113.518 197.686 113.357 195.225C113.182 192.239 113.128 189.253 113.101 186.267C113.101 184.64 112.94 182.999 113.101 181.358C113.182 180.295 112.94 179.206 112.94 178.13C112.94 174.498 112.94 170.867 112.94 167.235C112.94 165.003 112.725 162.77 112.671 160.51C112.671 157.524 112.671 154.539 112.577 151.553C112.577 151.243 112.577 150.813 112.335 150.665C112.026 150.424 111.779 150.113 111.615 149.757C111.451 149.402 111.375 149.012 111.393 148.621C111.408 148.4 111.371 148.179 111.285 147.975C111.079 147.617 110.954 147.219 110.916 146.808C110.879 146.397 110.932 145.983 111.07 145.594C111.312 144.343 111.608 143.106 111.864 141.869C111.968 141.473 112.027 141.067 112.039 140.658C112.039 137.215 111.918 133.785 111.837 130.342C111.819 130.233 111.783 130.129 111.729 130.033H110.68ZM131.299 157.188C130.909 158.009 130.627 158.695 130.277 159.327C129.908 160.377 129.458 161.398 128.932 162.38C128.655 162.673 128.419 163.004 128.232 163.362C127.591 164.875 127.083 166.441 126.713 168.042C126.205 170.477 125.833 172.937 125.596 175.413C125.502 177.081 125.179 178.749 125.018 180.416C124.709 183.913 124.44 187.41 124.157 190.907C124.17 191.055 124.17 191.204 124.157 191.351C123.721 193.275 123.517 195.243 123.552 197.215C123.566 198.187 123.633 199.157 123.754 200.121C123.875 201.6 124.036 203.08 124.13 204.573C124.13 205.568 124.211 206.563 124.13 207.558C124.13 208.15 123.969 208.729 123.969 209.307C123.969 210.168 124.144 211.029 124.144 211.876C124.116 214.718 124.332 217.557 124.789 220.363C124.951 221.425 125.179 222.488 125.26 223.564C125.395 225.393 125.421 227.222 125.502 229.038C125.502 229.199 125.502 229.334 125.502 229.495C125.704 231.15 125.973 232.818 126.094 234.485C126.215 236.153 126.228 238.13 126.309 239.959C126.317 241.321 126.494 242.676 126.834 243.994C127.773 244.296 128.752 244.459 129.739 244.479C129.618 242.784 129.618 241.13 129.362 239.529C128.869 236.81 128.524 234.067 128.327 231.311C128.327 230.464 128.165 229.603 128.058 228.756C127.923 227.639 127.762 226.536 127.627 225.433C127.493 224.331 127.412 223.281 127.304 222.205C127.252 221.876 127.221 221.544 127.21 221.21C127.246 218.436 127.044 215.664 126.605 212.925C126.576 212.631 126.474 212.349 126.309 212.105C125.354 210.671 124.883 208.97 124.964 207.249C124.955 206.909 125.029 206.572 125.179 206.267C125.606 205.439 125.783 204.504 125.69 203.577C125.641 203.376 125.657 203.164 125.737 202.973C125.817 202.782 125.956 202.621 126.134 202.515C126.524 202.286 126.497 201.909 126.511 201.533C126.511 197.269 126.659 193.019 126.726 188.755C126.726 187.895 126.726 187.034 126.726 186.173C126.652 185.139 126.652 184.1 126.726 183.066C127.049 180.968 127.506 178.896 127.937 176.812C128.259 175.171 128.636 173.543 128.959 171.889C129.134 171.015 129.187 170.127 129.349 169.199C129.551 168.096 129.86 167.02 130.008 165.917C130.246 164.101 130.735 162.327 131.46 160.645C131.783 159.865 132.039 159.058 132.321 158.278L131.299 157.188ZM113.599 147.773C113.975 147.585 114.204 147.491 114.419 147.37C115.929 146.441 117.698 146.026 119.463 146.186C120.243 146.28 121.023 146.28 121.803 146.388C122.316 146.439 122.815 146.576 123.283 146.791C125.522 148.066 127.646 149.533 129.631 151.176C131.922 152.804 133.876 154.859 135.388 157.229C135.665 157.745 135.908 158.28 136.114 158.829C136.327 159.665 136.658 160.467 137.096 161.21L137.392 158.183C137.473 157.514 137.316 156.838 136.948 156.274C136.523 155.527 136.146 154.754 135.818 153.96C135.334 152.951 134.877 151.929 134.366 150.934C133.855 149.939 133.021 148.836 132.59 147.719C131.267 144.629 129.53 141.733 127.425 139.111C126.976 138.442 126.328 137.931 125.573 137.649C124.818 137.366 123.994 137.328 123.216 137.538C121.857 137.797 120.591 138.409 119.544 139.313C119.073 139.744 118.67 140.228 118.199 140.658C117.096 141.815 116.033 143.025 114.863 144.128C114.395 144.598 114.038 145.167 113.819 145.793C113.6 146.42 113.525 147.087 113.599 147.746V147.773ZM128.394 206.63C128.475 207.787 128.569 209.038 128.69 210.289C128.731 210.471 128.814 210.641 128.932 210.786C129.193 211.204 129.586 211.523 130.05 211.691C130.513 211.859 131.019 211.867 131.487 211.714C132.832 211.472 134.177 211.109 135.63 210.854C137.89 210.423 140.095 210.343 141.925 212.131C142.032 212.239 142.247 212.212 142.489 212.266C142.583 211.814 142.555 211.346 142.408 210.909C142.262 210.472 142.002 210.082 141.656 209.778C141.377 209.526 141.161 209.213 141.023 208.863C140.671 208.019 140.101 207.283 139.37 206.733C138.64 206.182 137.776 205.836 136.867 205.729C134.03 205.05 131.046 205.359 128.407 206.603L128.394 206.63ZM147.116 218.856H147.358C147.466 218.689 147.56 218.514 147.641 218.332C148.083 216.863 148.18 215.312 147.923 213.799C147.711 211.411 147.261 209.05 146.578 206.751C146.221 205.413 145.624 204.151 144.816 203.026C144.452 202.461 143.974 201.977 143.414 201.604C142.854 201.232 142.224 200.978 141.561 200.86C140.416 200.686 139.25 200.686 138.105 200.86C137.292 200.95 136.484 201.08 135.684 201.25C134.594 201.519 133.518 201.842 132.456 202.178C132.226 202.302 132.018 202.461 131.837 202.649C133.171 202.912 134.518 203.105 135.872 203.228C136.531 203.308 137.217 203.523 137.836 203.658C138.745 203.778 139.645 203.967 140.526 204.223C141.925 204.67 143.139 205.563 143.982 206.765C144.818 207.865 145.41 209.13 145.717 210.477C146.265 212.602 146.62 214.772 146.78 216.96C146.833 217.593 146.95 218.22 147.13 218.83L147.116 218.856ZM116.746 138.802L116.975 139.004C117.142 138.946 117.304 138.874 117.459 138.789C118.306 138.251 119.154 137.713 119.988 137.161C121.559 136.224 123.318 135.645 125.139 135.466C125.98 135.278 126.853 135.278 127.694 135.466C129.04 135.837 130.212 136.671 131.003 137.82C131.887 139.205 132.687 140.643 133.397 142.124C134.043 143.469 134.487 144.895 135.065 146.28C136.288 148.841 137.265 151.511 137.984 154.256C138.234 155.006 138.573 155.724 138.992 156.395C139.063 155.494 138.999 154.587 138.804 153.705C138.401 151.849 137.957 150.006 137.459 148.163C137.104 146.524 136.623 144.914 136.02 143.348C135.112 141.261 134.037 139.25 132.805 137.336C132.197 136.249 131.296 135.355 130.205 134.756C129.113 134.157 127.875 133.876 126.632 133.947C125.811 133.947 124.978 133.947 124.171 134.054C122.895 134.028 121.634 134.334 120.512 134.942C119.662 135.599 118.853 136.309 118.091 137.067C117.615 137.61 117.171 138.181 116.76 138.775L116.746 138.802ZM122.664 83.0518C122.22 82.581 121.965 82.0834 121.615 82.0161C120.973 81.8337 120.293 81.8337 119.651 82.0161C118.25 82.492 117.082 83.4824 116.383 84.7868C115.468 86.7236 114.15 88.499 113.949 90.7452C113.897 91.2629 113.77 91.7703 113.572 92.2516C113.06 94.1212 112.727 96.0352 112.577 97.9678C112.577 98.062 112.577 98.1561 112.711 98.3175C112.793 98.2318 112.866 98.1371 112.926 98.0351C113.673 96.214 114.311 94.3502 114.836 92.4533C115.567 89.9041 116.466 87.4059 117.526 84.9751C118.239 83.1997 119.732 82.7559 121.561 83.7108L122.664 83.0518ZM141.494 147.692C141.4 148.58 141.884 148.621 142.409 148.634C143.273 148.561 144.136 148.784 144.857 149.266C145.475 149.75 146.027 150.302 146.605 150.813L149.067 152.925L150.196 151.929C149.224 150.697 148.093 149.598 146.834 148.661C145.22 147.249 143.404 147.491 141.494 147.666V147.692ZM118.212 86.3067L120.082 84.4909C118.992 84.464 118.629 84.8137 118.212 86.3067Z" fill="black"/>
<path d="M104.09 247.976C103 247.976 101.306 247.182 96.9343 244.707C96.9062 244.217 96.9378 243.724 97.0284 243.241C97.5278 240.821 97.7668 238.355 97.7413 235.884C97.8892 233.88 97.9565 231.849 98.1851 229.859C98.6131 226.369 98.8063 222.856 98.7635 219.341C98.7635 218.265 98.7635 217.189 98.8845 216.099C99.1401 212.226 99.5032 208.352 99.6915 204.478C99.8126 201.681 99.6915 198.87 99.6915 196.072C99.6306 195.478 99.5272 194.889 99.3822 194.31C99.1426 194.456 98.9134 194.617 98.6962 194.794C97.1564 196.196 95.3161 197.227 93.3162 197.807C91.9977 198.325 90.7432 198.993 89.5771 199.798C87.4392 201.31 85.4648 203.041 83.686 204.963C82.7768 205.996 82.008 207.144 81.3995 208.379C80.5018 209.967 79.7586 211.638 79.1803 213.369C78.6288 214.835 77.8353 216.234 77.2031 217.646C77.1381 217.852 77.0282 218.042 76.8814 218.2C76.7346 218.359 76.5545 218.484 76.3539 218.565C76.1534 218.646 75.9374 218.681 75.7214 218.669C75.5055 218.657 75.295 218.597 75.1049 218.493C74.9518 218.424 74.8144 218.325 74.7009 218.201C74.5874 218.077 74.5004 217.932 74.445 217.773C74.3897 217.615 74.3671 217.446 74.3789 217.279C74.3906 217.111 74.4362 216.948 74.5131 216.799C74.713 216.326 74.8487 215.828 74.9166 215.319C75.1049 213.046 75.2663 210.773 75.3874 208.487C75.3096 207.875 75.2647 207.26 75.2529 206.644C75.5056 205.019 75.8742 203.414 76.3558 201.842C76.8883 199.934 77.6468 198.096 78.6154 196.368C79.1534 195.494 79.4224 194.458 79.9604 193.557C80.9691 191.741 81.7761 189.831 82.8252 188.029C83.6963 186.515 84.9423 185.251 86.4433 184.357C87.3041 183.819 88.0573 183.147 88.8912 182.568C90.1286 181.721 91.3525 180.874 92.6303 180.107C93.8949 179.35 95.3798 179.046 96.8401 179.246C96.9863 179.279 97.1378 179.279 97.284 179.246C97.6834 179.154 98.0997 179.163 98.4945 179.274C98.8893 179.384 99.25 179.592 99.5436 179.878C99.6243 179.878 99.7588 179.878 99.9202 179.878C100.256 179.34 100.593 178.843 100.27 178.143C100.202 177.815 100.202 177.476 100.27 177.148L100.391 170.638C100.378 170.491 100.378 170.342 100.391 170.194C100.564 167.954 100.532 165.704 100.297 163.469C100.297 160.995 100.391 158.533 100.431 156.072C100.431 153.046 100.593 150.019 100.525 146.993C100.431 142.77 100.27 138.546 99.9605 134.337C99.7716 132.503 99.3699 130.697 98.7635 128.957C98.5063 128.373 98.1234 127.853 97.6421 127.435C97.1608 127.016 96.5931 126.709 95.9793 126.536C95.4413 126.307 94.8764 126.71 94.4998 127.141C93.2853 128.475 92.417 130.087 91.9712 131.835C91.9307 132.156 92.0071 132.48 92.1864 132.75C92.6034 133.409 93.1952 133.973 93.5314 134.659C94.741 136.682 95.6473 138.87 96.2214 141.156C96.477 142.662 96.9746 144.128 97.1629 145.635C97.4809 147.89 97.6516 150.163 97.674 152.44C97.7236 155.765 97.4078 159.084 96.7325 162.34C96.6561 162.626 96.6065 162.918 96.5846 163.214C96.5173 164.559 96.4635 165.904 96.4097 167.33C96.4037 167.516 96.3766 167.701 96.329 167.881C95.8986 169.226 95.4413 170.477 94.984 171.795C94.6478 172.857 94.4191 173.96 94.056 175.023C93.997 175.296 93.8825 175.553 93.7196 175.78C93.5567 176.006 93.3489 176.197 93.1091 176.339C92.8693 176.482 92.6028 176.573 92.326 176.608C92.0492 176.643 91.7682 176.621 91.5005 176.543C91.3044 176.486 91.0982 176.472 90.8962 176.502C90.6942 176.532 90.5011 176.606 90.3303 176.718C89.9441 177.015 89.4725 177.18 88.9853 177.188C88.4943 177.157 88.0158 177.021 87.582 176.789C87.1481 176.557 86.769 176.234 86.4702 175.843C84.9369 173.718 83.4036 171.607 81.9106 169.455C81.2919 168.567 80.7943 167.598 80.189 166.765C79.8518 166.281 79.4689 165.83 79.0458 165.42C78.9816 165.35 78.9036 165.294 78.8168 165.256C78.73 165.218 78.6362 165.199 78.5414 165.199C78.4466 165.199 78.3529 165.218 78.2661 165.256C78.1793 165.294 78.1013 165.35 78.037 165.42C77.7008 165.715 77.3914 166.052 77.0686 166.348C74.8628 168.365 72.6974 170.383 70.4243 172.346C68.9852 173.557 67.7343 174.902 66.3893 176.18C66.2217 176.336 66.0237 176.455 65.8077 176.531C65.5918 176.607 65.3625 176.638 65.1341 176.622C64.9057 176.605 64.6831 176.542 64.4803 176.436C64.2774 176.33 64.0986 176.183 63.9549 176.005L63.2958 175.252C63.0561 174.989 62.8709 174.681 62.7508 174.346C62.6308 174.012 62.5783 173.656 62.5964 173.301C62.6771 169.603 62.704 165.904 62.7982 162.205C62.7982 159.851 62.9596 157.498 63.0806 155.157C63.1479 153.718 62.9192 153.57 61.5742 154.095C59.6643 154.848 57.7275 155.52 55.8042 156.247C54.5533 156.704 53.3294 157.255 52.0516 157.592C51.3008 157.784 50.5198 157.83 49.7517 157.726C48.9447 157.632 48.8371 157.067 49.4154 156.462C49.4965 156.388 49.587 156.324 49.6844 156.274C49.7456 155.679 49.8718 155.092 50.061 154.525C52.2052 149.947 54.9855 145.695 58.3193 141.896C60.8029 139.246 63.5022 136.808 66.3893 134.606C68.6542 132.897 71.0668 131.394 73.5985 130.113C75.4671 129.224 77.4724 128.655 79.53 128.432C80.7405 128.23 81.9644 128.136 83.1749 128.002C84.453 127.899 85.7292 128.221 86.8064 128.916C86.9678 129.01 87.1158 129.118 87.2906 129.199C87.9228 129.495 88.1245 129.414 88.5011 128.862C88.8777 128.311 89.4964 127.396 90.0479 126.697C91.3041 125.261 92.7419 123.995 94.325 122.931C95.2543 122.373 96.3594 122.185 97.4209 122.404C98.4824 122.624 99.4226 123.234 100.055 124.115C101.21 126.162 102.143 128.326 102.839 130.571C103.393 132.351 103.78 134.179 103.996 136.031C104.12 136.728 104.291 137.415 104.507 138.089C104.507 138.385 104.695 138.668 104.735 138.95C105.112 142.286 105.542 145.675 105.838 148.97C106.009 150.907 106.058 152.852 105.986 154.794C105.946 156.625 106.094 158.455 106.43 160.255C106.778 162.623 106.917 165.017 106.847 167.41C106.847 169.078 106.928 170.759 106.968 172.44C106.968 174.566 107.062 176.691 107.116 178.802C107.116 179.475 107.197 180.147 107.116 180.82C107.116 181.936 107.116 183.053 107.116 184.169C107.116 187.114 107.116 190.06 107.425 193.006C107.708 195.799 107.762 198.61 107.587 201.412C107.331 204.452 107.358 207.532 107.304 210.598C107.304 212.656 107.304 214.714 107.304 216.772C107.304 218.292 107.304 219.825 107.304 221.345C107.183 223.362 106.914 225.38 106.739 227.37C106.739 228.002 106.739 228.635 106.739 229.267C106.739 230.154 106.632 231.042 106.578 231.957C106.47 233.678 106.376 235.387 106.255 237.108C106.272 237.408 106.217 237.708 106.094 237.982C105.523 239.2 105.185 240.514 105.098 241.856C104.762 243.578 104.547 245.326 104.278 247.061C104.224 247.357 104.143 247.68 104.09 247.976ZM87.6 171.66C87.8284 171.134 88.026 170.595 88.1918 170.046C88.848 167.297 89.3509 164.513 89.6982 161.707C90.1886 158.378 90.3642 155.009 90.2227 151.647C90.1736 148.954 89.7202 146.283 88.8777 143.725C88.5011 142.716 88.2994 141.64 87.9362 140.631C87.4946 139.004 86.7409 137.478 85.717 136.139C85.3203 135.763 85.0124 135.304 84.8158 134.794C84.7046 134.359 84.4864 133.959 84.181 133.63C83.8756 133.301 83.4927 133.054 83.0673 132.911C82.3626 132.565 81.6346 132.268 80.8884 132.023C80.022 131.739 79.1068 131.634 78.1984 131.714C76.823 132.002 75.4734 132.402 74.1634 132.911C72.3282 133.565 70.6145 134.519 69.0928 135.735C67.6746 136.999 66.1738 138.168 64.6005 139.232C62.1787 140.921 60.0094 142.945 58.1579 145.245C56.5637 147.157 55.0688 149.15 53.6791 151.216C52.9662 152.198 52.2534 153.194 51.5809 154.216C51.362 154.621 51.1775 155.044 51.0294 155.48C51.2661 155.51 51.5056 155.51 51.7423 155.48C53.2487 155.036 54.7551 154.606 56.2346 154.135C57.324 153.758 58.4 153.301 59.4491 152.79C60.7799 152.117 62.1834 151.598 63.6321 151.243C64.9771 150.988 65.5823 151.445 65.6899 152.857C65.7189 153.942 65.8087 155.024 65.9589 156.099C66.163 157.153 66.2531 158.226 66.2279 159.3C66.2279 161.169 66.3624 163.039 66.3893 164.895C66.3893 167.034 66.3893 169.159 66.3893 171.284C66.3893 171.607 66.3893 171.916 66.5104 172.494C67.0349 172.064 67.3846 171.822 67.6805 171.526C68.7431 170.531 69.7653 169.508 70.8413 168.527C72.6994 166.982 74.4644 165.33 76.1271 163.577C76.8261 162.902 77.5871 162.294 78.4002 161.761C79.0996 162.582 80.189 162.851 80.337 163.98C80.358 164.032 80.389 164.079 80.4282 164.118C80.4675 164.157 80.5142 164.188 80.5656 164.209C81.6333 164.78 82.5541 165.59 83.2556 166.576C84.4123 167.841 85.4211 169.266 86.4971 170.611C86.7795 170.853 87.1292 171.23 87.6 171.66ZM101.817 244.627C101.817 244.479 101.951 244.425 101.965 244.358C102.556 241.668 102.637 238.978 103.444 236.436C103.632 235.803 103.552 235.091 103.686 234.445C104.42 230.354 104.727 226.198 104.601 222.044C104.601 220.296 104.601 218.534 104.668 216.772C104.749 214.687 104.977 212.602 105.031 210.504C105.139 205.837 105.636 201.17 105.354 196.503C105.354 196.314 105.354 196.126 105.354 195.938C105.354 192.938 105.354 189.952 105.354 186.966C105.246 182.219 105.085 177.471 104.95 172.723C104.95 171.714 104.95 170.705 104.856 169.697C104.735 166.549 104.587 163.416 104.507 160.282C104.426 157.148 104.507 153.799 104.372 150.544C104.372 149.199 104.13 147.854 104.009 146.415C103.78 143.846 103.592 141.277 103.31 138.708C103.067 136.489 102.839 134.242 102.382 131.983C102.014 129.955 101.266 128.016 100.176 126.267C99.6596 125.531 99.044 124.87 98.3465 124.303C97.9508 124.026 97.4842 123.867 97.0015 123.846C95.7498 123.781 94.5227 124.211 93.5852 125.043C91.8643 126.535 90.5539 128.442 89.7789 130.584L90.5052 131.162C91.5543 129.629 92.4823 128.15 93.5449 126.764C93.8631 126.318 94.2876 125.959 94.7798 125.718C95.272 125.477 95.8166 125.363 96.3641 125.386C96.9115 125.408 97.4447 125.567 97.9154 125.848C98.386 126.128 98.7792 126.522 99.0594 126.993C99.5601 127.781 99.9324 128.644 100.162 129.548C100.96 132.343 101.491 135.208 101.749 138.103C101.817 139.959 102.099 141.815 102.139 143.671C102.274 144.837 102.274 146.015 102.139 147.181C102.073 147.924 102.073 148.671 102.139 149.414C102.139 151.687 101.965 153.974 101.924 156.247C101.924 157.255 102.072 158.251 102.086 159.259C102.086 162.286 102.18 165.312 102.086 168.338C101.989 171.102 102.061 173.869 102.301 176.623C102.369 176.879 102.369 177.148 102.301 177.404C102.078 178 102.013 178.644 102.113 179.273C102.113 179.677 102.113 180.08 102.113 180.497C101.893 181.752 102.052 183.045 102.57 184.209C102.822 184.713 102.938 185.274 102.906 185.837C102.906 186.792 102.677 187.76 102.556 188.715C102.46 189.074 102.428 189.448 102.462 189.818C102.732 191.145 102.805 192.505 102.677 193.853C102.677 196.099 102.677 198.332 102.677 200.578C102.677 201.587 102.677 202.595 102.677 203.604C102.677 204.613 102.677 205.77 102.677 206.846C102.677 207.289 102.812 207.733 102.772 208.191C102.624 209.791 102.355 211.392 102.274 212.992C102.153 215.521 102.166 218.076 102.072 220.605C102.072 222.138 101.924 223.672 101.763 225.191C101.669 226.066 101.359 226.926 101.265 227.881C100.942 230.827 100.633 233.759 100.418 236.705C100.256 239.045 100.23 241.385 100.135 243.739L101.817 244.627ZM85.0445 200.524C85.3 200.282 85.5556 200.026 85.838 199.798C86.8064 198.977 87.7345 198.103 88.7701 197.39C90.3763 196.362 92.0958 195.522 93.8946 194.889C94.4057 194.687 94.8899 194.391 95.4144 194.243C95.942 194.122 96.4389 193.894 96.874 193.572C97.3092 193.251 97.6731 192.842 97.943 192.373C98.6098 191.115 99.1983 189.817 99.705 188.486C99.8911 187.919 99.9642 187.32 99.9202 186.724C99.9202 186.012 99.4898 185.756 98.7769 185.864L97.7951 186.052C96.3641 186.15 95.0211 186.778 94.0291 187.814C93.5314 188.365 92.8724 188.769 92.3478 189.307C91.214 190.382 90.1536 191.533 89.1736 192.75C88.2187 194.095 87.5327 195.561 86.6854 196.973C86.4164 197.375 86.1198 197.757 85.7977 198.117C85.4915 198.43 85.2637 198.812 85.1328 199.23C85.0019 199.648 84.9716 200.092 85.0445 200.524ZM95.8045 182.73C95.4125 182.55 94.983 182.467 94.5523 182.488C94.1216 182.509 93.7023 182.634 93.3297 182.851C92.6303 183.174 91.9847 183.591 91.2449 183.886C89.6644 184.648 88.2586 185.729 87.1158 187.061C85.109 189.337 83.4584 191.903 82.22 194.673C80.9826 197.054 79.92 199.529 78.8575 201.99C78.4637 202.993 78.1577 204.028 77.9429 205.084C77.8769 205.372 77.8764 205.672 77.9416 205.96C78.0068 206.249 78.1359 206.519 78.3195 206.751C78.6614 206.185 78.9453 205.586 79.1668 204.963C79.3551 204.478 79.4896 203.967 79.6914 203.483C80.0411 202.663 80.4177 201.856 80.8212 201.049C81.3592 199.946 81.8837 198.829 82.5024 197.767C83.1211 196.704 83.7264 195.991 84.3316 195.077C84.4661 194.889 84.6006 194.714 84.7486 194.539C85.5556 193.557 86.3357 192.562 87.1696 191.607C88.0035 190.652 88.9584 189.603 89.8596 188.607L91.0028 187.41C91.8905 186.509 92.7782 185.595 93.6928 184.72C94.325 184.088 95.0244 183.47 95.8045 182.73Z" fill="black"/>
<path d="M5.46086 107.181C5.42347 102.618 5.87437 98.0638 6.80586 93.5966C7.18246 91.3235 7.81461 89.0774 8.33916 86.8716C8.6247 86.0053 8.70753 85.085 8.58126 84.1816C8.36661 83.136 8.53361 82.0481 9.05201 81.115C9.08053 81.0259 9.12697 80.9436 9.18848 80.8731C9.24998 80.8027 9.32525 80.7455 9.40965 80.7052C9.49405 80.6649 9.58581 80.6423 9.67927 80.6387C9.77274 80.6352 9.86594 80.6508 9.95316 80.6846C10.1549 80.7518 10.3298 81.115 10.3567 81.3571C10.4508 82.0968 10.5719 82.7021 11.4058 83.0383C11.6075 83.1056 11.7286 83.5225 11.7958 83.7915C12.0379 84.733 12.2397 85.688 12.4549 86.6295C13.1874 89.5988 13.6865 92.6208 13.9478 95.6679C14.0151 96.7708 14.4993 97.8468 14.6607 98.9497C15.3551 102.551 15.5273 106.234 15.1718 109.885C15.0689 111.673 14.6689 113.432 13.9882 115.09C13.7192 115.614 13.3829 116.125 13.1139 116.65C12.8694 117.024 12.5491 117.342 12.1738 117.584C11.7985 117.826 11.3765 117.986 10.9352 118.055C10.4939 118.123 10.0432 118.098 9.61219 117.981C9.18119 117.864 8.77955 117.658 8.43331 117.376C7.16835 116.204 6.33453 114.641 6.06611 112.938C5.80968 111.968 5.63866 110.978 5.55501 109.979C5.55501 109.051 5.55501 108.123 5.46086 107.181Z" fill="white"/>
<path d="M212.779 99.7701L213.895 100.658L213.761 100.752C213.909 101.182 214.084 101.613 214.232 102.097C214.322 102.338 214.394 102.585 214.447 102.837C214.866 105.113 215.145 107.413 215.281 109.723C215.451 112.924 215.761 116.121 216.209 119.313C216.686 122.298 216.754 125.334 216.411 128.338C216.348 130.58 215.921 132.797 215.146 134.902C214.756 135.749 214.366 136.596 213.99 137.457C213.761 137.887 213.431 138.253 213.027 138.525C212.624 138.797 212.16 138.966 211.676 139.017C211.171 139.054 210.665 138.947 210.218 138.709C209.771 138.471 209.4 138.112 209.148 137.672C208.472 136.384 207.996 135.001 207.735 133.57C207.274 130.801 207.188 127.983 207.48 125.191C207.727 120.676 208.444 116.2 209.618 111.835C210.005 110.123 210.517 108.441 211.152 106.804C211.527 105.961 211.658 105.029 211.528 104.114C211.32 103.345 211.326 102.533 211.546 101.767C211.767 101.001 212.193 100.311 212.779 99.7701Z" fill="white"/>
<path d="M193.451 115.749C193.788 116.959 194.084 117.955 194.326 118.95C194.837 121.048 195.388 123.146 195.792 125.271C196.028 126.604 196.163 127.953 196.195 129.306C196.303 132.104 196.343 134.902 196.41 137.713C196.41 139.649 196.518 141.586 196.532 143.523C196.507 144.347 196.435 145.169 196.316 145.984C196.224 146.914 196.085 147.839 195.899 148.755C195.615 150.778 194.703 152.66 193.29 154.135C192.982 154.462 192.605 154.716 192.186 154.879C191.767 155.042 191.317 155.109 190.869 155.077C190.512 155.094 190.158 154.998 189.858 154.803C189.559 154.607 189.329 154.322 189.201 153.987C188.963 153.484 188.675 153.006 188.34 152.561C187.728 151.4 187.374 150.12 187.305 148.809C187.044 146.879 186.985 144.927 187.13 142.985C187.372 139.865 187.412 136.717 187.722 133.57C187.962 131.533 188.344 129.515 188.865 127.531C189.309 125.715 189.928 123.94 190.479 122.151C190.509 121.93 190.578 121.716 190.681 121.519C191.709 119.822 192.547 118.018 193.182 116.139C193.209 116.085 193.277 116.085 193.451 115.749Z" fill="white"/>
<path d="M186.78 53.7173C187.341 54.6933 187.715 55.7652 187.883 56.8781C188.125 58.5728 188.435 60.2675 188.731 61.9487C188.811 62.3522 188.905 62.7557 188.986 63.1592C189.376 65.0557 189.753 66.9521 190.129 68.8486C190.237 69.4404 190.291 70.0322 190.385 70.624C190.385 70.9064 190.385 71.283 190.627 71.4444C191.062 71.967 191.283 72.635 191.246 73.314C191.528 76.0981 191.864 78.8823 192.026 81.6799C192.124 83.6168 192.088 85.5583 191.918 87.4903C191.796 88.3999 191.484 89.2735 191.002 90.0545C190.52 90.8354 189.879 91.5061 189.121 92.0229C188.718 92.2576 188.243 92.3378 187.785 92.2488C187.328 92.1597 186.918 91.9074 186.632 91.5387C185.472 89.7531 184.677 87.7555 184.292 85.6611C183.887 83.1163 183.676 80.5445 183.66 77.9677C183.66 76.2864 183.418 74.6052 183.499 72.9239C183.633 70.4357 183.942 67.9474 184.184 65.4592C184.265 64.4908 184.319 63.5224 184.44 62.554C184.628 61.209 184.87 59.864 185.086 58.519C185.207 57.7792 185.26 57.026 185.435 56.3132C185.627 55.6045 185.875 54.9119 186.175 54.2419C186.242 54.0132 186.498 53.9191 186.78 53.7173Z" fill="white"/>
<path d="M51.1371 86.495C51.452 86.6913 51.7412 86.9263 51.9979 87.1944C52.8507 88.3527 53.5178 89.6369 53.975 91.0007C54.7282 93.3814 55.5756 95.7351 56.2212 98.1427C56.7323 100.053 57.0551 102.016 57.3779 103.967C57.6603 105.702 57.8217 107.437 58.0773 109.172C58.1749 109.759 58.3142 110.339 58.4942 110.907C58.8427 112.327 58.9248 113.8 58.7363 115.251C58.646 116.823 58.1248 118.34 57.2299 119.636C57.0166 119.925 56.7731 120.191 56.5036 120.429C56.1644 120.663 55.8409 120.92 55.5352 121.196C55.1237 121.637 54.5969 121.954 54.0145 122.111C53.4321 122.268 52.8173 122.258 52.24 122.084C51.7181 121.987 51.2308 121.754 50.8271 121.41C50.4234 121.065 50.1175 120.62 49.94 120.12C49.6539 119.431 49.4376 118.714 49.2944 117.981C48.8882 115.966 48.6142 113.926 48.474 111.875C48.3798 109.051 48.474 106.199 48.6757 103.375C48.7968 101.546 49.133 99.7432 49.4289 97.9947C50.0877 94.7086 50.4924 91.3766 50.6394 88.0283C50.7357 87.4972 50.9031 86.9814 51.1371 86.495V86.495Z" fill="white"/>
<path d="M29.0387 106.926C29.3546 107.137 29.6516 107.376 29.9264 107.638C30.1289 107.861 30.2844 108.121 30.3837 108.405C31.0562 110.423 31.7287 112.44 32.3609 114.458C32.993 116.475 33.4906 118.788 33.9883 120.967C34.2438 122.084 34.3245 123.254 34.5397 124.384C34.7549 125.513 35.0508 126.482 35.2795 127.544C35.5081 128.607 35.6292 129.522 35.8175 130.503C35.877 131.099 35.9849 131.688 36.1403 132.265C36.7254 134.167 36.7254 136.201 36.1403 138.103C35.6687 139.699 34.6055 141.056 33.1678 141.896C32.7022 142.126 32.2028 142.28 31.6884 142.353C31.3925 142.434 31.0966 142.447 30.8007 142.501C30.4195 142.617 30.0179 142.651 29.6226 142.601C29.2273 142.55 28.8472 142.416 28.5076 142.208C28.168 141.999 27.8766 141.721 27.6528 141.391C27.429 141.061 27.2779 140.688 27.2095 140.295C26.8894 138.837 26.6692 137.358 26.5505 135.87C26.4294 134.377 26.416 132.884 26.4294 131.391C26.4294 130.423 26.5908 129.454 26.6581 128.486C26.8329 126.105 26.9674 123.725 27.1961 121.344C27.3709 119.461 27.6937 117.591 27.882 115.695C28.194 113.783 28.3514 111.849 28.3528 109.911C28.2346 108.867 28.4766 107.814 29.0387 106.926V106.926Z" fill="white"/>
<path d="M92.5765 54.5244C92.8052 51.5519 93.0204 49.1444 93.1683 46.6965C93.2894 44.531 93.3163 42.3656 93.4373 40.2001C93.5449 38.3037 93.7198 36.4072 93.8408 34.4973C93.837 33.4137 94.1605 32.3543 94.7689 31.4576C94.9028 31.1892 94.9806 30.8963 94.9975 30.5968C95.1589 29.7629 95.3069 28.9156 95.4683 28.0682C95.4832 27.8757 95.5656 27.6946 95.7009 27.5568C95.8362 27.419 96.0158 27.3334 96.208 27.315C96.6788 27.315 96.8402 27.6378 96.9747 27.9875C97.1031 28.2993 97.1978 28.6239 97.2571 28.9559C97.3207 29.7424 97.5897 30.4984 98.0372 31.1483C98.1868 31.3627 98.2751 31.6137 98.2928 31.8746C98.2928 34.8739 99.4898 37.6446 99.9875 40.5498C100.297 42.3118 100.539 44.0872 100.889 45.8491C101.238 47.6111 101.723 49.3999 102.018 51.2291C102.352 53.2191 102.572 55.2264 102.677 57.2413C102.809 58.8883 102.584 60.5444 102.018 62.0967C101.723 62.9843 101.221 63.7895 100.555 64.4463C99.889 65.1032 99.0769 65.5931 98.1852 65.8762C97.7596 66.014 97.3075 66.0493 96.8658 65.9792C96.424 65.909 96.0051 65.7355 95.6431 65.4727C94.8595 64.9074 94.2116 64.1748 93.7463 63.328C93.281 62.4811 93.0101 61.5414 92.9531 60.5769C92.7379 58.3845 92.6707 56.1787 92.5765 54.5244Z" fill="white"/>
<path d="M173.317 122.487C173.544 124.118 173.267 125.78 172.523 127.249C172.378 127.667 172.105 128.029 171.743 128.284C171.268 128.619 170.713 128.821 170.134 128.871C169.555 128.92 168.973 128.815 168.448 128.567C167.672 128.181 166.93 127.731 166.229 127.222C165.233 126.347 164.624 125.114 164.534 123.792C164.13 120.26 164.158 116.692 164.615 113.166C165.032 109.602 165.462 106.051 165.96 102.487C166.242 100.187 166.565 97.9006 166.847 95.6006C166.881 95.0048 166.881 94.4076 166.847 93.8118C166.847 93.4083 166.78 92.9914 166.847 92.5879C166.847 91.8347 167.318 91.3504 167.87 91.3235C168.421 91.2966 168.811 91.5791 168.986 92.3458C169.497 94.565 169.954 96.7977 170.439 99.0707C170.923 101.344 171.488 103.657 171.958 105.957C172.174 107.006 172.335 108.082 172.456 109.158C172.698 111.418 172.886 113.691 173.102 115.883C173.182 116.852 173.317 117.82 173.357 118.788C173.398 119.757 173.317 121.115 173.317 122.487Z" fill="white"/>
<path d="M156.72 54.4975C156.908 55.4793 157.015 56.4881 157.271 57.443C158.022 60.587 157.92 63.8743 156.975 66.9656C156.697 67.9347 156.309 68.8688 155.818 69.7498C155.382 70.4218 154.763 70.9557 154.034 71.2891C153.305 71.6226 152.497 71.7417 151.703 71.6328C151.211 71.5539 150.75 71.3399 150.372 71.0145C149.995 70.6891 149.715 70.2652 149.564 69.7901C148.64 66.6586 148.406 63.3638 148.878 60.133C149.161 57.5372 149.309 54.9279 149.524 52.3186C149.503 52.1353 149.503 51.9504 149.524 51.7671C150.613 47.9339 150.869 43.9661 151.676 40.0791C151.918 38.8686 152.093 37.6581 152.308 36.4476C152.316 36.295 152.362 36.1469 152.442 36.0172C152.644 35.7885 152.886 35.4388 153.142 35.3985C153.397 35.3581 153.72 35.7616 153.801 36.1517C154.245 38.3844 154.702 40.6036 155.146 42.8767C155.697 45.9567 156.195 49.0502 156.693 52.1572C156.814 52.9238 156.827 53.7174 156.881 54.4975H156.72Z" fill="white"/>
<path d="M126.766 33.8651C126.766 35.1429 126.766 36.4072 126.766 37.6849C126.819 39.522 126.292 41.3289 125.26 42.8497C124.934 43.2537 124.526 43.5829 124.061 43.815C123.597 44.0471 123.089 44.1766 122.57 44.1947C122.041 44.2212 121.518 44.0756 121.079 43.7797C120.641 43.4839 120.309 43.0538 120.136 42.5538C119.082 40.3968 118.535 38.0277 118.535 35.6271C118.535 32.9371 118.643 30.3143 118.912 27.6781C119.181 25.0419 119.705 22.6747 120.136 20.173C120.431 18.5187 120.795 16.8778 121.091 15.2369C121.171 14.793 121.091 14.3357 121.185 13.8919C121.373 12.7621 121.561 11.6188 121.83 10.5025C121.83 10.2469 122.314 9.84344 122.462 9.88379C122.629 9.93812 122.783 10.0274 122.913 10.1457C123.043 10.2639 123.146 10.4085 123.216 10.5697C123.465 11.5049 123.667 12.4521 123.821 13.4077C124.171 15.5462 124.48 17.6848 124.83 19.8233C124.951 20.6303 125.166 21.4239 125.314 22.2309C125.704 24.5039 126.161 26.777 126.444 29.0635C126.645 30.6506 126.605 32.2646 126.659 33.8651H126.766Z" fill="white"/>
<path d="M39.2473 73.193C39.0993 75.345 39.4894 77.5373 38.8034 79.649C38.6231 80.3305 38.3659 80.9892 38.0368 81.6127C37.5758 82.6019 36.9581 83.5103 36.2076 84.3027C35.8545 84.6904 35.403 84.9754 34.9011 85.1273C34.3992 85.2792 33.8655 85.2925 33.3566 85.1656C32.8478 85.0387 32.3828 84.7765 32.0109 84.4067C31.6391 84.0369 31.3742 83.5734 31.2445 83.0653C30.7358 81.4551 30.4729 79.7774 30.4644 78.0888C30.4388 75.0253 30.6773 71.9653 31.1773 68.9428C31.648 66.0107 32.334 63.092 33.0065 60.2003C33.5041 58.0617 34.1632 55.9635 34.6877 53.8384C34.7936 53.0987 34.8521 52.3529 34.8626 51.6057C34.9077 51.1447 35.0163 50.692 35.1854 50.2607C35.293 50.0052 35.6427 49.6824 35.8579 49.6958C36.0731 49.7093 36.3959 50.059 36.49 50.328C36.6675 50.8992 36.798 51.484 36.8801 52.0765C37.2163 54.2957 37.566 56.5015 37.8485 58.7208C38.0233 60.0658 38.0502 61.4108 38.1982 62.8499C38.283 63.6638 38.4359 64.4692 38.6555 65.2575C39.0095 66.9334 39.1853 68.6421 39.18 70.355C39.3011 71.31 39.2473 72.2515 39.2473 73.193Z" fill="white"/>
<path d="M79.382 64.0873C79.6541 64.508 79.8754 64.9595 80.0411 65.4323C80.2832 66.3738 80.4312 67.3287 80.606 68.2837C81.0499 70.745 81.5072 73.2064 81.951 75.6677C82.1931 77.1069 82.2872 78.5729 82.5966 79.9852C83.1137 83.103 83.4684 86.2456 83.6591 89.4002C83.8594 91.5932 83.631 93.8042 82.9866 95.91C82.8078 96.5432 82.499 97.1321 82.0798 97.6393C81.6606 98.1464 81.1404 98.5607 80.5522 98.8555C80.1817 99.0118 79.7842 99.0941 79.382 99.0976C78.8824 99.1599 78.3752 99.1165 77.8935 98.9701C77.4117 98.8237 76.9661 98.5777 76.5856 98.2479C76.2051 97.9181 75.8982 97.512 75.6849 97.056C75.4715 96.5999 75.3564 96.1041 75.3471 95.6006C75.3471 94.9012 75.3471 94.1749 75.3471 93.4755C75.2506 90.1899 75.3629 86.9015 75.6833 83.6301C76.0465 80.0255 76.3155 76.4075 76.9342 72.8701C77.3377 70.5298 77.6874 68.1626 77.9967 65.7954C78.0308 65.405 78.1809 65.0336 78.4278 64.7292C78.6747 64.4248 79.007 64.2012 79.382 64.0873V64.0873Z" fill="white"/>
<path d="M166.404 37.0932C166.404 36.1248 166.511 35.1564 166.578 34.188C166.753 31.767 166.901 29.346 167.103 26.925C167.197 25.6997 167.373 24.4821 167.628 23.28C167.957 21.9577 167.98 20.5776 167.695 19.245C167.421 17.6188 167.578 15.9491 168.152 14.403C168.218 14.1881 168.344 13.9967 168.515 13.8516C168.798 13.6229 169.067 13.7036 169.242 14.0399C169.278 14.1017 169.301 14.1704 169.309 14.2416C169.08 15.8287 170.022 16.9989 170.654 18.2766C170.767 18.4699 170.836 18.6858 170.856 18.9088C170.985 20.507 171.356 22.0763 171.958 23.5625C172.053 23.8853 172.106 24.2081 172.174 24.5443C172.184 24.8037 172.225 25.0609 172.295 25.311C173.227 27.5496 173.838 29.9087 174.11 32.3184C174.474 34.0266 174.864 35.7482 175.065 37.4832C175.2 38.6399 175.065 39.8504 175.065 41.034C175.083 42.4771 174.646 43.8891 173.815 45.069C173.033 46.2279 171.873 47.079 170.533 47.4766C170.24 47.5811 169.928 47.6205 169.618 47.592C169.308 47.5635 169.009 47.4678 168.74 47.3116C168.471 47.1554 168.239 46.9424 168.061 46.6875C167.883 46.4326 167.762 46.1419 167.708 45.8357C167.318 44.0065 167.022 42.1638 166.753 40.3212C166.605 39.299 166.578 38.2364 166.498 37.2008L166.404 37.0932Z" fill="white"/>
<path d="M59.355 21.4239C60.4445 21.4239 60.431 21.4239 60.7 22.3116C60.8052 22.6161 60.9499 22.9055 61.1304 23.1724C61.3894 23.5722 61.61 23.9955 61.7895 24.4367C62.4754 27.0056 63.1345 29.5611 63.7532 32.1435C64.2643 34.3224 64.735 36.5148 65.0982 38.734C65.5824 41.9351 66.0531 45.1631 66.2952 48.4046C66.5594 50.4836 66.3899 52.5948 65.7976 54.605C65.266 55.9702 64.2644 57.1007 62.9731 57.7927C62.8052 57.8648 62.6245 57.9021 62.4418 57.9021C62.2591 57.9021 62.0783 57.8648 61.9105 57.7927C61.1026 57.4854 60.3842 56.9812 59.8205 56.3259C59.2568 55.6706 58.8656 54.8849 58.6825 54.0401C58.2656 51.915 58.0638 49.763 57.7814 47.611C57.5258 44.8957 57.5258 42.1623 57.7814 39.4469C57.7814 38.2498 57.9428 37.0662 58.0235 35.8826C58.158 33.9727 58.2656 32.0763 58.4404 30.1664C58.5211 29.2114 58.7363 28.2565 58.8305 27.2881C58.9246 26.3197 58.8305 25.6472 58.9381 24.8267C59.0457 24.0063 59.0591 22.9034 59.1533 21.935C59.1802 21.7332 59.355 21.5718 59.355 21.4239Z" fill="white"/>
<path d="M3.6989 103.98C3.66148 99.4124 4.11237 94.8538 5.0439 90.3821C5.4205 88.109 6.05265 85.8763 6.5772 83.6571C6.86227 82.7906 6.94509 81.8704 6.8193 80.9671C6.65669 79.9585 6.84165 78.9246 7.34385 78.035C7.37208 77.9459 7.41855 77.8637 7.4803 77.7936C7.54205 77.7235 7.61773 77.6671 7.70251 77.6278C7.7873 77.5886 7.87932 77.5675 7.97272 77.5658C8.06612 77.5641 8.15885 77.5819 8.245 77.618C8.35998 77.6909 8.45633 77.7897 8.52639 77.9065C8.59644 78.0232 8.63825 78.1547 8.6485 78.2905C8.74265 79.0168 8.8637 79.6355 9.6976 79.9583C9.89935 79.9583 10.0204 80.4425 10.0876 80.725C10.3297 81.6665 10.5315 82.6079 10.7467 83.5494C11.4792 86.5233 11.9784 89.5498 12.2396 92.6013C12.3069 93.7042 12.7911 94.7668 12.9525 95.8697C13.6158 99.4299 13.7698 103.066 13.4098 106.67C13.329 108.465 12.9471 110.234 12.28 111.902C12.011 112.44 11.6747 112.938 11.4057 113.462C11.1623 113.837 10.8429 114.156 10.4681 114.4C10.0933 114.643 9.67153 114.805 9.23018 114.874C8.78882 114.944 8.33773 114.92 7.90618 114.805C7.47463 114.689 7.07225 114.483 6.72515 114.202C5.46173 113.023 4.62851 111.456 4.35795 109.75C4.11839 108.77 3.96537 107.771 3.90065 106.764C3.7527 105.836 3.73925 104.895 3.6989 103.98ZM8.245 112.05C8.49664 111.622 8.70825 111.172 8.87715 110.705C9.22344 109.656 9.46229 108.574 9.59 107.477C9.69986 105.088 9.66842 102.694 9.49585 100.308C9.14615 96.448 8.5947 92.6013 8.15085 88.7412C8.08667 88.3678 7.99679 87.9993 7.88185 87.6383H7.5725C7.27999 88.3879 7.05493 89.1621 6.9 89.9517C6.40917 93.2032 6.12615 96.4826 6.05265 99.7702C6.1468 102.084 6.21405 104.397 6.3082 106.71C6.51219 108.219 6.96678 109.683 7.6532 111.041C7.81322 111.398 8.01166 111.736 8.245 112.05V112.05Z" fill="black"/>
<path d="M211.017 96.5556L212.134 97.4433L211.999 97.524C212.147 97.9678 212.322 98.3982 212.47 98.869C212.56 99.1144 212.632 99.3661 212.685 99.6222C213.104 101.894 213.383 104.189 213.519 106.495C213.689 109.714 213.999 112.911 214.447 116.085C214.924 119.075 214.992 122.115 214.649 125.123C214.585 127.365 214.158 129.582 213.384 131.687C212.994 132.521 212.604 133.382 212.228 134.229C212.002 134.662 211.672 135.032 211.269 135.307C210.865 135.581 210.4 135.752 209.914 135.803C209.41 135.832 208.908 135.721 208.462 135.484C208.016 135.247 207.644 134.892 207.386 134.458C206.715 133.191 206.239 131.831 205.973 130.423C205.512 127.658 205.426 124.844 205.718 122.057C205.965 117.538 206.682 113.058 207.856 108.687C208.247 106.976 208.759 105.295 209.39 103.657C209.767 102.814 209.898 101.881 209.766 100.967C209.541 100.188 209.539 99.3622 209.76 98.5823C209.981 97.8024 210.417 97.1002 211.017 96.5556V96.5556ZM209.349 132.871C210.029 132.216 210.497 131.373 210.694 130.45C211.213 128.457 211.453 126.402 211.407 124.343C211.407 121.398 211.286 118.439 211.098 115.507C210.937 112.897 210.587 110.301 210.304 107.706C210.244 107.445 210.154 107.192 210.035 106.952C209.874 107.356 209.766 107.544 209.713 107.746C209.524 108.499 209.336 109.266 209.161 110.032C207.484 116.29 207.072 122.82 207.951 129.239C207.996 130.589 208.488 131.885 209.349 132.924V132.871Z" fill="black"/>
<path d="M191.69 112.534C192.026 113.745 192.322 114.727 192.564 115.735C193.075 117.834 193.626 119.932 194.03 122.057C194.267 123.39 194.402 124.739 194.433 126.092C194.541 128.889 194.581 131.7 194.649 134.498C194.649 136.435 194.756 138.385 194.77 140.322C194.745 141.141 194.673 141.959 194.554 142.77C194.464 143.7 194.324 144.625 194.137 145.541C193.848 147.562 192.936 149.442 191.528 150.921C191.218 151.244 190.84 151.495 190.422 151.656C190.003 151.816 189.554 151.882 189.107 151.849C188.751 151.869 188.397 151.776 188.098 151.583C187.798 151.389 187.567 151.106 187.439 150.773C187.202 150.265 186.913 149.783 186.579 149.333C185.962 148.174 185.609 146.892 185.543 145.581C185.285 143.691 185.222 141.78 185.355 139.878C185.597 136.744 185.637 133.597 185.946 130.463C186.187 128.422 186.569 126.399 187.09 124.411C187.534 122.595 188.152 120.833 188.704 119.031C188.734 118.806 188.802 118.587 188.905 118.385C189.934 116.689 190.773 114.885 191.407 113.005C191.49 112.842 191.584 112.684 191.69 112.534ZM190.519 119.932H190.224C190.081 120.225 189.955 120.526 189.847 120.833C189.309 122.743 188.771 124.639 188.287 126.549C187.778 128.658 187.543 130.823 187.587 132.992C187.587 135.345 187.507 137.686 187.453 140.039C187.265 142.574 187.492 145.123 188.125 147.585C188.184 147.84 188.289 148.081 188.435 148.298C188.731 148.647 189.08 149.199 189.43 149.226C190.035 149.226 190.156 148.567 190.358 148.109C191.187 146.021 191.612 143.793 191.609 141.546C191.609 139.058 191.609 136.556 191.609 134.054C191.609 131.553 191.367 129.145 191.205 126.684C191.084 124.787 190.896 122.891 190.735 120.994C190.654 120.645 190.573 120.295 190.519 119.932V119.932Z" fill="black"/>
<path d="M185.018 50.4893C185.581 51.4692 185.955 52.5458 186.121 53.6635C186.363 55.3582 186.673 57.0395 186.969 58.7207C187.049 59.1377 187.143 59.5277 187.224 59.9312C187.614 61.8277 187.991 63.7242 188.367 65.6341C188.475 66.2124 188.529 66.8176 188.623 67.396C188.623 67.6919 188.623 68.055 188.865 68.2299C189.297 68.749 189.518 69.4116 189.484 70.086C189.766 72.8836 190.102 75.6677 190.264 78.4519C190.363 80.3888 190.327 82.3303 190.156 84.2623C190.033 85.1733 189.72 86.0483 189.238 86.8313C188.757 87.6142 188.116 88.2877 187.359 88.8084C186.953 89.0387 186.479 89.1152 186.022 89.0238C185.565 88.9324 185.156 88.6792 184.87 88.3107C183.713 86.5332 182.918 84.5451 182.53 82.46C182.125 79.9152 181.914 77.3434 181.898 74.7666C181.898 73.0853 181.656 71.4041 181.737 69.7363C181.871 67.2346 182.18 64.7463 182.423 62.2581C182.503 61.2897 182.557 60.3213 182.678 59.3664C182.866 58.0214 183.108 56.6764 183.324 55.3314C183.445 54.5916 183.498 53.8384 183.673 53.1121C183.87 52.4048 184.117 51.7125 184.413 51.0408C184.44 50.7987 184.736 50.7045 185.018 50.4893ZM186.014 86.0646C186.277 85.8416 186.489 85.5634 186.633 85.2496C186.777 84.9358 186.85 84.5941 186.848 84.2489C187.002 82.7251 187.069 81.1938 187.049 79.6624C187.049 77.9408 186.686 76.2461 186.579 74.5245C186.363 70.4219 185.774 66.3475 184.817 62.3522C184.749 62.0832 184.642 61.8277 184.561 61.5587C184.062 62.6664 183.885 63.8923 184.05 65.096C184.084 65.3775 184.084 65.6619 184.05 65.9434C183.917 66.5602 183.823 67.1845 183.768 67.8129C183.768 69.7497 183.875 71.7 183.915 73.6368C183.863 77.1888 184.316 80.7302 185.26 84.1547C185.449 84.7465 185.785 85.3114 186.014 86.0646V86.0646Z" fill="black"/>
<path d="M49.3751 83.2267C49.6929 83.4191 49.9825 83.6544 50.2359 83.926C51.1019 85.1174 51.7738 86.4384 52.2265 87.84C52.9797 90.2341 53.827 92.5879 54.4726 94.9954C54.9837 96.9053 55.3065 98.8556 55.6293 100.819C55.9118 102.541 56.0732 104.289 56.3287 106.024C56.4294 106.611 56.5687 107.191 56.7457 107.759C57.0878 109.163 57.1699 110.617 56.9878 112.05C56.8954 113.622 56.3745 115.138 55.4814 116.435C55.2645 116.721 55.0214 116.987 54.7551 117.228C54.4126 117.458 54.0888 117.714 53.7867 117.995C53.3747 118.435 52.8472 118.75 52.2645 118.905C51.6818 119.059 51.0674 119.047 50.4914 118.869C49.973 118.773 49.4889 118.542 49.0877 118.199C48.6864 117.857 48.382 117.416 48.2049 116.919C47.9143 116.217 47.6979 115.487 47.5593 114.74C47.1523 112.729 46.8782 110.694 46.7389 108.647C46.6447 105.809 46.7389 102.971 46.9406 100.133C47.0617 98.3176 47.3979 96.5153 47.6938 94.7533C48.3526 91.4626 48.7573 88.1262 48.9043 84.7734C48.9882 84.2384 49.1467 83.7177 49.3751 83.2267ZM50.1148 91.875H49.8324C49.7429 92.07 49.6708 92.2725 49.6172 92.4802C49.4154 93.8252 49.1868 95.1702 49.0254 96.5152C48.5704 100.407 48.4579 104.332 48.6891 108.244C48.7366 109.696 48.9625 111.137 49.3616 112.534C49.4961 112.965 49.5365 113.422 49.6575 113.879C49.7786 114.337 50.0207 115.09 50.209 115.695C50.2439 115.92 50.3528 116.126 50.5185 116.282C50.6842 116.438 50.8971 116.535 51.1236 116.556C51.3458 116.571 51.5675 116.519 51.7596 116.406C51.9517 116.294 52.1051 116.125 52.1996 115.924C52.883 114.801 53.2458 113.512 53.2487 112.198C53.2842 109.473 53.0771 106.749 52.63 104.061C52.213 100.765 51.5271 97.5106 50.8949 94.2422C50.687 93.4369 50.4264 92.6461 50.1148 91.875V91.875Z" fill="black"/>
<path d="M27.2768 103.711C27.5926 103.923 27.8896 104.161 28.1645 104.424C28.3698 104.644 28.5257 104.905 28.6218 105.19C29.2943 107.195 29.9668 109.225 30.5989 111.23C31.2311 113.234 31.7287 115.56 32.2264 117.739C32.4819 118.869 32.5626 120.026 32.7778 121.156C32.993 122.285 33.2889 123.267 33.5176 124.316C33.7462 125.366 33.8673 126.294 34.0556 127.289C34.1163 127.879 34.2242 128.464 34.3784 129.037C34.9634 130.939 34.9634 132.973 34.3784 134.875C33.9037 136.473 32.8418 137.833 31.4059 138.681C30.9379 138.905 30.4394 139.06 29.9264 139.138C29.6305 139.138 29.3346 139.219 29.0387 139.273C28.663 139.385 28.2678 139.417 27.8789 139.367C27.4899 139.317 27.1159 139.185 26.7811 138.981C26.4463 138.777 26.1581 138.504 25.9353 138.182C25.7125 137.859 25.5601 137.493 25.4879 137.107C25.1668 135.645 24.9466 134.162 24.8289 132.669C24.7078 131.189 24.6944 129.683 24.7078 128.19C24.7078 127.222 24.8692 126.267 24.9365 125.298C25.1113 122.918 25.2458 120.537 25.4745 118.156C25.6493 116.26 25.9721 114.39 26.1604 112.507C26.4607 110.576 26.6046 108.624 26.5908 106.67C26.4745 105.634 26.7166 104.59 27.2768 103.711ZM27.8686 114.041H27.613C27.1963 114.872 27.0238 115.805 27.1154 116.731C26.9674 119.676 26.8598 122.635 26.685 125.581C26.5119 128.234 26.6156 130.898 26.9943 133.53C27.1599 134.409 27.3846 135.276 27.6668 136.126C27.7041 136.369 27.8252 136.593 28.0093 136.757C28.1933 136.922 28.4289 137.017 28.6756 137.027C28.9198 137.016 29.1566 136.939 29.3604 136.804C29.5642 136.669 29.7274 136.481 29.8323 136.26C30.6253 134.979 31.0143 133.488 30.9486 131.983C30.8679 130.867 30.7603 129.75 30.6124 128.634C30.4644 127.518 30.1954 126.28 29.9937 125.11C29.6574 123.16 29.375 121.196 29.0118 119.259C28.7697 118.022 28.4066 116.798 28.1241 115.56C28.0165 115.049 27.9627 114.538 27.8686 114.041V114.041Z" fill="black"/>
<path d="M90.8146 51.3098C91.0432 48.3239 91.2584 45.9298 91.4064 43.4819C91.5274 41.3164 91.5543 39.151 91.6754 36.9855C91.783 35.0756 91.9578 33.1792 92.0654 31.2827C92.0758 30.1951 92.403 29.1342 93.0069 28.2296C93.1409 27.966 93.2188 27.6775 93.2356 27.3822C93.397 26.5349 93.5449 25.6875 93.7063 24.8536C93.7243 24.6635 93.808 24.4856 93.943 24.3506C94.078 24.2155 94.2559 24.1318 94.4461 24.1139C94.9168 24.1139 95.0782 24.4367 95.2127 24.7864C95.3377 25.0994 95.4323 25.4237 95.4952 25.7548C95.5543 26.5422 95.8237 27.2993 96.2753 27.9471C96.4272 28.1654 96.5156 28.4214 96.5308 28.6869C96.5308 31.6728 97.7279 34.4569 98.2255 37.3487C98.5349 39.1241 98.777 40.8995 99.1267 42.6614C99.4764 44.4234 99.9606 46.2122 100.256 48.0414C100.59 50.0313 100.81 52.0386 100.916 54.0536C101.047 55.7006 100.822 57.3567 100.256 58.909C99.962 59.7958 99.4608 60.5997 98.7943 61.2546C98.1277 61.9094 97.315 62.3963 96.4232 62.675C95.9986 62.8196 95.5452 62.8584 95.1022 62.7881C94.6592 62.7178 94.2401 62.5405 93.8812 62.2715C93.0972 61.7097 92.4488 60.9797 91.9834 60.135C91.5179 59.2902 91.2473 58.3521 91.1912 57.3892C90.976 55.1699 90.9087 52.9641 90.8146 51.3098ZM95.1186 60.523C95.7642 60.0792 96.4636 59.8371 96.8133 59.326C97.3809 58.4469 97.7355 57.4475 97.8489 56.4073C97.934 54.2795 97.8576 52.1483 97.6203 50.032C97.2168 46.4274 96.6384 42.8497 96.1139 39.272C96.048 38.4133 95.867 37.5674 95.5759 36.7569C95.0917 35.663 94.8005 34.4935 94.7151 33.3002C94.6523 32.9647 94.5577 32.636 94.4326 32.3184C93.7384 33.4999 93.3803 34.8486 93.397 36.2189C93.397 38.9089 93.397 41.5989 93.1683 44.2889C92.9179 47.5285 92.8551 50.7798 92.98 54.0267C93.0368 55.0725 93.1808 56.1118 93.4104 57.1336C93.68 58.3911 94.2682 59.5583 95.1186 60.523Z" fill="black"/>
<path d="M171.555 119.259C171.785 120.894 171.508 122.561 170.761 124.034C170.62 124.451 170.346 124.81 169.981 125.056C169.507 125.393 168.952 125.597 168.372 125.647C167.793 125.697 167.21 125.59 166.686 125.339C165.91 124.984 165.167 124.561 164.467 124.074C163.47 123.195 162.861 121.957 162.772 120.631C162.369 117.104 162.396 113.54 162.853 110.019C163.274 106.432 163.723 102.868 164.198 99.3263C164.48 97.0398 164.803 94.7398 165.085 92.4399C165.119 91.8486 165.119 91.2558 165.085 90.6645C165.085 90.2475 165.018 89.8306 165.085 89.4271C165.085 88.6739 165.556 88.1897 166.108 88.1763C166.659 88.1628 167.049 88.4184 167.224 89.1985C167.735 91.4177 168.192 93.6504 168.677 95.9235C169.161 98.1965 169.726 100.51 170.196 102.81C170.412 103.872 170.573 104.948 170.694 106.024C170.936 108.284 171.125 110.544 171.34 112.749C171.42 113.718 171.555 114.673 171.595 115.641C171.636 116.61 171.555 117.887 171.555 119.259ZM166.404 98.0485H166.121C165.948 98.4821 165.822 98.933 165.745 99.3935C165.623 100.739 165.543 102.003 165.476 103.307C165.408 104.612 165.476 105.997 165.354 107.342C164.797 111.303 164.675 115.313 164.991 119.3C165.128 120.724 165.79 122.047 166.847 123.012C166.925 123.121 167.032 123.205 167.156 123.256C167.279 123.307 167.415 123.322 167.547 123.3C167.679 123.277 167.802 123.218 167.902 123.129C168.001 123.04 168.074 122.925 168.112 122.797C168.35 122.415 168.51 121.99 168.582 121.546C168.799 119.693 168.916 117.829 168.932 115.964C168.932 113.543 168.623 111.122 168.408 108.714C168.287 107.369 168.098 106.119 167.87 104.827C167.56 103.106 167.197 101.384 166.834 99.676C166.726 99.0842 166.552 98.6 166.404 98.0485V98.0485Z" fill="black"/>
<path d="M154.958 51.2829C155.146 52.2647 155.254 53.26 155.509 54.2284C156.26 57.3724 156.158 60.6598 155.213 63.751C154.932 64.7149 154.544 65.6442 154.056 66.5218C153.62 67.1951 153.002 67.7308 152.273 68.0665C151.545 68.4022 150.736 68.5242 149.941 68.4182C149.447 68.3382 148.985 68.1222 148.607 67.7943C148.23 67.4664 147.951 67.0397 147.802 66.5621C146.877 63.4353 146.643 60.1447 147.116 56.9184C147.399 54.3091 147.547 51.6998 147.762 49.0905C147.742 48.9073 147.742 48.7224 147.762 48.5391C148.851 44.7193 149.107 40.7515 149.914 36.8645C150.156 35.654 150.331 34.4435 150.546 33.233C150.552 33.0801 150.598 32.9316 150.681 32.8026C150.882 32.5605 151.124 32.2108 151.38 32.1839C151.635 32.157 151.958 32.5471 152.039 32.9237C152.483 35.1564 152.94 37.389 153.384 39.6486C153.935 42.7421 154.433 45.8357 154.931 48.9292C155.052 49.7092 155.065 50.4894 155.119 51.2695L154.958 51.2829ZM150.398 65.8358H150.815C151.111 65.4188 151.434 65.0153 151.689 64.5849C152.665 62.7152 153.089 60.607 152.913 58.5055C152.864 54.5818 152.572 50.6648 152.039 46.7772C151.864 45.5532 151.757 44.3293 151.595 43.1053C151.522 42.7681 151.427 42.4357 151.313 42.11H151.017C150.936 42.4463 150.815 42.7825 150.761 43.1188C150.6 44.1141 150.452 45.1228 150.29 46.1181C150.075 47.4631 149.752 48.9157 149.618 50.3145C149.376 52.6951 149.214 55.0893 149.08 57.4834C148.853 59.7483 149.087 62.0358 149.766 64.2083C149.887 64.7867 150.156 65.3112 150.398 65.8358V65.8358Z" fill="black"/>
<path d="M125.004 30.6506C125.004 31.9149 125.004 33.1927 125.004 34.457C125.043 36.3043 124.497 38.1166 123.444 39.6352C123.115 40.0347 122.705 40.3607 122.242 40.5923C121.778 40.824 121.272 40.9561 120.754 40.9802C120.236 41.0102 119.721 40.8755 119.284 40.5953C118.847 40.315 118.509 39.9036 118.32 39.42C117.289 37.2486 116.769 34.8699 116.8 32.4663C116.8 29.7763 116.908 27.0863 117.177 24.5308C117.446 21.9753 117.97 19.514 118.401 17.0123C118.696 15.3714 119.06 13.7305 119.355 12.0761C119.436 11.6457 119.355 11.175 119.45 10.7311C119.638 9.5879 119.826 8.44465 120.095 7.3283C120.095 7.07275 120.579 6.66925 120.727 6.72305C120.897 6.77231 121.053 6.85974 121.184 6.97864C121.314 7.09754 121.416 7.24475 121.481 7.409C121.731 8.33933 121.933 9.28211 122.086 10.2335C122.436 12.372 122.745 14.524 123.095 16.6491C123.216 17.4696 123.431 18.2632 123.579 19.0702C123.969 21.3432 124.426 23.6028 124.709 25.8893C124.91 27.4764 124.87 29.1038 124.924 30.7044L125.004 30.6506ZM120.566 17.2006H120.337C120.258 17.4391 120.19 17.6815 120.136 17.9269C119.907 19.2719 119.678 20.7245 119.463 22.1233C118.785 25.7659 118.689 29.4932 119.181 33.1657C119.299 34.7429 119.853 36.2562 120.781 37.537C121.047 37.3396 121.268 37.0873 121.428 36.7972C121.588 36.5072 121.684 36.1861 121.709 35.8557C121.854 34.858 121.926 33.8511 121.924 32.843C121.83 29.6284 121.723 26.4273 121.507 23.2262C121.386 21.4777 121.037 19.7426 120.781 18.0076C120.727 17.7251 120.633 17.4561 120.566 17.1737V17.2006Z" fill="black"/>
<path d="M37.4853 69.9649C37.3374 72.1169 37.7274 74.3227 37.0414 76.4344C36.8581 77.1235 36.6011 77.7909 36.2748 78.425C35.8138 79.4142 35.1961 80.3226 34.4456 81.115C34.0916 81.5027 33.6392 81.7872 33.1364 81.9384C32.6336 82.0895 32.0992 82.1015 31.5901 81.9732C31.0811 81.8449 30.6163 81.581 30.2451 81.2097C29.874 80.8383 29.6105 80.3733 29.4826 79.8641C28.974 78.2585 28.711 76.5853 28.7024 74.9011C28.6769 71.8331 28.9154 68.7687 29.4153 65.7416C29.8861 62.8095 30.572 59.9043 31.2445 56.9991C31.7421 54.874 32.4012 52.7758 32.9257 50.6373C33.0318 49.9021 33.0902 49.1608 33.1006 48.418C33.1444 47.9567 33.253 47.5039 33.4234 47.073C33.531 46.8175 33.8807 46.4812 34.0959 46.4947C34.3111 46.5081 34.6339 46.8713 34.728 47.1403C34.9132 47.6928 35.0527 48.2596 35.145 48.835C35.4812 51.0408 35.831 53.2466 36.1134 55.4658C36.2883 56.8108 36.3151 58.1558 36.4631 59.595C36.5466 60.4135 36.6996 61.2234 36.9204 62.016C37.2934 63.6944 37.4873 65.4077 37.4987 67.127C37.5391 68.0954 37.4853 69.01 37.4853 69.9649ZM33.5982 56.1921H33.2216C33.0254 56.702 32.8592 57.223 32.724 57.7523C32.4416 59.0301 32.186 60.3213 31.9708 61.599C31.5807 63.9931 31.1503 66.3872 30.9082 68.7948C30.7267 70.7259 30.6727 72.6669 30.7468 74.6052C30.7754 75.8757 30.9468 77.139 31.258 78.3712C31.5808 79.6355 32.2532 79.7162 33.1409 78.7612C33.3521 78.5511 33.517 78.2991 33.6251 78.0215C33.9855 77.0827 34.225 76.102 34.338 75.1028C34.4322 71.9824 34.338 68.8351 34.338 65.6878C34.338 65.096 34.1631 64.5177 34.1362 63.9124C34.0017 61.6797 33.8941 59.447 33.7731 57.1874C33.8 56.905 33.652 56.5418 33.5982 56.1921Z" fill="black"/>
<path d="M77.6201 60.94C77.8949 61.3592 78.1163 61.811 78.2792 62.285C78.5213 63.2131 78.6692 64.1815 78.8441 65.1364C79.2879 67.5978 79.7452 70.0457 80.1891 72.5205C80.4312 73.9596 80.5253 75.4257 80.8347 76.8379C81.3525 79.9556 81.7072 83.0982 81.8972 86.2529C82.1168 88.4566 81.9021 90.682 81.2651 92.8031C81.0841 93.437 80.7746 94.0268 80.3558 94.5359C79.9369 95.045 79.4178 95.4624 78.8306 95.7621C78.4592 95.9138 78.0617 95.9914 77.6605 95.9907C77.1616 96.0551 76.6547 96.0135 76.1729 95.8688C75.6912 95.724 75.2454 95.4792 74.8646 95.1505C74.4838 94.8218 74.1766 94.4165 73.9631 93.961C73.7496 93.5055 73.6346 93.0101 73.6255 92.5072C73.6255 91.7943 73.6255 91.0815 73.6255 90.3686C73.5294 87.083 73.6417 83.7946 73.9617 80.5232C74.3249 76.9186 74.5939 73.314 75.2126 69.7632C75.6161 67.4139 75.9702 65.0557 76.2751 62.6885C76.2966 62.2953 76.4366 61.9179 76.6766 61.6058C76.9167 61.2937 77.2456 61.0616 77.6201 60.94V60.94ZM77.2032 71.3638H76.84C76.7324 72.0363 76.5845 72.7088 76.5172 73.3947C76.3693 74.7397 76.2617 76.0847 76.1541 77.4297C75.9792 79.7431 75.7371 82.0431 75.643 84.3565C75.5488 86.6699 75.643 88.6874 75.643 90.8528C75.656 91.4151 75.7511 91.9724 75.9254 92.5072C76.065 92.8881 76.3128 93.2199 76.6383 93.4621C77.2301 93.9194 77.8084 93.6908 78.1581 93.0183C78.5451 92.1688 78.7817 91.2586 78.8575 90.3283C79.187 88.0671 79.187 85.7702 78.8575 83.5091C78.4271 80.1063 78.0371 76.69 77.6067 73.2871C77.526 72.5743 77.3377 71.9421 77.2032 71.2965V71.3638Z" fill="black"/>
<path d="M164.642 33.8652C164.709 32.8968 164.749 31.9283 164.816 30.9599C164.991 28.5389 165.139 26.1179 165.341 23.7104C165.435 22.4807 165.61 21.2585 165.866 20.052C166.204 18.708 166.227 17.3041 165.933 15.9497C165.659 14.3236 165.816 12.6538 166.39 11.1077C166.456 10.8968 166.582 10.7097 166.753 10.5697C167.036 10.3276 167.305 10.4218 167.48 10.7446C167.514 10.8119 167.537 10.8847 167.547 10.9598C167.318 12.5334 168.26 13.717 168.892 14.9948C169.001 15.1897 169.07 15.4048 169.094 15.6269C169.223 17.2252 169.594 18.7945 170.196 20.2806C170.291 20.6034 170.344 20.9397 170.412 21.2625C170.423 21.5218 170.463 21.7791 170.533 22.0291C171.457 24.2695 172.064 26.6282 172.335 29.0366C172.698 30.7448 173.088 32.4663 173.29 34.2014C173.424 35.3715 173.29 36.5821 173.29 37.7657C173.308 39.2087 172.87 40.6207 172.039 41.8007C171.257 42.9561 170.096 43.8027 168.757 44.1948C168.465 44.3017 168.152 44.343 167.841 44.3156C167.531 44.2882 167.23 44.1928 166.961 44.0362C166.691 43.8796 166.459 43.6657 166.282 43.4095C166.104 43.1533 165.985 42.8612 165.933 42.5539C165.543 40.7381 165.247 38.8955 164.978 37.0528C164.83 36.0172 164.803 34.9681 164.722 33.919L164.642 33.8652ZM168.421 41.72C168.782 41.5332 169.093 41.2621 169.327 40.9296C169.561 40.5971 169.712 40.2131 169.766 39.8101C170.128 37.4068 170.037 34.9571 169.497 32.5874C169.067 30.4623 168.663 28.3372 168.246 26.2121C168.252 26.1001 168.252 25.9879 168.246 25.8759C168.044 24.8133 167.856 23.7507 167.641 22.7016C167.532 22.4517 167.392 22.2167 167.224 22.0022C167.13 22.6075 167.063 22.9572 167.036 23.3472C166.901 25.4723 166.915 27.6109 166.632 29.7226C166.296 32.9185 166.51 36.1484 167.264 39.2721C167.396 40.1853 167.799 41.038 168.421 41.72V41.72Z" fill="black"/>
<path d="M57.6334 18.1959C58.7229 18.1959 58.7094 18.1959 58.9784 19.0836C59.0834 19.3924 59.2281 19.6863 59.4088 19.9578C59.6727 20.3547 59.8936 20.7785 60.0679 21.2221C60.7538 23.7776 61.4129 26.3466 62.0316 28.9155C62.5427 31.1079 63.0134 33.3002 63.3766 35.506C63.8608 38.7206 64.3315 41.9486 64.5736 45.1766C64.8373 47.2601 64.6679 49.3755 64.076 51.3905C63.5364 52.7508 62.5369 53.8788 61.2515 54.5781C61.0836 54.6503 60.9029 54.6875 60.7202 54.6875C60.5375 54.6875 60.3567 54.6503 60.1889 54.5781C59.3797 54.2729 58.6601 53.7694 58.0961 53.1138C57.5321 52.4581 57.1418 51.6713 56.9609 50.8256C56.544 48.7139 56.3422 46.5485 56.0598 44.3965C55.8042 41.6811 55.8042 38.9477 56.0598 36.2323C56.0598 35.0487 56.2212 33.8517 56.3019 32.6681C56.4364 30.7716 56.544 28.8617 56.7188 26.9653C56.7995 25.9969 57.0147 25.0419 57.1089 24.087C57.203 23.132 57.1089 22.4461 57.2165 21.6256C57.3241 20.8052 57.3375 19.6888 57.4317 18.7339C57.4594 18.5421 57.5282 18.3586 57.6334 18.1959ZM58.696 27.0594H58.4404C58.3728 27.2147 58.3232 27.3771 58.2925 27.5436C58.2252 29.1038 58.1445 30.6775 58.0907 32.2377C58.0907 33.0178 58.0907 33.8113 58.0907 34.5914C57.6669 38.3796 57.7076 42.2053 58.2118 45.9836C58.3463 47.1268 58.5211 48.2701 58.7094 49.4133C58.842 50.3453 59.2334 51.2214 59.8392 51.9419C60.5252 52.7355 61.0901 52.722 61.5339 51.7536C61.897 50.9398 62.1242 50.072 62.2064 49.1847C62.3341 46.6132 62.1989 44.0353 61.8029 41.4913C61.3591 38.4381 60.9287 35.3715 60.2158 32.3587C59.9065 31.0137 59.5433 29.6687 59.1802 28.4044C59.0188 27.9471 58.8439 27.5167 58.696 27.0594Z" fill="black"/>
<path d="M44.56 28.2834L44.6811 28.9693H44.5062L44.3986 28.2834H44.56Z" fill="black"/>
<path d="M185.704 97.4702L186.256 97.5913V97.7796H185.704V97.4702Z" fill="black"/>
<path d="M185.686 205.374L177.698 213.362L185.686 221.351L193.675 213.362L185.686 205.374Z" fill="#3186FF"/>
<path d="M75.3925 0.936887L67.4036 8.92578L75.3925 16.9147L83.3813 8.92578L75.3925 0.936887Z" fill="#3186FF"/>
<path d="M47.9225 200.148H35.8175C35.8175 200.148 37.3777 185.474 47.9225 187.747V200.148Z" fill="#F6AE42"/>
<path opacity="0.5" d="M202.961 231.957C203.149 233.154 204.669 233.826 204.117 235.481L201.925 232.629L201.333 236.019H200.943C200.365 234.929 201.145 233.773 200.876 232.508C200.351 232.979 199.854 233.45 199.316 233.853C199.168 233.974 198.899 233.92 198.684 233.934C198.684 233.746 198.684 233.504 198.684 233.382C199.101 232.831 199.558 232.32 200.029 231.701C199.325 231.548 198.633 231.346 197.957 231.096C197.648 230.961 197.46 230.531 197.204 230.249C197.507 230.17 197.819 230.129 198.132 230.128C198.71 230.128 199.289 230.316 199.867 230.329C200.446 230.343 200.647 229.926 200.365 229.415C200.082 228.904 199.733 228.567 199.518 228.07C199.389 227.668 199.307 227.253 199.275 226.832L199.692 226.657L201.454 229.59L202.611 225.46C203.472 226.9 202.692 228.016 202.477 229.495L204.158 228.083C204.372 227.852 204.611 227.644 204.871 227.464C205.161 227.361 205.464 227.297 205.772 227.276C205.717 227.555 205.608 227.82 205.449 228.056C204.911 228.594 204.319 229.092 203.754 229.616C203.526 229.818 203.337 230.047 203.068 230.329C204.413 231.244 206.162 230.208 207.655 231.284C206.175 232.414 204.615 231.755 202.961 231.957Z" fill="black"/>
<path opacity="0.5" d="M199.639 214.136C199.437 213.678 199.854 213.006 200.58 212.791C200.74 212.733 200.91 212.711 201.079 212.725C201.248 212.739 201.412 212.789 201.56 212.872C201.708 212.954 201.836 213.068 201.936 213.205C202.036 213.342 202.106 213.499 202.14 213.665C202.355 214.526 202.019 215.413 201.374 215.467C200.728 215.521 200.015 215.333 199.639 214.136Z" fill="black"/>
<path opacity="0.5" d="M189.322 229.576C190.008 230.101 190.667 230.343 190.802 230.76C191.152 231.486 190.694 232.105 189.995 232.293C189.295 232.481 188.287 231.916 188.354 231.365C188.589 230.725 188.915 230.123 189.322 229.576Z" fill="black"/>
<path d="M216.72 55.56C217.177 55.8424 217.675 56.0845 218.065 56.4073C218.526 56.8092 219.031 57.1568 219.571 57.443C219.397 56.6091 219.168 55.7886 219.06 54.9547C219.08 54.595 219.157 54.2408 219.289 53.9056C219.518 54.1881 219.867 54.4436 219.962 54.7799C220.217 55.681 220.378 56.6091 220.634 57.7523C220.942 57.5058 221.221 57.2261 221.468 56.9184C221.871 56.2997 222.181 55.5734 222.598 55.022C222.875 54.747 223.192 54.5157 223.539 54.336C223.539 54.753 223.768 55.2237 223.62 55.5465C223.23 56.4342 222.705 57.2547 222.275 58.102C222.194 58.2365 222.14 58.371 222.006 58.6535H225.328C225.328 59.7429 224.535 59.4739 224.05 59.5546C223.566 59.6353 222.907 59.716 222.127 59.8102L224.817 61.9891L224.588 62.3522C223.405 62.2581 222.773 61.0745 221.562 60.5634C221.67 61.2359 221.804 61.8277 221.871 62.4195C221.868 62.6918 221.832 62.9627 221.764 63.2265C221.508 63.0516 221.118 62.9306 221.024 62.7019C220.829 62.1402 220.676 61.5648 220.567 60.9803C219.491 61.3838 219.316 63.1054 217.675 62.6078L219.612 59.7564L216.007 59.5008V59.0973C216.841 58.1424 218.065 59.1915 219.154 58.5593L216.464 55.8693L216.72 55.56Z" fill="black"/>
<path d="M205.879 50.7046C206.337 50.9332 207.09 51.135 206.942 52.0496C206.85 52.3967 206.637 52.6993 206.34 52.9019C206.044 53.1045 205.685 53.1934 205.328 53.1525C204.994 53.0392 204.706 52.8206 204.507 52.5295C204.308 52.2384 204.209 51.8906 204.225 51.5385C204.363 51.2303 204.602 50.979 204.904 50.8271C205.205 50.6752 205.55 50.6319 205.879 50.7046V50.7046Z" fill="black"/>
<path d="M213.479 69.4404C214.299 69.0234 214.824 68.5796 215.308 68.5393C215.792 68.4989 216.37 69.5749 216.128 70.1532C215.886 70.7316 215.429 71.431 214.689 71.0678C214.245 70.8526 214.03 70.1801 213.479 69.4404Z" fill="black"/>
<path d="M23.3763 185.353C23.3763 184.801 23.2552 184.263 23.2687 183.725C23.328 183.117 23.328 182.504 23.2687 181.896C22.6903 182.515 22.1523 183.174 21.5336 183.752C21.2269 183.944 20.8907 184.085 20.5383 184.169C20.5909 183.805 20.6998 183.451 20.8611 183.12C21.4529 182.38 22.1254 181.775 22.9055 180.86C22.5102 180.748 22.1047 180.676 21.695 180.645C20.9553 180.645 20.2155 180.833 19.4892 180.82C19.1051 180.756 18.7331 180.634 18.3863 180.457C18.6957 180.188 18.9781 179.757 19.3278 179.69C20.2881 179.505 21.258 179.375 22.233 179.3L22.8517 179.192L20.9149 176.502C21.8295 175.924 22.0313 176.677 22.3944 177.027C22.7576 177.377 23.1745 177.861 23.7394 178.372L23.9681 174.942H24.385C24.9903 175.951 24.385 177.161 24.6809 178.439C25.1651 177.955 25.5686 177.511 26.0259 177.094C26.2467 176.936 26.4861 176.805 26.7388 176.704C26.7388 177.014 26.8733 177.39 26.7388 177.619C26.3923 178.092 26.0149 178.541 25.609 178.964C26.5639 179.596 28.0703 178.749 28.6083 180.309L25.1517 180.389L27.0347 183.47L26.6984 183.698C25.4341 183.564 25.5955 181.963 24.4388 181.439L23.8336 185.151L23.3763 185.353Z" fill="black"/>
<path d="M25.73 197.041C25.6493 196.543 25.3803 195.803 26.2142 195.386C26.551 195.26 26.922 195.258 27.26 195.381C27.598 195.505 27.8806 195.745 28.0569 196.059C28.156 196.397 28.1442 196.759 28.0232 197.09C27.9022 197.422 27.6783 197.706 27.3844 197.901C27.0517 197.97 26.7057 197.921 26.4045 197.764C26.1033 197.608 25.8651 197.352 25.73 197.041Z" fill="black"/>
<path d="M36.6111 179.999C35.7906 179.582 35.145 179.434 34.8088 179.031C34.4725 178.627 35.0374 177.565 35.6561 177.43C36.2748 177.296 37.0953 177.269 37.2298 178.063C37.3239 178.56 36.907 179.139 36.6111 179.999Z" fill="black"/>
<path opacity="0.5" d="M5.00356 30.1664C4.90941 28.9559 3.47026 28.1624 4.15621 26.5618L6.03921 29.5881L6.90001 26.2659L7.29006 26.3332C7.76081 27.463 6.88656 28.5524 7.03451 29.8302C7.61286 29.4132 8.13741 28.9828 8.71576 28.6196C8.86371 28.5255 9.13271 28.6196 9.34791 28.6196C9.34791 28.8079 9.34791 29.05 9.25376 29.1711C8.79646 29.6822 8.29881 30.153 7.72046 30.7313C8.41091 30.9423 9.08517 31.203 9.73796 31.5114C10.0339 31.6728 10.1818 32.1166 10.397 32.426C10.0882 32.4527 9.77773 32.4527 9.46896 32.426C8.89061 32.3318 8.33916 32.1301 7.76081 32.0629C7.18246 31.9956 6.95381 32.3857 7.18246 32.9237C7.41111 33.4617 7.73391 33.8382 7.90876 34.2686C7.99933 34.6797 8.04889 35.0987 8.05671 35.5195L7.61286 35.654L6.14681 32.695L4.62696 36.73C3.90066 35.2236 4.77491 34.1745 5.12461 32.695C4.35796 33.2196 3.77961 33.5827 3.32231 33.9593C3.08785 34.1669 2.83066 34.3474 2.55566 34.4973C2.25787 34.5798 1.95006 34.6206 1.64106 34.6184C1.72144 34.3445 1.85387 34.0888 2.03111 33.8652C2.60946 33.3675 3.25506 32.9371 3.86031 32.5202C4.10241 32.3319 4.31761 32.1166 4.61351 31.8611C3.26851 30.8254 1.52001 31.7131 0.107758 30.5161C1.84281 29.4266 3.40301 30.2337 5.00356 30.1664Z" fill="black"/>
<path opacity="0.5" d="M6.73861 48.2163C6.90001 48.7005 6.42926 49.3192 5.68951 49.4671C5.52542 49.5084 5.35444 49.5145 5.18784 49.4849C5.02124 49.4552 4.86282 49.3906 4.72302 49.2953C4.58321 49.2 4.4652 49.0761 4.37678 48.9319C4.28835 48.7876 4.23151 48.6262 4.21001 48.4584C4.06206 47.5841 4.47901 46.7233 5.12461 46.7368C5.77021 46.7502 6.46961 46.9789 6.73861 48.2163Z" fill="black"/>
<path opacity="0.5" d="M18.3729 33.7441C17.7407 33.1523 17.1758 32.8698 17.0279 32.3991C16.7454 31.6593 17.2565 31.1482 17.9693 30.9599C18.6822 30.7716 19.6506 31.471 19.5161 32.0225C19.3816 32.5739 18.8974 32.9909 18.3729 33.7441Z" fill="black"/>
</svg>
