<svg width="227" height="206" viewBox="0 0 227 206" fill="none" xmlns="http://www.w3.org/2000/svg">
<g id="akun ekuid berhasil diubah">
<path id="Vector" d="M74.901 192.638C73.9596 192.039 73.0876 191.337 72.301 190.545C71.742 189.921 71.079 189.388 70.494 188.79C70.3458 188.614 70.2232 188.417 70.13 188.205C70.0542 188.061 69.9626 187.926 69.857 187.802C69.038 186.931 68.219 186.06 67.374 185.202C66.789 184.63 66.152 184.123 65.554 183.564C65.1904 183.255 64.8671 182.902 64.592 182.511C61.8241 178.61 59.3723 174.493 57.26 170.2C56.22 167.925 55.31 165.572 54.374 163.245C53.8716 162.102 53.4375 160.93 53.074 159.735C52.489 157.564 52.021 155.367 51.501 153.235L51.072 151.35C50.617 149.387 50.097 147.45 49.707 145.474C49.408 143.953 49.239 142.406 49.031 140.872C48.585 136.846 48.4373 132.792 48.589 128.743C48.589 126.52 48.836 124.31 48.979 122.087C49.07 120.579 49.161 119.071 49.291 117.576C49.421 116.081 49.577 114.235 49.798 112.571C50.136 109.971 50.474 107.371 50.916 104.771C51.293 102.496 51.761 100.247 52.216 98.0115C52.619 96.2435 53.126 94.5015 53.594 92.8115C53.6437 92.6017 53.7133 92.3971 53.802 92.2005C54.6793 90.2009 55.6599 88.2483 56.74 86.3505C57.312 85.3885 57.715 84.3355 58.209 83.3215C58.3095 83.0814 58.4313 82.8508 58.573 82.6325C59.808 80.9295 61.082 79.2525 62.291 77.5235C63.344 76.0415 64.553 74.6895 65.71 73.2855C67.374 71.2315 69.155 69.2945 70.91 67.3445C72.485 65.6288 74.227 64.0741 76.11 62.7035C77.306 61.8065 78.372 60.7665 79.529 59.8435C80.6456 58.9185 81.8085 58.0507 83.013 57.2435C87.991 54.092 93.1573 51.2483 98.483 48.7285C101.2 47.4285 103.891 46.0505 106.595 44.7115C106.855 44.5945 107.128 44.5165 107.401 44.3995L108.831 43.7495C109.182 43.552 109.552 43.3909 109.936 43.2685C112.365 42.7229 114.764 42.0547 117.125 41.2665C118.66 40.799 120.253 40.5495 121.857 40.5255C123.365 40.5255 124.873 40.3435 126.381 40.2655C126.931 40.2266 127.482 40.2266 128.032 40.2655C129.89 40.467 131.764 40.467 133.622 40.2655C133.929 40.2395 134.238 40.2395 134.545 40.2655L139.641 40.5775C141.409 40.6815 143.177 40.7725 144.945 40.9025C145.349 40.9575 145.746 41.0578 146.128 41.2015C148.455 41.9425 150.743 42.7875 153.109 43.3985C154.504 43.8614 155.82 44.5367 157.009 45.4005C157.709 45.8127 158.351 46.3154 158.92 46.8955C159.223 47.17 159.56 47.4058 159.921 47.5975C160.818 48.0915 161.741 48.5595 162.638 49.0535C162.911 49.2071 163.171 49.3809 163.418 49.5735C164.718 50.6005 166.122 51.6405 167.448 52.6935C167.902 53.0457 168.336 53.4233 168.748 53.8245C170.048 55.0595 171.283 56.3075 172.544 57.5555C173.513 58.512 174.34 59.602 175.001 60.7925C175.822 62.2535 176.761 63.6448 177.809 64.9525C180.695 68.5925 183.62 72.2065 186.311 75.9895C187.351 77.4455 188.339 78.9535 189.288 80.4745C189.821 81.3195 190.211 82.2555 190.692 83.0745C191.576 84.6865 192.538 86.2595 193.37 87.9105C193.709 88.7161 193.987 89.5461 194.202 90.3935C194.29 90.6892 194.394 90.98 194.514 91.2645C195.463 93.3575 196.438 95.4375 197.361 97.5435C197.592 98.1734 197.77 98.8212 197.894 99.4805C198.011 99.8965 198.102 100.312 198.18 100.78C198.388 101.885 198.57 102.99 198.778 104.095C199.09 105.811 199.441 107.527 199.714 109.295C199.935 110.712 200.052 112.155 200.221 113.572C200.221 114.144 200.377 114.716 200.416 115.288C200.455 115.86 200.416 116.094 200.416 116.497C200.416 116.64 200.416 116.783 200.416 116.926C200.524 118.66 200.489 120.399 200.312 122.126C200.312 122.568 200.078 122.997 200.026 123.426C199.909 124.271 199.558 125.064 199.376 125.883C199.222 126.629 199.127 127.385 199.09 128.145C199.029 129.118 198.863 130.081 198.596 131.018C197.53 134.671 196.594 138.363 195.541 142.016C195.07 143.772 194.421 145.475 193.604 147.099C193.006 148.23 192.577 149.452 192.057 150.622C191.797 151.233 191.459 151.831 191.225 152.455C190.666 153.924 190.159 155.419 189.6 156.901C189.376 157.555 189.111 158.193 188.807 158.812C188.3 159.813 187.767 160.814 187.182 161.776C186.22 163.388 185.622 165.169 184.816 166.846C184.348 167.808 183.802 168.744 183.256 169.667C182.221 171.448 180.953 173.083 179.486 174.529C179.127 174.885 178.8 175.272 178.511 175.686C177.42 177.136 176.103 178.4 174.611 179.43C173.83 179.982 173.145 180.658 172.583 181.432C172.196 181.929 171.76 182.386 171.283 182.797C170.711 183.343 170.087 183.824 169.541 184.396C168.995 184.968 168.163 185.917 167.422 186.619C165.808 188.071 164.067 189.376 162.222 190.519C160.818 191.416 159.245 192.066 157.802 192.911C156.359 193.756 154.773 194.211 153.278 194.887C152.223 195.377 151.142 195.811 150.041 196.187C136.17 200.815 94.388 205.014 74.901 192.638Z" fill="white"/>
<path id="Vector_2" d="M218.998 95.7315L211.277 103.453L218.998 111.175L226.72 103.453L218.998 95.7315Z" fill="#3186FF"/>
<path id="Vector_3" d="M122.377 92.8882L121.935 92.2902C121.545 91.7442 121.142 91.2112 120.778 90.6522C120.609 90.3916 120.494 90.0999 120.44 89.7942C120.383 89.5207 120.422 89.2361 120.55 88.9877C120.678 88.7394 120.887 88.5422 121.142 88.4292C121.395 88.3199 121.676 88.2937 121.945 88.3544C122.213 88.4152 122.456 88.5597 122.637 88.7672C122.78 88.9362 122.884 89.1312 123.014 89.3002L124.405 91.2242L127.005 89.4562C126.602 89.0402 126.329 88.5722 125.809 88.3382C125.719 88.2987 125.636 88.2461 125.562 88.1822C125.289 88.0011 125.095 87.7238 125.018 87.4056C124.941 87.0875 124.987 86.7521 125.146 86.4662C125.312 86.1846 125.579 85.976 125.892 85.8821C126.205 85.7881 126.542 85.8156 126.836 85.9592C127.694 86.2683 128.426 86.8536 128.916 87.6232C129.078 87.52 129.23 87.4025 129.371 87.2722C129.748 86.9472 130.125 86.6092 130.476 86.2582C130.862 85.9341 131.154 85.512 131.321 85.0362C131.438 84.6072 131.802 84.2562 131.945 83.8402C132.627 82.1212 133.031 80.3044 133.141 78.4582C133.18 78.0206 133.25 77.5862 133.349 77.1582C133.492 76.1572 133.622 75.1692 133.765 74.1682C133.765 74.0252 133.765 73.8822 133.765 73.7392C134.038 72.4123 133.835 71.0318 133.193 69.8392C132.647 68.5392 132.101 67.2392 131.542 66.0172C131.093 64.983 130.428 64.0567 129.592 63.3002C129.299 63.0156 129.025 62.7116 128.773 62.3902C127.789 61.4272 126.718 60.5569 125.575 59.7902C123.784 58.4591 121.719 57.5442 119.53 57.1122C119.366 57.0932 119.2 57.0932 119.036 57.1122C116.819 56.9086 114.589 56.8738 112.367 57.0082C111.444 57.1252 110.495 57.0082 109.572 57.1642C108.219 57.3957 106.93 57.9095 105.789 58.6722C104.905 59.1922 104.073 59.8032 103.189 60.3752L101.46 61.5322C100.125 62.5007 98.9149 63.6318 97.859 64.8992C97.313 65.5102 96.793 66.1342 96.273 66.7712C95.5404 67.688 94.9569 68.7146 94.544 69.8132C94.154 70.8142 93.634 71.7632 93.244 72.7512C92.6051 74.1059 92.0409 75.4947 91.554 76.9112C91.1453 78.2223 91.0386 79.609 91.242 80.9672C91.2611 81.1313 91.2611 81.2971 91.242 81.4612C91.2639 82.558 91.4524 83.645 91.801 84.6852C91.8727 84.8922 91.925 85.1055 91.957 85.3222C92.1392 86.3513 92.5874 87.3148 93.257 88.1172C93.4239 88.3769 93.5759 88.646 93.712 88.9232C93.9755 89.3754 94.3517 89.7517 94.804 90.0152C95.4084 90.4098 95.986 90.8441 96.533 91.3152C97.3055 92.0748 98.1807 92.7225 99.133 93.2392C99.5179 93.4196 99.9242 93.5507 100.342 93.6292C100.978 93.7662 101.567 94.0715 102.045 94.5132C102.5 94.9733 103.085 95.282 103.722 95.3972C103.78 95.3941 103.839 95.4041 103.893 95.4266C103.947 95.4491 103.995 95.4835 104.034 95.5272C104.221 95.7561 104.454 95.9428 104.719 96.075C104.983 96.2072 105.273 96.2819 105.568 96.2942C105.957 96.3516 106.33 96.4871 106.665 96.6927C107 96.8982 107.291 97.1695 107.518 97.4902C107.601 97.5903 107.66 97.7076 107.691 97.8336C107.723 97.9595 107.726 98.091 107.7 98.2182C107.572 98.8028 107.541 99.4046 107.609 99.9992C107.604 100.549 107.547 101.098 107.44 101.637C107.44 102.092 107.349 102.547 107.349 102.937C107.39 103.871 107.307 104.807 107.102 105.719C107.046 106.151 107.046 106.588 107.102 107.019C106.276 107.498 105.406 107.895 104.502 108.202C103.729 108.46 102.985 108.796 102.279 109.203C101.161 109.775 100.043 110.386 98.925 110.997C98.47 111.244 98.054 111.569 97.625 111.842C97.3416 112.019 97.0462 112.175 96.741 112.31C93.9277 113.388 91.1838 114.638 88.525 116.054C86.835 117.003 85.119 117.9 83.325 118.654C82.3529 119.171 81.4303 119.776 80.569 120.461C80.3799 120.641 80.2563 120.879 80.218 121.137C80.049 121.878 79.971 122.645 79.789 123.386C79.477 124.686 79.113 125.986 78.775 127.286C78.697 127.572 78.697 127.884 78.645 128.196C78.32 130.068 78.008 131.966 77.644 133.838C77.358 135.359 76.994 136.88 76.695 138.401C76.617 138.778 76.695 139.168 76.578 139.532C76.4995 140.147 76.3601 140.752 76.162 141.339C75.8247 142.255 75.5893 143.206 75.46 144.173C75.46 144.719 75.213 145.239 75.109 145.785C74.927 146.617 74.797 147.475 74.589 148.307C74.316 149.412 73.991 150.504 73.692 151.609C73.181 153.027 72.8491 154.503 72.704 156.003C72.6851 156.17 72.6547 156.335 72.613 156.497C72.08 158.772 71.534 161.047 71.001 163.322C70.637 164.908 70.286 166.494 69.909 168.08C69.532 169.666 69.246 170.914 68.778 172.292C68.5103 173.184 68.319 174.098 68.206 175.022C68.063 175.867 67.855 176.699 67.699 177.544C67.621 178.012 67.608 178.48 67.556 178.961C67.5688 179.104 67.5688 179.247 67.556 179.39C67.218 180.443 66.88 181.509 66.516 182.562C66.4713 182.699 66.3943 182.823 66.2915 182.924C66.1887 183.025 66.0632 183.099 65.9255 183.141C65.7878 183.184 65.642 183.192 65.5004 183.166C65.3588 183.14 65.2256 183.08 65.112 182.991C64.1753 182.385 63.304 181.684 62.512 180.898C61.966 180.274 61.303 179.741 60.705 179.156C60.5681 178.969 60.4505 178.769 60.354 178.558C60.2705 178.419 60.1794 178.284 60.081 178.155C59.249 177.297 58.443 176.413 57.585 175.555C57.013 174.983 56.363 174.476 55.778 173.93C55.4134 173.618 55.0862 173.265 54.803 172.877C52.0574 168.977 49.6191 164.87 47.51 160.592C46.47 158.317 45.56 155.964 44.624 153.637C44.116 152.496 43.6817 151.324 43.324 150.127C42.739 147.969 42.271 145.759 41.751 143.627C41.608 143.003 41.465 142.327 41.309 141.742C40.854 139.779 40.347 137.842 40.009 135.866C39.71 134.345 39.528 132.798 39.333 131.264C38.8803 127.238 38.7325 123.184 38.891 119.135C38.891 116.912 39.125 114.702 39.268 112.479C39.372 110.971 39.463 109.476 39.593 107.968C39.723 106.46 39.879 104.627 40.1 102.963C40.425 100.363 40.776 97.7632 41.218 95.1632C41.595 92.9012 42.063 90.6522 42.518 88.4032C42.908 86.6352 43.415 84.8932 43.818 83.1382C43.8722 82.928 43.9462 82.7234 44.039 82.5272C44.962 80.5772 45.794 78.6272 46.899 76.7422C47.484 75.7802 47.887 74.7272 48.381 73.7262C48.4762 73.4795 48.5983 73.2441 48.745 73.0242C50.045 71.3212 51.254 69.6442 52.463 67.9282C53.516 66.4332 54.725 65.0812 55.869 63.6772C57.546 61.6362 59.314 59.6862 61.069 57.7362C62.641 56.0174 64.3832 54.4624 66.269 53.0952C67.452 52.2112 68.531 51.1582 69.688 50.2352C70.8046 49.3102 71.9675 48.4424 73.172 47.6352C78.1497 44.4832 83.316 41.6395 88.642 39.1202C91.359 37.8202 94.05 36.4422 96.754 35.1162C97.001 34.9862 97.287 34.9082 97.547 34.7912L98.977 34.1542C99.3301 33.9573 99.6998 33.792 100.082 33.6602C102.511 33.118 104.911 32.4498 107.271 31.6582C108.81 31.1917 110.408 30.9423 112.016 30.9172C113.524 30.9172 115.019 30.7352 116.527 30.6572C117.077 30.6247 117.628 30.6247 118.178 30.6572C120.04 30.859 121.919 30.859 123.781 30.6572C124.088 30.6311 124.397 30.6311 124.704 30.6572C126.407 30.7612 128.097 30.8782 129.8 30.9692C131.503 31.0602 133.336 31.1642 135.104 31.2942C135.504 31.3492 135.897 31.4495 136.274 31.5932C138.601 32.3342 140.902 33.1792 143.268 33.7902C144.66 34.2607 145.974 34.9354 147.168 35.7922C147.869 36.2082 148.511 36.7152 149.079 37.3002C149.377 37.5778 149.714 37.8099 150.08 37.9892C150.977 38.4832 151.9 38.9512 152.797 39.4452C153.07 39.5988 153.33 39.7726 153.577 39.9652C154.877 40.9922 156.268 42.0322 157.607 43.0852C158.062 43.4362 158.491 43.8262 158.907 44.2162L162.69 47.9472C163.659 48.9037 164.486 49.9937 165.147 51.1842C165.972 52.6423 166.911 54.0333 167.955 55.3442C170.854 58.9842 173.766 62.5982 176.47 66.3812C177.51 67.8372 178.498 69.3452 179.447 70.8662C179.98 71.7112 180.37 72.6472 180.851 73.5312C181.735 75.1432 182.684 76.7162 183.516 78.3672C183.865 79.1703 184.148 80.0007 184.361 80.8502C184.452 81.1492 184.543 81.4482 184.66 81.7342C185.609 83.8142 186.597 85.8942 187.52 88.0002C187.745 88.632 187.923 89.2794 188.053 89.9372C188.157 90.3532 188.261 90.7692 188.339 91.2372C188.547 92.3422 188.729 93.4472 188.924 94.5522C189.236 96.2682 189.6 97.9842 189.873 99.7522C190.094 101.169 190.211 102.612 190.38 104.029C190.445 104.601 190.536 105.173 190.575 105.745C190.614 106.317 190.575 106.551 190.575 106.954C190.575 107.097 190.575 107.24 190.575 107.383C190.687 109.116 190.656 110.855 190.484 112.583C190.484 113.025 190.25 113.454 190.198 113.883C190.081 114.741 189.717 115.521 189.535 116.34C189.392 117.087 189.301 117.843 189.262 118.602C189.193 119.578 189.028 120.545 188.768 121.488C187.702 125.141 186.753 128.82 185.713 132.473C185.242 134.229 184.593 135.932 183.776 137.556C183.178 138.687 182.749 139.909 182.229 141.079C181.956 141.703 181.631 142.288 181.397 142.912C180.838 144.381 180.318 145.876 179.772 147.358C179.548 148.011 179.283 148.649 178.979 149.269C178.472 150.283 177.939 151.271 177.354 152.233C176.379 153.845 175.794 155.626 174.988 157.303C174.52 158.265 173.974 159.201 173.428 160.124C172.39 161.907 171.122 163.546 169.658 164.999C169.295 165.347 168.969 165.73 168.683 166.143C167.592 167.592 166.275 168.857 164.783 169.887C164.001 170.443 163.313 171.118 162.742 171.889C162.352 172.387 161.917 172.849 161.442 173.267C160.87 173.8 160.233 174.294 159.7 174.853C159.167 175.412 158.322 176.374 157.568 177.076C155.956 178.531 154.216 179.836 152.368 180.976C150.977 181.886 149.404 182.523 147.961 183.368C146.518 184.213 144.919 184.668 143.424 185.344C143.066 185.479 142.688 185.553 142.306 185.565C142.236 185.557 142.17 185.533 142.111 185.494C142.052 185.456 142.004 185.405 141.968 185.344C141.839 185.095 141.747 184.827 141.695 184.551C141.275 180.744 141.192 176.907 141.448 173.085C141.448 171.993 141.734 170.914 141.825 169.809C141.916 168.704 141.903 167.859 141.942 166.871C141.92 165.918 142.016 164.966 142.228 164.037C142.247 163.895 142.247 163.751 142.228 163.608C142.122 161.876 142.122 160.14 142.228 158.408C142.25 157.504 142.376 156.605 142.605 155.73C142.637 155.567 142.637 155.399 142.605 155.236C142.605 152.051 142.605 148.866 142.605 145.681C142.605 144.381 142.683 143.003 142.696 141.664C142.696 139.584 142.696 137.504 142.696 135.424C142.696 134.54 142.696 133.669 142.696 132.824C142.786 132.266 142.812 131.699 142.774 131.134C142.658 130.526 142.632 129.904 142.696 129.288C142.774 127.988 142.904 126.766 142.956 125.492C142.956 124.53 142.956 123.542 142.956 122.567C142.956 121.267 142.956 120.084 142.956 118.836V117.198C142.956 116.808 142.826 116.561 142.397 116.509C141.438 116.307 140.517 115.956 139.667 115.469C137.353 114.377 135.156 113.051 132.933 111.764C131.737 111.075 130.619 110.23 129.397 109.593C127.72 108.722 125.978 107.994 124.262 107.188C123.677 106.915 123.105 106.603 122.533 106.304C121.48 105.745 120.427 105.186 119.361 104.64C119.118 104.509 118.91 104.324 118.752 104.098C118.594 103.872 118.491 103.613 118.451 103.34C118.216 102.512 118.262 101.63 118.581 100.831C118.839 100.061 119.026 99.2692 119.14 98.4652C119.348 97.3992 119.439 96.3072 119.699 95.2542C119.72 95.0908 119.786 94.9365 119.889 94.808C119.992 94.6796 120.129 94.5821 120.284 94.5262C121.078 94.1155 121.788 93.56 122.377 92.8882ZM120.609 103.769C121.028 103.991 121.462 104.182 121.909 104.341C123.266 104.838 124.572 105.465 125.809 106.213C126.705 106.693 127.625 107.127 128.565 107.513C129.567 107.894 130.548 108.328 131.503 108.813C132.92 109.502 134.311 110.256 135.715 110.958C136.365 111.27 137.015 111.53 137.691 111.816L141.825 113.636C142.004 113.735 142.205 113.787 142.41 113.787C142.615 113.787 142.816 113.735 142.995 113.636C143.277 113.513 143.596 113.503 143.886 113.606C144.176 113.71 144.415 113.921 144.555 114.195C144.855 115.038 145.068 115.909 145.192 116.795C145.335 118.095 145.322 119.395 145.348 120.695C145.374 121.995 145.348 122.996 145.348 124.14C145.348 125.96 145.257 127.767 145.348 129.587C145.439 131.407 145.465 132.876 145.53 134.527C145.621 136.412 145.751 138.297 145.79 140.182C145.79 141.56 145.699 142.951 145.686 144.329C145.673 145.707 145.686 147.384 145.686 148.905C145.686 149.841 145.816 150.764 145.894 151.687C145.894 152.259 146.037 152.831 146.076 153.403C146.167 154.833 146.245 156.263 146.336 157.693C146.336 158.525 146.492 159.357 146.531 160.189C146.57 161.021 146.531 162.204 146.531 163.205C146.531 163.829 146.648 164.505 146.661 165.064C146.661 166.143 146.661 167.222 146.661 168.301C146.739 170.524 146.83 172.747 146.934 174.957C146.944 175.397 147.009 175.834 147.129 176.257C147.311 176.829 147.649 176.933 148.182 176.66C148.498 176.485 148.802 176.29 149.092 176.075C149.834 175.595 150.546 175.07 151.224 174.502C151.838 173.885 152.513 173.332 153.239 172.851C154.832 171.848 156.326 170.695 157.698 169.406C158.322 168.808 158.998 168.301 159.609 167.664C160.909 166.182 162.209 164.648 163.431 163.114C164.341 161.983 165.173 160.787 166.031 159.617C166.087 159.542 166.14 159.464 166.187 159.383C166.811 158.369 167.37 157.303 168.085 156.341C168.867 155.166 169.512 153.905 170.009 152.584C170.36 151.778 170.672 150.959 171.049 150.166C171.894 148.385 172.804 146.63 173.649 144.823C174.494 143.016 175.066 141.495 175.755 139.818C175.976 139.272 176.119 138.7 176.34 138.141C176.561 137.582 176.886 136.932 177.107 136.308C177.536 135.099 177.926 133.864 178.329 132.642C178.732 131.42 179.109 130.393 179.447 129.249C179.863 127.845 180.214 126.441 180.604 125.037C180.799 124.322 181.007 123.607 181.176 122.892C181.462 121.709 181.722 120.526 181.995 119.343C182.268 118.16 182.476 117.25 182.658 116.197C182.957 114.546 183.178 112.895 183.49 111.244C183.826 109.34 183.948 107.404 183.854 105.472C183.854 103.158 183.542 100.857 183.399 98.5432C183.271 96.8264 182.93 95.1321 182.385 93.4992L181.8 92.0692C181.54 91.3022 181.345 90.5222 181.033 89.7812C180.474 88.4812 179.837 87.1812 179.252 85.8812C178.524 84.2952 177.861 82.6962 177.081 81.1492C176.301 79.6022 175.859 78.2762 175.157 76.8722L173.857 74.3502L173.207 73.0502C173.038 72.7252 172.882 72.4002 172.7 72.1012C172.518 71.8022 172.128 71.2692 171.868 70.8012C171.296 69.8912 170.75 68.9682 170.165 68.0582C169.58 67.1482 169.19 66.5892 168.683 65.8742C167.981 64.8862 167.24 63.9112 166.525 62.9232L163.847 59.2052C163.483 58.6998 163.092 58.2138 162.677 57.7492C161.975 56.9172 161.247 56.0982 160.519 55.2792C159.791 54.4602 159.375 53.8752 158.738 53.2252C157.73 52.016 156.649 50.8698 155.501 49.7932C154.916 49.3382 154.409 48.7922 153.876 48.2852L152.082 46.6992L149.976 44.7882C149.612 44.4762 149.222 44.2032 148.884 43.8652C148.103 43.0936 147.23 42.4212 146.284 41.8632C145.647 41.4862 144.984 41.1352 144.347 40.8102C143.437 40.3812 142.631 39.7182 141.747 39.2242C140.718 38.5233 139.593 37.9759 138.406 37.5992C137.479 37.3912 136.543 37.2222 135.598 37.0922C134.636 36.9492 133.648 36.8842 132.673 36.7932C131.243 36.6632 129.826 36.4942 128.396 36.4422C126.173 36.4422 123.937 36.4422 121.714 36.4422C120.843 36.4422 119.959 36.5202 119.114 36.5982C118.447 36.7436 117.768 36.8263 117.086 36.8452C115.989 36.8138 114.892 36.8878 113.81 37.0662C112.627 37.1832 111.444 37.4172 110.261 37.5732C109.481 37.6772 108.701 37.7422 107.921 37.8332C107.852 37.8267 107.782 37.8267 107.713 37.8332L104.879 38.1192C104.359 38.1192 103.839 38.2752 103.319 38.3142C103.045 38.3074 102.771 38.3515 102.513 38.4442C101.823 38.6914 101.12 38.8997 100.407 39.0682C99.016 39.4842 97.599 39.8612 96.221 40.3682C95.051 40.7712 93.907 41.2652 92.737 41.6682C92.3455 41.7784 92.0079 42.0281 91.788 42.3702C91.6947 42.5081 91.5639 42.6164 91.411 42.6822C90.161 43.2723 88.9685 43.9773 87.849 44.7882C86.8964 45.3345 85.9722 45.9289 85.08 46.5692C84.365 47.0892 83.507 47.2452 82.792 47.7912C81.7984 48.4857 80.7557 49.107 79.672 49.6502C78.775 50.1572 77.852 50.6122 76.981 51.1582C75.681 52.0162 74.277 52.9392 72.925 53.8232C72.7342 53.9694 72.5183 54.0795 72.288 54.1482C71.4386 54.3364 70.694 54.8437 70.208 55.5652C68.6133 57.4545 67.0187 59.3959 65.424 61.3892L65.086 61.8572C64.397 62.8322 63.786 63.8202 63.019 64.7822C62.59 65.3932 62.148 65.9782 61.719 66.5502C60.7159 67.5554 59.8424 68.6822 59.119 69.9042C59.0202 70.0687 58.8975 70.2177 58.755 70.3462C58.209 71.0352 57.663 71.6462 57.13 72.4002C56.8163 72.7257 56.5494 73.0932 56.337 73.4922C55.9786 74.2256 55.5428 74.9185 55.037 75.5592C54.439 76.3912 53.893 77.2622 53.308 78.1592C52.242 79.6932 51.176 81.2532 50.045 82.7612C48.9458 84.2935 48.0009 85.9308 47.224 87.6492C46.3169 89.4653 45.6233 91.3804 45.157 93.3562C45.001 94.0582 44.819 94.7602 44.663 95.4492C44.0416 97.8459 43.5598 100.277 43.22 102.729C43.051 104.263 42.973 105.823 42.908 107.37C42.83 109.164 42.765 110.958 42.791 112.752C42.791 114.754 42.973 116.756 43.077 118.758C43.077 119.85 43.181 120.955 43.298 122.047C43.48 123.776 43.714 125.505 43.948 127.247C44.104 128.404 44.273 129.561 44.507 130.718C44.897 132.651 45.3303 134.588 45.807 136.529C45.9804 137.712 46.3127 138.867 46.795 139.961C46.8085 140.052 46.8085 140.144 46.795 140.234C46.899 140.689 46.951 141.17 47.094 141.625C47.575 143.12 48.056 144.615 48.589 146.097C48.9482 147.548 49.5409 148.931 50.344 150.192C50.3897 150.277 50.4205 150.37 50.435 150.465C50.63 151.05 50.851 151.635 51.033 152.233C51.3431 153.289 51.8169 154.289 52.437 155.197C53.0174 155.925 53.4582 156.753 53.737 157.641C53.7969 157.793 53.8755 157.937 53.971 158.07C54.452 158.876 54.959 159.656 55.401 160.475C56.1452 161.972 57.015 163.403 58.001 164.752C59.392 166.611 60.731 168.496 62.096 170.381C62.187 170.511 62.291 170.628 62.395 170.758C62.499 170.888 62.525 170.68 62.525 170.641C62.902 169.081 63.266 167.521 63.656 165.974C64.293 163.491 64.956 161.034 65.606 158.551C66.555 154.794 67.192 150.972 68.31 147.254C68.401 146.929 68.427 146.591 68.505 146.266C68.804 145.083 69.155 143.913 69.389 142.717C69.623 141.521 70.286 140.416 70.403 139.168C70.4457 139.008 70.5113 138.855 70.598 138.713C70.728 138.336 70.871 137.959 70.988 137.582C71.105 137.205 71.118 137.14 71.183 136.906C71.573 135.684 72.015 134.462 72.34 133.214C72.769 131.654 73.094 130.068 73.484 128.495C73.874 126.922 74.251 125.583 74.628 124.127C74.9898 122.591 75.4992 121.093 76.149 119.655C76.149 119.538 76.24 119.421 76.279 119.317C76.604 118.303 76.929 117.276 77.267 116.262C77.267 116.119 77.41 115.924 77.54 115.872C77.9994 115.695 78.4681 115.543 78.944 115.417C79.384 115.343 79.8183 115.239 80.244 115.105C83 113.974 85.6 112.83 88.317 111.699C88.6604 111.534 88.9907 111.343 89.305 111.127C89.682 110.919 90.046 110.685 90.423 110.49L94.453 108.605C94.752 108.449 95.025 108.254 95.337 108.124C96.845 107.526 98.366 106.967 99.874 106.356C100.537 106.083 101.174 105.745 101.811 105.433C102.123 105.251 102.449 105.095 102.786 104.965C103.176 104.848 103.449 104.64 103.488 104.25C103.618 102.95 103.735 101.546 103.826 100.194C103.826 99.9082 103.657 99.7522 103.371 99.6352C101.733 99.0372 100.108 98.4262 98.483 97.7892C97.221 97.3577 96.0092 96.7911 94.869 96.0992C94.128 95.6052 93.361 95.1502 92.633 94.6562C92.0709 94.3223 91.5805 93.8805 91.19 93.3562C90.8073 92.7799 90.3722 92.2402 89.89 91.7442C89.1865 90.8757 88.5927 89.9239 88.122 88.9102C87.8839 88.5517 87.6958 88.1625 87.563 87.7532C87.225 86.4532 86.887 85.1532 86.666 83.9312C86.4991 83.0749 86.4641 82.1981 86.562 81.3312C86.6219 79.5392 86.9058 77.7617 87.407 76.0402C87.693 75.2602 87.81 74.4022 88.109 73.6352C88.8588 71.6733 89.7271 69.7588 90.709 67.9022C91.086 67.2002 91.398 66.4722 91.814 65.8092C94.0077 62.5061 96.7054 59.5671 99.809 57.0992C100.771 56.3192 101.772 55.5782 102.76 54.8242C103.168 54.4856 103.602 54.1812 104.06 53.9142C105.36 53.2642 106.517 52.6142 107.791 52.0552C109.662 51.1281 111.7 50.5844 113.784 50.4562C114.069 50.4437 114.352 50.4045 114.629 50.3392C116.989 49.9362 119.416 50.3247 121.532 51.4442C122.895 52.0424 124.201 52.7648 125.432 53.6022C126.524 54.4212 127.668 55.1752 128.669 56.0852C130.551 57.9601 132.076 60.1628 133.167 62.5852C133.96 64.1582 134.597 65.8092 135.247 67.4472C135.732 68.8768 135.999 70.3711 136.04 71.8802C136.04 72.6212 136.183 73.3622 136.17 74.1032C136.17 75.6762 136.04 77.2492 135.962 78.8222C135.938 79.1094 135.882 79.393 135.793 79.6672C135.455 80.7722 135.091 81.8902 134.753 82.9952C134.532 83.7102 134.35 84.4252 134.168 85.1402C134.09 85.4002 133.986 85.6732 133.7 85.7252C133.076 85.8422 132.92 86.3622 132.712 86.8432C132.65 86.989 132.567 87.1248 132.465 87.2462C132.114 87.6492 131.75 88.0392 131.386 88.4422C130.801 89.0792 130.255 89.7422 129.631 90.3272C128.799 91.1202 127.928 91.8742 127.031 92.6152C126.334 93.3132 125.509 93.8694 124.6 94.2532C123.913 94.5473 123.32 95.0239 122.884 95.6312C122.711 95.8235 122.514 95.9938 122.299 96.1382C121.675 96.6192 120.999 97.0352 120.921 97.9712C120.921 98.1792 120.791 98.3872 120.765 98.5952C120.514 99.6653 120.379 100.759 120.362 101.858C120.479 102.43 120.544 103.054 120.609 103.769Z" fill="black"/>
<path id="Vector_4" d="M84.937 123.114C84.508 123.114 84.209 123.114 83.897 123.114C83.7068 123.134 83.5151 123.134 83.325 123.114C83.143 123.103 82.9653 123.055 82.8032 122.971C82.6412 122.888 82.4986 122.771 82.3846 122.629C82.2706 122.487 82.1878 122.322 82.1415 122.146C82.0952 121.97 82.0865 121.786 82.116 121.606C82.22 120.878 82.831 120.488 83.715 120.54C84.391 120.54 85.015 120.54 85.73 120.54C85.9146 120.538 86.0975 120.576 86.2663 120.651C86.4351 120.726 86.5861 120.836 86.7091 120.974C86.8321 121.112 86.9243 121.274 86.9797 121.45C87.035 121.626 87.0521 121.812 87.03 121.996C87.0027 122.305 86.8659 122.594 86.6442 122.811C86.4225 123.028 86.1305 123.158 85.821 123.179C85.496 123.166 85.158 123.127 84.937 123.114Z" fill="black"/>
<path id="Vector_5" d="M84.3 125.621C84.7002 125.626 85.0997 125.656 85.496 125.712C85.6667 125.733 85.8316 125.788 85.9811 125.873C86.1307 125.958 86.262 126.072 86.3677 126.208C86.4733 126.344 86.5511 126.499 86.5967 126.665C86.6424 126.831 86.6549 127.004 86.6335 127.175C86.6122 127.345 86.5574 127.51 86.4724 127.66C86.3873 127.809 86.2737 127.941 86.1379 128.046C86.002 128.152 85.8468 128.23 85.6809 128.275C85.515 128.321 85.3417 128.333 85.171 128.312H83.468H82.961C82.6799 128.242 82.4304 128.079 82.2522 127.851C82.0739 127.622 81.9771 127.341 81.9771 127.051C81.9771 126.761 82.0739 126.48 82.2522 126.251C82.4304 126.023 82.6799 125.861 82.961 125.79C83.429 125.66 83.858 125.647 84.3 125.621Z" fill="black"/>
<path id="Vector_6" d="M81.7 137.155C81.3311 137.102 80.9662 137.024 80.608 136.921C80.2408 136.767 79.9441 136.482 79.7759 136.122C79.6076 135.761 79.5798 135.351 79.698 134.971C79.7535 134.785 79.8499 134.614 79.9802 134.47C80.1104 134.326 80.2712 134.214 80.4507 134.14C80.6302 134.066 80.8239 134.034 81.0176 134.045C81.2112 134.056 81.4 134.11 81.57 134.204C81.8477 134.381 82.1822 134.446 82.506 134.386C82.8379 134.332 83.1776 134.409 83.454 134.601C83.7303 134.792 83.9217 135.083 83.988 135.413C84.0502 135.743 83.9821 136.085 83.7978 136.366C83.6136 136.647 83.3277 136.846 83 136.921C82.5709 137.021 82.137 137.099 81.7 137.155Z" fill="black"/>
<path id="Vector_7" d="M130.619 82.8546C130.637 83.1618 130.561 83.4671 130.401 83.7297C130.24 83.9923 130.003 84.1995 129.722 84.3236C129.448 84.4213 129.15 84.4244 128.874 84.3325C128.598 84.2406 128.361 84.059 128.201 83.8166C128.033 83.6544 127.855 83.5024 127.668 83.3616C127.423 83.1752 127.204 82.9566 127.018 82.7116C126.923 82.4913 126.891 82.2491 126.926 82.0118C126.96 81.7744 127.06 81.5512 127.213 81.3669C127.366 81.1826 127.568 81.0443 127.795 80.9673C128.022 80.8903 128.266 80.8776 128.5 80.9306C129.036 81.1382 129.55 81.3995 130.034 81.7106C130.222 81.8343 130.375 82.0048 130.478 82.2053C130.58 82.4059 130.629 82.6296 130.619 82.8546Z" fill="black"/>
<path id="Vector_8" d="M71.69 57.8796C71.9432 57.8663 72.1964 57.9056 72.4336 57.9951C72.6707 58.0846 72.8868 58.2223 73.068 58.3996C73.809 59.1146 74.55 59.8296 75.226 60.6096C75.4363 60.8992 75.523 61.2605 75.4669 61.614C75.4109 61.9675 75.2166 62.2843 74.927 62.4946C74.6374 62.7049 74.2761 62.7916 73.9226 62.7355C73.5691 62.6794 73.2523 62.4852 73.042 62.1956C72.6405 61.6663 72.2063 61.1627 71.742 60.6876C71.5969 60.5708 71.4285 60.4866 71.248 60.4406C70.9329 60.3575 70.6604 60.1591 70.4846 59.8846C70.3089 59.6101 70.2426 59.2796 70.299 58.9586C70.3533 58.6371 70.5264 58.3477 70.7841 58.1478C71.0417 57.948 71.3651 57.8522 71.69 57.8796Z" fill="black"/>
<path id="Vector_9" d="M65.528 63.601C65.4848 63.2836 65.5516 62.9609 65.7171 62.6866C65.8826 62.4123 66.137 62.2028 66.438 62.093C66.7163 62.0135 67.0133 62.0291 67.2817 62.1374C67.5502 62.2457 67.7748 62.4406 67.92 62.691C68.2336 63.1413 68.6533 63.5074 69.142 63.757C69.7254 64.0841 70.1829 64.5965 70.442 65.213C70.5762 65.4837 70.612 65.7926 70.5433 66.0868C70.4745 66.381 70.3053 66.642 70.065 66.825C69.8187 66.9953 69.5213 67.0753 69.2228 67.0516C68.9244 67.0279 68.6433 66.902 68.427 66.695C67.6934 66.0443 66.9159 65.4449 66.1 64.901C65.9069 64.7465 65.7541 64.5476 65.6545 64.3212C65.5549 64.0949 65.5115 63.8478 65.528 63.601Z" fill="black"/>
<path id="Vector_10" d="M173.636 107.334C173.805 107.334 174.091 107.438 174.364 107.477L176.275 107.776C176.582 107.768 176.883 107.859 177.135 108.036C177.386 108.212 177.573 108.465 177.669 108.757C177.766 109.049 177.765 109.363 177.669 109.655C177.572 109.946 177.384 110.199 177.133 110.376C176.962 110.536 176.751 110.647 176.522 110.698C176.294 110.748 176.055 110.735 175.833 110.662L173.428 110.012C173.354 110.005 173.281 110.005 173.207 110.012C173.032 109.996 172.863 109.944 172.708 109.861C172.554 109.778 172.418 109.664 172.308 109.527C172.199 109.39 172.119 109.232 172.072 109.062C172.025 108.893 172.013 108.716 172.037 108.543C172.059 108.357 172.119 108.177 172.212 108.015C172.305 107.853 172.43 107.711 172.579 107.598C172.729 107.485 172.899 107.403 173.081 107.358C173.262 107.313 173.451 107.304 173.636 107.334Z" fill="black"/>
<path id="Vector_11" d="M76.773 53.6551C76.9704 53.6855 77.1628 53.7424 77.345 53.8241C78.216 54.2382 78.9215 54.9346 79.347 55.8001C79.4944 56.1164 79.5361 56.4718 79.4658 56.8136C79.3956 57.1554 79.2172 57.4656 78.957 57.6981C78.7939 57.8488 78.5949 57.9551 78.3791 58.007C78.1632 58.059 77.9377 58.0547 77.7239 57.9948C77.5102 57.9348 77.3153 57.8211 77.1579 57.6645C77.0006 57.5079 76.886 57.3136 76.825 57.1001C76.8029 56.9007 76.7305 56.7101 76.6145 56.5464C76.4985 56.3827 76.3428 56.2511 76.162 56.1641C76.0314 56.1016 75.9091 56.023 75.798 55.9301C75.5973 55.7583 75.4537 55.5294 75.3863 55.274C75.319 55.0185 75.3311 54.7486 75.421 54.5001C75.5205 54.2292 75.7074 53.999 75.9522 53.846C76.197 53.693 76.4858 53.6259 76.773 53.6551Z" fill="black"/>
<path id="Vector_12" d="M176.067 104.601C175.846 104.601 175.495 104.679 175.131 104.705C174.851 104.744 174.566 104.744 174.286 104.705C174.048 104.618 173.841 104.464 173.69 104.261C173.539 104.058 173.451 103.815 173.435 103.562C173.42 103.31 173.479 103.058 173.605 102.839C173.73 102.619 173.918 102.441 174.143 102.326C174.563 102.186 175.001 102.103 175.443 102.079C175.845 102.047 176.25 102.047 176.652 102.079C176.84 102.062 177.03 102.085 177.208 102.149C177.386 102.212 177.548 102.313 177.683 102.446C177.818 102.578 177.923 102.738 177.989 102.915C178.056 103.092 178.083 103.282 178.069 103.47C178.061 103.656 178.013 103.838 177.929 104.003C177.844 104.169 177.726 104.314 177.58 104.43C177.435 104.546 177.266 104.629 177.086 104.675C176.906 104.72 176.718 104.726 176.535 104.692L176.067 104.601Z" fill="black"/>
<path id="Vector_13" d="M55.882 154.378C55.5919 154.39 55.3063 154.304 55.0707 154.134C54.8351 153.965 54.663 153.721 54.582 153.442C54.5133 153.162 54.5398 152.867 54.6575 152.603C54.7752 152.339 54.9773 152.122 55.232 151.986C55.6453 151.767 56.0812 151.592 56.532 151.466C56.7149 151.403 56.9097 151.381 57.1021 151.403C57.2945 151.424 57.4797 151.488 57.6441 151.59C57.8086 151.692 57.9481 151.83 58.0526 151.993C58.1571 152.156 58.2238 152.34 58.248 152.532C58.2831 152.721 58.2793 152.915 58.2368 153.101C58.1942 153.288 58.1138 153.465 58.0005 153.619C57.8873 153.774 57.7435 153.904 57.5781 154.001C57.4128 154.098 57.2293 154.16 57.039 154.183C56.61 154.235 56.207 154.313 55.882 154.378Z" fill="black"/>
<path id="Vector_14" d="M175.3 97.4003H174.936C174.591 97.4192 174.253 97.3005 173.996 97.0701C173.739 96.8397 173.583 96.5166 173.564 96.1718C173.546 95.827 173.664 95.4888 173.895 95.2316C174.125 94.9744 174.448 94.8193 174.793 94.8003C175.166 94.731 175.543 94.679 175.924 94.6443C176.248 94.601 176.576 94.6813 176.844 94.8692C177.111 95.0571 177.298 95.3388 177.367 95.6583C177.438 95.9871 177.379 96.3306 177.202 96.6167C177.025 96.9027 176.744 97.109 176.418 97.1923C176.049 97.2783 175.676 97.3435 175.3 97.3873V97.4003Z" fill="black"/>
<path id="Vector_15" d="M84.027 52.4193C84.0401 52.706 83.958 52.989 83.7934 53.2242C83.6288 53.4594 83.3909 53.6334 83.117 53.7193C82.8278 53.7999 82.5195 53.778 82.2446 53.6571C81.9697 53.5362 81.7451 53.3239 81.609 53.0563C81.44 52.7573 81.271 52.4713 81.128 52.1723C80.9859 51.8945 80.9484 51.5749 81.0224 51.2718C81.0964 50.9687 81.2769 50.7023 81.531 50.5213C81.788 50.3488 82.0981 50.2737 82.4055 50.3095C82.7129 50.3452 82.9975 50.4895 83.208 50.7163C83.4507 50.9316 83.6482 51.193 83.7888 51.4854C83.9294 51.7778 84.0104 52.0952 84.027 52.4193Z" fill="black"/>
<path id="Vector_16" d="M57.403 157.784C57.0582 157.846 56.7029 157.768 56.4152 157.568C56.1275 157.369 55.931 157.063 55.869 156.718C55.8069 156.373 55.8844 156.018 56.0843 155.73C56.2842 155.442 56.5902 155.246 56.935 155.184C57.2742 155.058 57.6472 155.059 57.9861 155.185C58.3249 155.312 58.6071 155.556 58.781 155.873C58.9016 156.089 58.9581 156.335 58.9439 156.582C58.9296 156.829 58.8452 157.066 58.7005 157.267C58.5558 157.468 58.3568 157.623 58.127 157.714C57.8972 157.806 57.646 157.83 57.403 157.784Z" fill="black"/>
<path id="Vector_17" d="M65.58 69.9055C65.6162 70.2865 65.4995 70.6662 65.2557 70.9612C65.012 71.2562 64.661 71.4423 64.28 71.4785C63.9352 71.4785 63.6045 71.3415 63.3607 71.0977C63.1169 70.8539 62.98 70.5233 62.98 70.1785C62.9473 69.7982 63.0652 69.4203 63.3083 69.1261C63.5514 68.8319 63.9004 68.645 64.28 68.6055C64.6248 68.6055 64.9554 68.7424 65.1992 68.9862C65.443 69.23 65.58 69.5607 65.58 69.9055Z" fill="black"/>
<path id="Vector_18" d="M176.483 115.665C176.464 116.049 176.301 116.412 176.026 116.682C175.752 116.951 175.386 117.108 175.001 117.121C174.656 117.121 174.326 116.984 174.082 116.74C173.838 116.496 173.701 116.165 173.701 115.821C173.732 115.437 173.9 115.077 174.174 114.807C174.449 114.537 174.812 114.375 175.196 114.352C175.367 114.353 175.535 114.389 175.693 114.455C175.85 114.522 175.992 114.62 176.112 114.741C176.231 114.863 176.325 115.008 176.389 115.166C176.453 115.324 176.485 115.494 176.483 115.665Z" fill="black"/>
<path id="Vector_19" d="M142.202 146.385C149.599 146.281 155.332 149.635 159.83 155.16C162.047 157.908 163.973 160.88 165.576 164.026C166.972 166.922 168.078 169.948 168.878 173.061C169.532 175.72 169.647 178.482 169.216 181.186C168.9 184.308 168.152 187.37 166.993 190.286C166.187 192.223 164.835 193.952 164.055 195.902C162.857 198.56 160.845 200.768 158.309 202.207C158.059 202.33 157.792 202.413 157.516 202.454C155.696 202.935 153.824 203.273 152.056 203.897C146.994 205.673 141.497 205.787 136.365 204.222C133.863 203.612 131.398 202.862 128.981 201.973C126.345 200.785 124.019 199.006 122.182 196.773C119.421 193.753 117.613 189.987 116.982 185.944C116.562 182.548 116.531 179.116 116.891 175.713C117.289 172.316 118.007 168.965 119.036 165.703C120.206 161.907 121.532 158.111 124.34 155.082C125.645 153.452 127.051 151.906 128.552 150.454C131.315 148.2 134.728 146.892 138.289 146.723C139.55 146.606 140.876 146.489 142.202 146.385ZM162.794 180.185C162.643 177.774 162.352 175.374 161.923 172.996C160.73 167.224 158.285 161.783 154.76 157.058C153.046 154.671 150.826 152.692 148.26 151.26C141.76 148.049 135.182 147.464 128.669 151.338C128.427 151.511 128.22 151.727 128.058 151.975C127.893 152.349 127.706 152.714 127.499 153.067C126.108 154.913 124.314 156.577 123.365 158.644C122.102 161.687 121.055 164.814 120.232 168.004C119.826 169.36 119.56 170.754 119.439 172.164C119.025 176.704 119.466 181.281 120.739 185.658C121.501 188.882 123.016 191.88 125.159 194.407C127.343 196.747 129.748 198.788 132.959 199.373C137.762 200.404 142.674 200.84 147.584 200.673C150.156 200.387 152.624 199.496 154.786 198.073C155.785 197.274 156.605 196.273 157.191 195.135C158.428 193.353 159.573 191.509 160.623 189.61C162.072 186.662 162.816 183.418 162.794 180.133V180.185Z" fill="black"/>
<path id="Vector_20" d="M141.279 202.115C153.685 202.115 163.743 190.125 163.743 175.335C163.743 160.545 153.685 148.555 141.279 148.555C128.872 148.555 118.815 160.545 118.815 175.335C118.815 190.125 128.872 202.115 141.279 202.115Z" fill="#63DCB2"/>
<path id="Vector_21" d="M181.878 34.9614C187.521 34.9614 192.096 30.3866 192.096 24.7434C192.096 19.1001 187.521 14.5254 181.878 14.5254C176.235 14.5254 171.66 19.1001 171.66 24.7434C171.66 30.3866 176.235 34.9614 181.878 34.9614Z" fill="#A199E3"/>
<path id="Vector_22" d="M170.464 18.0996L168.215 28.2006L168.475 28.3306C170.152 26.2376 171.855 24.1446 173.519 22.0256C174.377 20.9336 174.715 21.0116 175.378 22.3636C176.401 24.528 177.583 26.6137 178.914 28.6036V21.1936H179.174V31.1776L178.654 31.3076L174 22.3376L167.227 30.9306L166.746 30.7876L169.346 19.1526H167.409L170.464 18.0996Z" fill="black"/>
<path id="Vector_23" d="M187 5.58181L176.912 11.1458L178.355 4.64581L178.745 4.71081L178.043 9.32581L188.053 4.63281L188.378 5.10081L182.021 15.2148L189.288 19.1148V19.4788L179.122 20.3758V19.9468L187.364 18.9458L180.864 15.1628L187.364 5.76381L187 5.58181Z" fill="black"/>
<path id="Vector_24" d="M173.207 13.069L168.124 4.39797H167.89C168.241 6.20497 168.592 8.01197 168.93 9.81897C169.018 10.6234 169.152 11.4221 169.333 12.211C170.074 14.694 170.113 14.733 167.773 16.046C165.433 17.359 163.093 18.503 160.779 19.946L165.732 19.205V19.556L158.413 20.765L158.218 20.323C160.818 18.854 163.418 17.255 166.161 15.942C169.112 14.499 169.138 14.642 168.54 11.405C168.124 9.15597 167.76 6.91997 167.409 4.67097C167.385 4.42331 167.412 4.17341 167.488 3.9365C167.564 3.6996 167.688 3.48064 167.851 3.29297L172.869 11.457L179.265 0.0429688C179.538 1.69397 178.667 2.64297 177.965 3.74797C176.314 6.64697 174.962 9.71497 173.467 12.705C173.519 12.9 173.363 12.9 173.207 13.069Z" fill="black"/>
<path id="Vector_25" d="M18 108.476C18.1757 108.254 18.3281 108.014 18.455 107.761C18.8032 107.034 19.1984 106.331 19.638 105.655C19.9887 105.083 20.1396 104.411 20.067 103.744C20.0442 103.208 19.9878 102.674 19.898 102.145C19.622 101.091 18.9396 100.188 18 99.636C17.9131 99.5723 17.8345 99.4981 17.766 99.415C17.5807 99.2072 17.3237 99.077 17.0465 99.0505C16.7693 99.024 16.4924 99.1031 16.271 99.272C15.6987 99.5945 15.0372 99.7223 14.386 99.636L13.151 99.493C13.0721 99.4754 13.0026 99.4291 12.956 99.363C12.5273 98.8843 12.2315 98.3016 12.098 97.673C11.9803 97.2213 11.8101 96.785 11.591 96.373C11.4536 96.1645 11.3637 95.9283 11.3278 95.6811C11.2918 95.434 11.3107 95.182 11.383 94.943C11.4501 94.7656 11.5734 94.6149 11.734 94.514C12.0955 94.3232 12.4935 94.2118 12.9016 94.1871C13.3096 94.1624 13.7181 94.2251 14.1 94.371C14.516 94.514 14.958 94.605 15.4 94.774C15.9026 94.9992 16.393 95.2509 16.869 95.528C17.311 95.788 17.727 96.139 18.169 96.36C18.325 96.438 18.663 96.36 18.819 96.152C19.261 95.775 19.625 95.333 20.119 94.956C20.2875 94.8206 20.4265 94.6522 20.5276 94.4611C20.6286 94.27 20.6895 94.0602 20.7066 93.8448C20.7236 93.6293 20.6964 93.4126 20.6267 93.208C20.5569 93.0034 20.4461 92.8152 20.301 92.655C20.1755 92.4759 20.0317 92.3104 19.872 92.161C19.723 92.0118 19.5236 91.9237 19.313 91.914C18.702 91.914 18.104 92.096 17.493 92.187C16.4424 92.3492 15.3673 92.2187 14.386 91.81C13.7746 91.63 13.2255 91.2834 12.8 90.809C12.6473 90.6643 12.529 90.4871 12.454 90.2905C12.379 90.0939 12.3491 89.883 12.3666 89.6733C12.384 89.4636 12.4484 89.2605 12.5549 89.0791C12.6615 88.8976 12.8074 88.7424 12.982 88.625C13.346 88.404 13.827 88.352 14.152 88.105C14.3185 87.9691 14.516 87.8766 14.727 87.8358C14.938 87.7949 15.1558 87.807 15.361 87.871C16.063 88.04 16.791 87.741 17.441 87.949C18.2208 88.0583 18.9618 88.3574 19.599 88.82C20.0201 89.2051 20.4772 89.5491 20.964 89.847C21.0252 89.875 21.0917 89.8895 21.159 89.8895C21.2263 89.8895 21.2928 89.875 21.354 89.847C22.069 89.522 23.135 88.287 22.654 87.247C22.5715 87.0538 22.5062 86.8537 22.459 86.649C22.329 86.194 22.069 86.285 21.783 86.467C21.5528 86.6593 21.3047 86.8291 21.042 86.974C20.6646 87.1418 20.2669 87.2598 19.859 87.325C19.4261 87.3533 18.9919 87.3533 18.559 87.325C18.4815 87.3372 18.4025 87.3372 18.325 87.325C18.026 87.221 17.727 87.117 17.428 86.987C17.3391 86.9447 17.2694 86.8704 17.233 86.779C16.7038 85.9327 16.3419 84.9927 16.167 84.01C16.167 83.594 16.102 83.165 16.011 82.71C15.92 82.255 16.336 81.891 16.596 81.54C16.8379 81.1851 17.1705 80.9014 17.5591 80.7186C17.9478 80.5357 18.3783 80.4602 18.806 80.5C18.9131 80.4817 19.0178 80.4512 19.118 80.409C19.2561 80.3707 19.4013 80.3661 19.5415 80.3955C19.6818 80.4249 19.8129 80.4875 19.924 80.578C20.483 81.046 21.146 81.423 21.757 81.878C21.965 82.034 22.147 82.229 22.342 82.398C22.537 82.567 22.693 82.515 22.784 82.307C22.992 81.826 23.148 81.332 23.382 80.864C23.785 80.045 24.227 79.252 24.682 78.433C25.137 77.614 25.254 77.133 25.566 76.522C25.7757 76.0091 26.0557 75.5278 26.398 75.092C26.5077 74.9259 26.6688 74.8004 26.8566 74.7347C27.0445 74.6689 27.2487 74.6666 27.438 74.728C27.6139 74.8406 27.76 74.9938 27.8641 75.1749C27.9682 75.3559 28.0272 75.5593 28.036 75.768C27.9741 76.7817 27.6517 77.7623 27.1 78.615C26.8577 78.9255 26.7375 79.3139 26.762 79.707C26.7453 80.0021 26.6655 80.2903 26.528 80.552C26.1379 81.6964 25.4985 82.7398 24.656 83.607C24.4474 83.8452 24.3004 84.131 24.2279 84.4392C24.1554 84.7474 24.1595 85.0687 24.24 85.375C24.24 85.856 24.24 86.35 24.24 86.831C24.2228 87.0014 24.1789 87.1681 24.11 87.325C23.993 87.702 23.889 88.079 23.759 88.456C23.504 89.3006 22.9369 90.0165 22.173 90.458C21.822 90.64 21.809 90.861 21.939 91.264C22.1187 91.6723 22.1903 92.12 22.147 92.564C22.0293 93.598 21.6538 94.5859 21.055 95.437C20.886 95.645 20.613 95.788 20.496 96.009C20.288 96.438 19.898 96.62 19.573 96.893C19.248 97.166 19.313 97.296 19.573 97.569C20.0377 98.0431 20.4318 98.5816 20.743 99.168C20.9806 99.8575 21.1334 100.573 21.198 101.3C21.3146 102.529 21.1729 103.769 20.782 104.94C20.5979 105.373 20.3431 105.773 20.028 106.123C19.612 106.708 19.209 107.293 18.728 107.865C18.5088 108.11 18.2697 108.336 18.013 108.541L18 108.476ZM20.925 84.881C20.652 84.634 20.405 84.439 20.184 84.205C19.9809 83.9506 19.7267 83.7416 19.4379 83.5916C19.149 83.4416 18.8319 83.3538 18.507 83.334C18.3113 83.3361 18.1243 83.4155 17.987 83.555C17.8918 83.7585 17.8425 83.9803 17.8425 84.205C17.8425 84.4296 17.8918 84.6515 17.987 84.855C18.117 85.31 18.689 85.817 19.053 85.765C19.7511 85.6893 20.4024 85.3774 20.899 84.881H20.925ZM18 90.991C17.9247 90.9175 17.8419 90.8521 17.753 90.796C16.973 90.4392 16.1375 90.2193 15.283 90.146C14.828 90.146 14.425 90.068 14.178 90.627C14.1433 90.6781 14.1197 90.736 14.1088 90.7968C14.0979 90.8577 14.0998 90.9201 14.1145 90.9801C14.1292 91.0402 14.1564 91.0964 14.1942 91.1453C14.232 91.1942 14.2796 91.2346 14.334 91.264C14.5351 91.393 14.7713 91.4566 15.01 91.446C15.803 91.446 16.583 91.29 17.363 91.186C17.5801 91.1376 17.793 91.0724 18 90.991ZM13.684 97.582C13.528 98.349 14.035 98.804 14.243 99.363L15.673 98.271C15.0989 97.8287 14.3957 97.5866 13.671 97.582H13.684Z" fill="black"/>
<path id="Vector_26" d="M66.5284 11.7843L58.8068 19.5059L66.5284 27.2275L74.25 19.5059L66.5284 11.7843Z" fill="#3186FF"/>
<path id="Vector_27" d="M138.354 16.8655C138.224 16.6575 138.055 16.4365 137.938 16.2025C137.678 15.6955 137.444 15.1755 137.197 14.6685C136.95 14.1615 136.69 13.5505 136.404 13.0175C136.118 12.4845 135.806 12.0035 135.481 11.5225C135.156 11.0415 134.896 10.6905 134.597 10.2225C134.569 10.1881 134.533 10.1609 134.492 10.1428C134.452 10.1248 134.407 10.1164 134.363 10.1185C134.363 10.1185 134.259 10.2355 134.246 10.3135C134.142 10.5865 134.09 10.8855 133.973 11.1585C133.885 11.444 133.749 11.7122 133.57 11.9515C133.349 12.1519 133.094 12.3105 132.816 12.4195C132.543 12.5625 132.231 12.6275 131.958 12.7705C131.685 12.9135 131.685 13.0045 131.529 13.0955C131.392 13.2235 131.228 13.3204 131.05 13.3793C130.872 13.4382 130.683 13.4579 130.497 13.4369C130.31 13.4159 130.13 13.3547 129.97 13.2576C129.809 13.1606 129.671 13.0298 129.566 12.8745C129.355 12.6813 129.191 12.443 129.085 12.1774C128.979 11.9118 128.935 11.6257 128.955 11.3405C129.068 10.7897 129.308 10.2732 129.657 9.83247C129.875 9.44997 130.194 9.13507 130.58 8.92247C130.944 8.72747 130.736 8.37647 130.658 8.11647C130.502 7.63547 130.294 7.16747 130.099 6.69947C129.904 6.23147 129.67 5.64647 129.436 5.12647C129.202 4.60647 128.929 4.69747 128.578 4.50247C128.593 4.75784 128.637 5.01072 128.708 5.25647C128.964 5.94987 129.117 6.67685 129.163 7.41447C129.163 7.53147 129.241 7.63547 129.254 7.75247C129.266 8.00957 129.21 8.26533 129.091 8.4937C128.973 8.72207 128.796 8.91487 128.578 9.05247C128.472 9.13301 128.383 9.23484 128.318 9.35147C128.176 9.53471 127.997 9.6869 127.794 9.79868C127.59 9.91045 127.366 9.97946 127.135 10.0015C126.693 10.0925 126.238 10.1705 125.835 10.3005C125.491 10.4121 125.125 10.4432 124.767 10.3914C124.408 10.3395 124.067 10.2061 123.768 10.0015C123.613 9.89791 123.491 9.75263 123.415 9.5824C123.339 9.41218 123.312 9.22395 123.339 9.03947C123.351 8.83178 123.404 8.62852 123.495 8.44147C123.807 7.75247 124.08 7.06347 124.392 6.38747C124.561 6.04947 124.782 5.73747 124.977 5.39947C125.032 5.33391 125.062 5.25105 125.062 5.16547C125.062 5.07988 125.032 4.99703 124.977 4.93147C124.516 4.17496 123.836 3.57649 123.027 3.21547C122.53 3.02686 122.01 2.90871 121.48 2.86447C121.091 2.82563 120.699 2.82563 120.31 2.86447C120.076 2.86447 119.842 2.95547 119.621 2.96847C119.383 2.98158 119.144 2.98158 118.906 2.96847V2.82547C119.001 2.74087 119.112 2.67474 119.231 2.63047L120.388 2.34447C120.83 2.22747 121.259 2.04547 121.688 1.96747C122.309 1.84473 122.94 1.77945 123.573 1.77247C124.304 1.72814 125.032 1.89995 125.666 2.26647C126.147 2.60447 126.667 2.86447 127.174 3.15047C127.238 3.16962 127.305 3.16962 127.369 3.15047L128.578 2.89047C129.002 2.76326 129.454 2.76326 129.878 2.89047C130.588 3.05933 131.237 3.42417 131.75 3.94347C132.409 4.46553 132.905 5.16452 133.18 5.95847C133.18 6.27047 133.544 6.53047 133.661 6.84247C133.695 6.99828 133.782 7.13721 133.908 7.23474C134.034 7.33226 134.191 7.38211 134.35 7.37547C134.431 7.3566 134.516 7.3566 134.597 7.37547C135.434 7.54565 136.185 8.00604 136.716 8.67547C136.937 8.93547 137.236 9.14346 137.47 9.39046C137.704 9.63746 137.886 9.96247 138.107 10.2355C138.523 10.7945 138.965 11.3405 139.407 11.8995C139.537 12.0891 139.641 12.2944 139.719 12.5105C139.893 12.9246 140.003 13.363 140.044 13.8105C140.083 14.3716 139.985 14.9337 139.758 15.4485C139.696 15.6748 139.574 15.8802 139.404 16.0427C139.235 16.2052 139.025 16.3188 138.796 16.3715C138.536 16.6445 138.445 16.8005 138.354 16.8655ZM125.64 6.46547C125.494 6.56318 125.369 6.68962 125.272 6.83711C125.176 6.98459 125.111 7.15005 125.081 7.32346C125.011 7.87235 124.834 8.40227 124.561 8.88347C124.561 9.00047 124.392 9.24747 124.691 9.24747C125.705 9.24747 126.069 8.70147 126.134 7.80447C126.157 7.29017 125.98 6.7869 125.64 6.40047V6.46547ZM131.1 9.98847C131.1 9.84547 131.1 9.62446 130.944 9.59846C130.788 9.57246 130.658 9.59847 130.515 9.70247C130.372 9.80647 130.515 9.70247 130.437 9.76747C130.148 10.0325 129.928 10.3641 129.797 10.7334C129.666 11.1027 129.626 11.4986 129.683 11.8865C129.735 12.0434 129.841 12.1769 129.982 12.2635C129.982 12.2635 130.229 12.1985 130.281 12.1205C130.767 11.5111 131.053 10.7665 131.1 9.98847Z" fill="black"/>
<path id="Vector_28" opacity="0.5" d="M15.179 163.997C14.932 163.88 14.685 163.763 14.451 163.633C13.762 163.269 13.073 162.918 12.41 162.541C11.5507 161.978 10.7796 161.29 10.122 160.5C9.8484 160.272 9.59604 160.02 9.36797 159.746C9.06764 159.237 8.82354 158.697 8.63997 158.134C8.17514 157.277 7.99745 156.293 8.13297 155.326C8.14603 155.293 8.14603 155.256 8.13297 155.222C7.84697 154.564 7.73076 153.844 7.79497 153.129C7.79497 152.297 7.79497 151.465 7.79497 150.633C7.81799 150.518 7.8709 150.41 7.94844 150.321C8.02598 150.232 8.12546 150.165 8.23697 150.126C9.00397 150.126 9.77097 150.126 10.538 150.126C10.6323 150.146 10.7296 150.146 10.824 150.126C11.669 149.918 12.124 150.295 12.007 151.14C12.0071 151.48 12.0332 151.819 12.085 152.154C12.085 152.284 12.15 152.401 12.176 152.544C12.2586 153.328 12.3932 154.106 12.579 154.871C12.83 155.599 13.1522 156.3 13.541 156.964C13.7477 157.358 14.0305 157.707 14.373 157.991C15.1106 158.517 15.9208 158.933 16.778 159.226C17.051 159.33 17.363 159.369 17.636 159.486C17.909 159.603 18.572 159.941 19.027 160.201C19.482 160.461 20.327 160.877 20.873 161.267C21.218 161.563 21.5477 161.875 21.861 162.203C22.6581 162.91 23.3421 163.734 23.889 164.647C24.146 165.059 24.3637 165.495 24.539 165.947C24.656 166.285 24.669 166.675 24.76 167.026C24.955 167.78 25.189 168.534 25.371 169.288C25.553 170.042 25.67 170.718 25.826 171.433C25.9284 171.981 26.0585 172.524 26.216 173.058C26.359 173.474 26.619 173.838 26.775 174.241C26.931 174.866 27.2392 175.442 27.672 175.918C28.296 176.451 28.829 177.075 29.401 177.66C29.83 178.076 30.298 178.466 30.701 178.96C30.7692 179.058 30.813 179.17 30.8289 179.287C30.8447 179.405 30.8321 179.525 30.792 179.636C30.688 179.818 30.389 179.922 30.168 180.026C29.7866 180.191 29.3741 180.271 28.959 180.26C28.569 180.26 28.179 180.507 27.75 180.494C27.4321 180.464 27.1116 180.509 26.814 180.624C26.613 180.728 26.3901 180.782 26.164 180.782C25.9378 180.782 25.7149 180.728 25.514 180.624C24.8904 180.351 24.3321 179.947 23.876 179.441C23.5136 179.054 23.1791 178.641 22.875 178.206C22.6148 177.907 22.3881 177.58 22.199 177.231C21.887 176.594 21.614 175.931 21.354 175.281C21.0154 174.358 20.8097 173.39 20.743 172.408C20.7627 172.04 20.7627 171.672 20.743 171.303C20.561 170.497 20.327 169.704 20.067 168.924C19.8989 168.388 19.6676 167.873 19.378 167.39C18.9489 166.624 18.4003 165.93 17.753 165.336C17.6003 165.2 17.4349 165.078 17.259 164.972L15.244 163.854L15.179 163.997ZM15.439 161.839C16.323 162.203 17.233 162.528 18.117 162.905C18.494 163.074 18.832 163.321 19.196 163.516C20.1216 164.087 20.8516 164.926 21.289 165.921C21.835 167.065 22.212 168.287 22.68 169.47C22.901 170.003 22.68 170.549 22.771 171.082C22.771 171.277 22.771 171.459 22.771 171.654C22.7968 171.735 22.7968 171.821 22.771 171.901C22.5955 172.447 22.5423 173.024 22.615 173.591C22.615 174.007 22.615 174.423 22.615 174.826C22.615 174.93 22.745 175.034 22.758 175.151C22.906 175.8 23.1702 176.417 23.538 176.971C23.947 177.883 24.5716 178.682 25.358 179.298C25.514 179.467 25.6533 179.649 25.774 179.844C25.7995 179.891 25.8342 179.931 25.8759 179.964C25.9175 179.996 25.9653 180.019 26.0164 180.033C26.0674 180.046 26.1206 180.049 26.1728 180.041C26.225 180.033 26.2751 180.015 26.32 179.987C26.5925 179.923 26.872 179.892 27.152 179.896C27.4043 179.86 27.6525 179.799 27.893 179.714C28.14 179.623 28.14 179.441 27.984 179.259C27.8212 179.019 27.6138 178.811 27.373 178.648C26.151 177.998 25.865 176.763 25.436 175.619C25.2209 175.042 25.0429 174.452 24.903 173.851C24.786 173.305 24.747 172.759 24.669 172.213C24.591 171.667 24.539 171.355 24.461 170.913C24.292 169.964 24.162 169.028 23.915 168.105C23.6948 167.15 23.3947 166.215 23.018 165.31C22.7284 164.789 22.365 164.311 21.939 163.893C21.614 163.516 21.237 163.178 20.873 162.827C19.9324 161.9 18.8312 161.151 17.623 160.617C16.739 160.227 15.803 159.928 14.958 159.473C14.3585 159.167 13.8208 158.753 13.372 158.251C12.6065 157.291 12.0647 156.172 11.786 154.975C11.6248 154.395 11.5032 153.804 11.422 153.207C11.3266 152.592 11.2616 151.981 11.227 151.374C11.227 151.023 10.993 150.906 10.707 150.867C10.122 150.867 9.51097 150.776 8.91297 150.75C8.84797 150.75 8.73097 150.893 8.70497 150.997C8.56113 152.07 8.62736 153.161 8.89997 154.208C9.06816 155.092 9.30283 155.961 9.60197 156.808C9.81009 157.292 10.0579 157.757 10.343 158.199C10.3689 158.247 10.4102 158.283 10.46 158.303C11.11 158.472 11.383 159.161 11.968 159.434C12.215 159.551 12.371 159.824 12.579 159.98C13.099 160.37 13.632 160.747 14.165 161.124L14.594 161.462V161.397C14.906 161.54 15.166 161.722 15.4 161.839H15.439Z" fill="black"/>
<path id="Vector_29" opacity="0.5" d="M38.462 185.553C37.968 185.15 37.435 184.799 36.98 184.357C36.525 183.915 36.057 183.252 35.524 182.784C35.0252 182.265 34.6087 181.674 34.289 181.029C33.7426 180.02 33.2606 178.978 32.846 177.909C32.6478 177.457 32.4954 176.987 32.391 176.505C32.3197 175.87 32.2067 175.24 32.053 174.62C31.7833 173.609 31.6221 172.571 31.572 171.526C31.468 170.616 31.429 169.68 31.364 168.757C31.364 168.484 31.286 168.211 31.247 167.925L30.896 165.91C30.8554 165.577 30.7947 165.247 30.714 164.922C30.6079 164.534 30.4821 164.153 30.337 163.778C30.2426 163.49 30.1207 163.211 29.973 162.946C29.648 162.374 29.284 161.815 28.92 161.256C28.712 160.944 28.14 160.918 28.192 160.372H28.101L26.333 159.072C26.0173 158.823 25.6874 158.593 25.345 158.383C25.2053 158.299 25.1016 158.166 25.0536 158.01C25.0056 157.854 25.0168 157.686 25.085 157.538C25.527 156.823 25.956 156.095 26.385 155.367C26.385 155.289 26.385 155.185 26.476 155.107C26.567 155.029 26.593 154.743 26.866 154.912C27.1488 155.09 27.4494 155.238 27.763 155.354C28.3888 155.719 29.0457 156.028 29.726 156.277C30.0982 156.375 30.4503 156.538 30.766 156.758C31.0956 156.964 31.4126 157.19 31.715 157.434C31.975 157.642 32.209 157.876 32.469 158.084C32.7365 158.291 32.9925 158.512 33.236 158.747C33.5425 159.058 33.829 159.388 34.094 159.735C34.3425 160.037 34.5521 160.369 34.718 160.723C34.965 161.386 35.134 162.023 35.355 162.738C35.459 163.037 35.706 163.31 35.719 163.609C35.719 164.35 35.719 165.091 35.628 165.832C35.628 166.222 35.459 166.599 35.472 166.989C35.4631 168.109 35.5196 169.229 35.641 170.343C35.8226 171.288 36.0614 172.222 36.356 173.138C36.5369 173.921 36.8395 174.671 37.253 175.361C37.526 175.751 37.773 176.154 38.059 176.544C38.488 177.142 38.93 177.727 39.359 178.312C39.9292 178.528 40.4161 178.92 40.75 179.43C41.2405 180.153 41.7883 180.835 42.388 181.471C42.921 181.939 43.337 182.537 43.857 183.005C43.9438 183.094 44.0103 183.2 44.052 183.317C44.0936 183.434 44.1094 183.558 44.0983 183.682C44.0872 183.805 44.0494 183.925 43.9875 184.033C43.9257 184.14 43.8412 184.233 43.74 184.305C43.3359 184.589 42.8996 184.825 42.44 185.007C42.1617 185.114 41.8993 185.258 41.66 185.436L39.736 186.645C39.268 186.268 38.878 185.904 38.462 185.553ZM26.151 158.045C26.645 158.357 27.139 158.669 27.646 158.968C27.854 159.085 28.101 159.15 28.322 159.267L29.141 159.722C29.466 159.878 29.791 160.021 30.103 160.19C30.2649 160.276 30.4067 160.396 30.519 160.541C30.9894 161.063 31.3833 161.65 31.689 162.283C31.9882 162.979 32.2358 163.696 32.43 164.428C32.69 165.299 32.911 166.183 33.119 167.028C33.236 167.561 33.314 168.094 33.379 168.64C33.457 169.407 33.509 170.174 33.561 170.954C33.5936 171.599 33.5936 172.246 33.561 172.891C33.561 173.307 33.34 173.71 33.275 174.191C33.2432 174.489 33.2432 174.79 33.275 175.088C33.3134 175.351 33.3134 175.618 33.275 175.881C33.1891 176.555 33.2926 177.239 33.574 177.857C33.7005 178.309 33.8794 178.746 34.107 179.157C34.549 180.002 35.043 180.821 35.524 181.627C35.7601 182.02 36.0206 182.398 36.304 182.758C36.5027 182.996 36.7154 183.221 36.941 183.434C37.2555 183.807 37.5943 184.159 37.955 184.487C38.293 184.747 38.514 185.202 39.034 185.215C39.19 185.215 39.333 185.423 39.502 185.462C39.6624 185.501 39.8297 185.501 39.9902 185.463C40.1507 185.424 40.2997 185.348 40.425 185.241C40.698 185.007 41.023 184.864 41.309 184.656C41.3643 184.607 41.4087 184.547 41.439 184.48C41.4694 184.413 41.4851 184.34 41.4851 184.266C41.4851 184.192 41.4694 184.119 41.439 184.052C41.4087 183.985 41.3643 183.925 41.309 183.876C40.698 183.226 40.009 182.576 39.476 181.926C39.1331 181.519 38.8244 181.084 38.553 180.626C38.306 180.236 38.085 179.82 37.851 179.417C37.617 179.014 37.279 178.52 37.045 178.052C36.811 177.584 36.642 177.116 36.447 176.635C36.096 175.725 35.706 174.828 35.394 173.892C34.9182 172.557 34.6082 171.169 34.471 169.758C34.3974 169.067 34.3757 168.372 34.406 167.678C34.471 166.651 34.679 165.65 34.757 164.636C34.7436 164.193 34.6647 163.755 34.523 163.336C34.4045 162.718 34.2034 162.119 33.925 161.555C33.5435 160.746 32.9991 160.025 32.326 159.436C31.689 158.968 31.143 158.383 30.506 157.941C29.9922 157.632 29.458 157.358 28.907 157.122L28.647 156.992L27.1 156.147C26.762 155.952 26.424 156.147 26.242 156.537C26.06 156.927 25.813 157.317 25.514 157.837C25.8 157.785 25.969 157.928 26.151 158.045Z" fill="black"/>
<path id="Vector_30" d="M206.5 142.211C206.344 142.718 206.162 143.212 206.058 143.719C205.993 144.308 205.862 144.888 205.668 145.448C205.252 144.733 204.875 144.005 204.368 143.329C204.119 143.085 203.828 142.886 203.51 142.744C203.477 143.098 203.513 143.456 203.614 143.797C204.017 144.603 204.511 145.37 205.07 146.397C204.694 146.433 204.315 146.433 203.939 146.397C203.237 146.215 202.574 145.929 201.885 145.786C201.509 145.768 201.132 145.808 200.767 145.903C201.014 146.228 201.183 146.683 201.508 146.826C202.353 147.203 203.263 147.437 204.108 147.736C204.294 147.798 204.477 147.872 204.654 147.957L202.288 150.115C203.029 150.843 203.38 150.18 203.783 149.92C204.186 149.66 204.693 149.296 205.317 148.854L204.836 152.143L205.239 152.247C206.019 151.402 205.694 150.154 206.227 148.997C206.591 149.556 206.877 150.05 207.228 150.518C207.401 150.714 207.597 150.889 207.813 151.038C207.891 150.739 208.086 150.401 208.008 150.167C207.78 149.642 207.515 149.134 207.215 148.646C208.242 148.23 209.49 149.348 210.335 147.931L207.085 147.151L209.503 144.551L209.23 144.278C208.008 144.135 207.826 145.695 206.63 145.942L206.825 142.315L206.5 142.211Z" fill="black"/>
<path id="Vector_31" d="M211.05 131.656C210.881 132.111 210.478 132.735 211.18 133.307C211.472 133.494 211.821 133.57 212.164 133.522C212.507 133.474 212.822 133.306 213.052 133.047C213.215 132.749 213.278 132.405 213.231 132.068C213.184 131.731 213.03 131.418 212.792 131.175C212.491 131.04 212.152 131.014 211.834 131.102C211.516 131.19 211.239 131.386 211.05 131.656Z" fill="black"/>
<path id="Vector_32" d="M217.862 149.957C217.205 150.039 216.564 150.223 215.964 150.503C215.535 150.854 215.873 151.933 216.445 152.193C217.017 152.453 217.745 152.648 218.057 151.907C218.2 151.465 217.966 150.828 217.862 149.957Z" fill="black"/>
<path id="Vector_33" opacity="0.5" d="M213.793 64.4716C214.898 64.9006 216.185 63.9516 217.303 65.2126L213.884 65.6156L216.484 67.7606L216.263 68.0726C215.067 68.0726 214.482 66.7726 213.299 66.4216C213.429 67.0976 213.585 67.7216 213.676 68.3846C213.676 68.5536 213.52 68.7616 213.429 68.9566C213.286 68.8526 213.052 68.7876 212.987 68.6446C212.727 68.0336 212.532 67.4096 212.259 66.6556C211.789 67.1697 211.285 67.6518 210.751 68.0986C210.41 68.2431 210.043 68.3182 209.672 68.3196C209.76 68.0266 209.877 67.7434 210.023 67.4746C210.335 67.0196 210.738 66.6166 211.037 66.1746C211.336 65.7326 211.037 65.3296 210.517 65.3166C209.997 65.3036 209.503 65.4206 208.996 65.3816C208.583 65.2598 208.182 65.0988 207.8 64.9006V64.4586H211.102L208.216 61.4816C209.828 61.4816 210.387 62.6646 211.531 63.5746C211.375 62.6776 211.284 62.0796 211.167 61.4686C211.081 61.1804 211.024 60.8842 210.998 60.5846C211.053 60.2884 211.145 60.0002 211.271 59.7266C211.44 59.9476 211.7 60.1296 211.765 60.3766C211.973 61.0916 212.09 61.8326 212.246 62.5606C212.246 62.8466 212.415 63.1196 212.519 63.4836C213.949 62.7686 213.91 60.8836 215.548 60.1036C215.743 62.0146 214.391 63.0546 213.793 64.4716Z" fill="black"/>
<path id="Vector_34" opacity="0.5" d="M197.296 58.5955C196.802 58.5955 196.438 57.8805 196.62 57.1655C196.651 57.0041 196.715 56.8511 196.81 56.7166C196.904 56.5821 197.026 56.4693 197.168 56.3857C197.309 56.3021 197.467 56.2495 197.63 56.2315C197.794 56.2136 197.959 56.2306 198.115 56.2815C198.934 56.5155 199.519 57.2305 199.246 57.8025C198.973 58.3745 198.479 58.8685 197.296 58.5955Z" fill="black"/>
<path id="Vector_35" opacity="0.5" d="M205.2 74.7151C205.98 74.4031 206.5 74.0261 206.916 74.0521C207.683 74.0521 207.917 74.7671 207.8 75.4691C207.683 76.1711 206.656 76.769 206.227 76.392C205.798 75.8912 205.451 75.3251 205.2 74.7151Z" fill="black"/>
<path id="Vector_36" d="M44.481 28.9022C44.585 29.4352 44.65 29.9812 44.806 30.5012C45.0354 31.0705 45.2011 31.6634 45.3 32.2692C44.585 31.8142 43.883 31.3202 43.129 30.9692C42.7891 30.8601 42.4327 30.8117 42.076 30.8262C42.2182 31.1643 42.4159 31.4763 42.661 31.7492C43.415 32.3082 44.234 32.7762 45.261 33.4002C44.9255 33.6046 44.5679 33.7703 44.195 33.8942C43.48 34.0632 42.726 34.1152 42.024 34.3102C41.6724 34.4715 41.3478 34.6864 41.062 34.9472C41.426 35.1292 41.803 35.4672 42.167 35.4412C43.1274 35.3501 44.0822 35.2069 45.027 35.0122H45.651L44.494 38.1192C45.521 38.4442 45.534 37.6642 45.794 37.2352C46.054 36.8062 46.327 36.2212 46.691 35.5192L47.809 38.7692L48.225 38.6652C48.55 37.5342 47.653 36.5332 47.601 35.2202C48.186 35.5582 48.693 35.8832 49.226 36.1432C49.4828 36.2357 49.7486 36.3011 50.019 36.3382C49.941 36.0392 50.019 35.6232 49.785 35.4542C49.3265 35.0753 48.8397 34.732 48.329 34.4272C49.083 33.5692 50.747 33.9852 50.851 32.2952L47.51 33.1142L48.511 29.6562L48.134 29.5262C46.951 29.9812 47.51 31.4892 46.548 32.2952L44.91 28.7852L44.481 28.9022Z" fill="black"/>
<path id="Vector_37" d="M43.688 17.0344C43.688 17.5414 43.688 18.3344 44.585 18.4904C44.9425 18.5231 45.3 18.4272 45.5931 18.2199C45.8862 18.0125 46.0957 17.7074 46.184 17.3594C46.188 17.0093 46.0806 16.667 45.8773 16.3819C45.674 16.0968 45.3853 15.8837 45.053 15.7734C44.7134 15.7891 44.3902 15.9243 44.1405 16.155C43.8908 16.3857 43.7305 16.6971 43.688 17.0344Z" fill="black"/>
<path id="Vector_38" d="M58.625 30.5938C57.949 31.2178 57.325 31.5167 57.143 31.9977C56.961 32.4787 57.754 33.2977 58.443 33.2977C59.132 33.2977 59.886 33.0898 59.743 32.2837C59.691 31.7897 59.145 31.3478 58.625 30.5938Z" fill="black"/>
<path id="Vector_39" d="M5.975 126.805C5.819 127.338 5.637 127.858 5.52 128.404C5.45568 129.015 5.32044 129.617 5.117 130.198C4.675 129.457 4.272 128.69 3.817 127.988C3.55722 127.732 3.25334 127.525 2.92 127.377C2.88749 127.748 2.92273 128.123 3.024 128.482C3.453 129.327 3.973 130.133 4.558 131.082C4.16448 131.118 3.76851 131.118 3.375 131.082C2.647 130.9 1.958 130.588 1.23 130.445C0.835549 130.425 0.440492 130.469 0.0599976 130.575C0.319998 130.9 0.501998 131.381 0.826998 131.537C1.73801 131.895 2.66652 132.208 3.609 132.473L4.181 132.707L1.711 134.969C2.491 135.736 2.855 134.969 3.284 134.774C3.713 134.579 4.22 134.111 4.883 133.643L4.389 137.088L4.805 137.192C5.624 136.321 5.273 135.008 5.832 133.799C6.209 134.371 6.521 134.904 6.872 135.385C7.0553 135.589 7.26516 135.769 7.496 135.918C7.574 135.619 7.782 135.268 7.691 135.021C7.4552 134.467 7.17704 133.932 6.859 133.422C7.938 132.993 9.251 134.15 10.122 132.668L6.729 131.862L9.238 129.262L8.952 128.976C7.652 128.833 7.496 130.445 6.248 130.718L6.443 126.922L5.975 126.805Z" fill="black"/>
<path id="Vector_40" d="M10.759 115.755C10.577 116.236 10.161 116.899 10.889 117.497C11.1991 117.69 11.5676 117.768 11.9293 117.715C12.291 117.663 12.6225 117.484 12.865 117.211C13.0344 116.896 13.098 116.536 13.0465 116.182C12.995 115.829 12.8311 115.501 12.579 115.248C12.2629 115.115 11.9111 115.093 11.5808 115.185C11.2504 115.277 10.9608 115.478 10.759 115.755Z" fill="black"/>
<path id="Vector_41" d="M17.922 134.906C17.2359 134.985 16.5679 135.178 15.946 135.478C15.491 135.842 15.855 136.973 16.44 137.233C17.025 137.493 17.831 137.714 18.13 136.947C18.325 136.466 18 135.816 17.922 134.906Z" fill="black"/>
<path id="Vector_42" d="M132.803 165.987C133.375 166.156 133.869 166.351 133.986 167.183C134.173 167.763 134.483 168.295 134.896 168.743C137.444 172.149 140.005 175.546 142.579 178.935C143.359 179.975 144.165 181.015 144.958 182.055C145.465 182.705 145.881 182.64 146.258 181.899C147.467 179.299 148.741 176.621 149.911 173.956C152.836 167.365 155.644 160.722 158.634 154.17C160.805 149.425 163.184 144.771 165.511 140.091C166.642 137.829 167.838 135.593 169.06 133.37C169.437 132.681 169.866 131.94 170.451 131.836C171.114 132.577 171.543 133.136 172.063 133.63C172.707 134.202 173.393 134.723 174.117 135.19C174.467 135.377 174.869 135.446 175.261 135.385C176.106 135.281 176.561 135.632 176.223 136.425C175.69 137.894 175.118 139.35 174.442 140.767C172.518 144.745 170.564 148.706 168.579 152.649C167.63 154.534 166.499 156.328 165.55 158.213C163.808 161.671 162.157 165.181 160.415 168.613C159.258 170.927 157.984 173.189 156.827 175.503C155.774 177.596 154.799 179.715 153.798 181.834C152.251 185.136 150.691 188.425 149.183 191.753C148.65 192.91 148.325 194.158 147.792 195.315C147.523 195.737 147.113 196.05 146.635 196.199C145.065 196.227 143.541 195.671 142.358 194.639C141.721 193.69 141.058 192.728 140.408 191.844C138.25 189.101 136.04 186.397 133.908 183.654C131.776 180.911 129.514 177.999 127.304 175.165C127.085 174.887 126.826 174.642 126.537 174.437C125.9 174.008 126.004 173.527 126.446 173.137C127.746 171.837 129.15 170.537 130.489 169.172C130.92 168.793 131.32 168.38 131.685 167.937C132.049 167.313 132.4 166.663 132.803 165.987ZM145.803 185.149L145.361 185.227C144.503 184.096 143.632 182.991 142.761 181.847C139.693 177.544 136.625 173.241 133.661 168.847C133.141 168.106 132.764 168.015 132.179 168.626C130.801 170.095 129.436 171.577 128.058 173.059C127.629 173.514 127.785 173.93 128.123 174.359C129.787 176.27 131.412 178.259 133.128 180.079C136.179 183.407 139.264 186.705 142.384 189.972C143.264 190.902 144.207 191.77 145.205 192.572C146.362 193.534 146.505 193.404 147.142 192.039C148.598 188.516 150.067 184.993 151.601 181.509C152.901 178.623 154.305 175.789 155.592 172.89C156.879 169.991 157.867 167.326 159.154 164.609C161.195 160.306 163.379 156.068 165.472 151.791C166.928 148.827 168.332 145.85 169.749 142.886C170.399 141.586 171.049 140.169 171.673 138.817C171.922 138.244 172.209 137.688 172.531 137.153C172.804 136.724 172.986 136.347 172.531 135.983C171.699 135.359 170.854 134.761 169.931 134.059C169.372 135.229 168.917 136.204 168.41 137.166C165.81 142.197 163.106 147.202 160.532 152.246C158.985 155.301 157.529 158.395 156.125 161.515C154.721 164.635 153.525 167.846 152.056 170.953C150.587 174.06 148.975 177.297 147.48 180.482C146.999 181.496 146.661 182.562 146.284 183.602C146.128 184.135 146.011 184.655 145.868 185.149H145.803Z" fill="black"/>
</g>
</svg>
