<svg width="24" height="24" viewBox="0 0 24 24" fill="none" xmlns="http://www.w3.org/2000/svg">
<g clip-path="url(#clip0_10495_15722)">
<path d="M11.2845 2.73273C11.6769 2.33091 12.3231 2.33091 12.7155 2.73273L14.0275 4.07642C14.2186 4.27209 14.4815 4.38097 14.7549 4.37771L16.6328 4.35534C17.1944 4.34865 17.6513 4.80561 17.6447 5.36718L17.6223 7.24508C17.619 7.51854 17.7279 7.7814 17.9236 7.97247L19.2673 9.28452C19.6691 9.67688 19.6691 10.3231 19.2673 10.7155L17.9236 12.0275C17.7279 12.2186 17.619 12.4815 17.6223 12.7549L17.6447 14.6328C17.6513 15.1944 17.1944 15.6513 16.6328 15.6447L14.7549 15.6223C14.4815 15.619 14.2186 15.7279 14.0275 15.9236L12.7155 17.2673C12.3231 17.6691 11.6769 17.6691 11.2845 17.2673L9.97247 15.9236C9.7814 15.7279 9.51854 15.619 9.24508 15.6223L7.36718 15.6447C6.80561 15.6513 6.34865 15.1944 6.35534 14.6328L6.37771 12.7549C6.38097 12.4815 6.27209 12.2186 6.07642 12.0275L4.73273 10.7155C4.33091 10.3231 4.33091 9.67688 4.73273 9.28452L6.07642 7.97247C6.27209 7.7814 6.38097 7.51854 6.37771 7.24508L6.35534 5.36718C6.34865 4.80561 6.80561 4.34865 7.36718 4.35534L9.24508 4.37771C9.51854 4.38097 9.7814 4.27209 9.97247 4.07642L11.2845 2.73273Z" stroke="#3E95CC" stroke-width="1.5" stroke-linecap="round" stroke-linejoin="round"/>
<path d="M9 16V22L12 20.6805L15 22V16" stroke="#3E95CC" stroke-width="1.5" stroke-linecap="round" stroke-linejoin="round"/>
<circle cx="12" cy="10" r="3" stroke="#3E95CC" stroke-width="1.5" stroke-linecap="round" stroke-linejoin="round"/>
</g>
<defs>
<clipPath id="clip0_10495_15722">
<rect width="24" height="24" fill="white"/>
</clipPath>
</defs>
</svg>
