<svg width="79" height="77" viewBox="0 0 79 77" fill="none" xmlns="http://www.w3.org/2000/svg">
<path d="M45.8167 29.5256L34.3448 19.3877M45.8167 29.5256H39.423C37.4676 29.5256 35.7989 28.112 35.4774 26.1832L34.3448 19.3877M45.8167 29.5256L47.0172 34.5946M34.3448 19.3877H13.7827C11.2905 19.3877 9.40506 21.6421 9.84579 24.0951L17.2124 65.0951C17.5548 67.0008 19.2131 68.3877 21.1494 68.3877H49.6342C52.1932 68.3877 54.0941 66.018 53.539 63.52L52.931 60.7842" stroke="#005B9C" stroke-width="2" stroke-linecap="round" stroke-linejoin="round"/>
<path d="M48.5 68.3877L48.5281 68.5128C49.0884 71.0128 47.1869 73.3877 44.6249 73.3877H16.1494C14.2131 73.3877 12.5548 72.0008 12.2124 70.0951L4.84579 29.0951C4.40506 26.6421 6.2905 24.3877 8.78275 24.3877H9.5" stroke="#005B9C" stroke-width="2" stroke-linecap="round" stroke-linejoin="round"/>
<path d="M54.8086 45.3877L49.8521 53.5813L45.9266 55.3877L45.9266 51.1127L65.4917 20L69.4173 22.4686L57.3086 41.3877" stroke="#005B9C" stroke-width="2" stroke-linejoin="round"/>
<circle cx="24.7966" cy="27.2019" r="2.81422" stroke="#005B9C" stroke-width="2" stroke-linecap="round" stroke-linejoin="round"/>
<path d="M32 35.7664C31.6464 34.9128 31.1282 34.1372 30.4749 33.4839C29.8216 32.8306 29.046 32.3123 28.1924 31.9588C27.3388 31.6052 26.4239 31.4232 25.5 31.4232C24.5761 31.4232 23.6612 31.6052 22.8076 31.9588C21.954 32.3123 21.1784 32.8306 20.5251 33.4839C19.8718 34.1372 19.3536 34.9128 19 35.7664" stroke="#005B9C" stroke-width="2" stroke-linecap="round" stroke-linejoin="round"/>
<path d="M71.6911 53.8808C72.2395 53.9457 72.7367 53.5537 72.8017 53.0052C72.8666 52.4568 72.4746 51.9595 71.9261 51.8946L71.6911 53.8808ZM64.3086 52L63.7216 52.8096C63.8599 52.9098 64.0215 52.973 64.1911 52.9931L64.3086 52ZM64.3086 44.3877L63.9924 45.3364C64.4408 45.4859 64.9326 45.3009 65.1715 44.893C65.4104 44.4852 65.331 43.9657 64.9813 43.6478L64.3086 44.3877ZM50.8086 35.3877L50.323 34.5135C50.0055 34.6899 49.8086 35.0245 49.8086 35.3877H50.8086ZM55.3086 32.8877L55.6248 31.939C55.3589 31.8504 55.068 31.8774 54.823 32.0135L55.3086 32.8877ZM67.8086 36.3877L68.5157 35.6806C68.4004 35.5653 68.2586 35.4799 68.1027 35.4319L67.8086 36.3877ZM75.1015 45.0948C75.492 45.4853 76.1252 45.4853 76.5157 45.0948C76.9062 44.7043 76.9062 44.0711 76.5157 43.6806L75.1015 45.0948ZM71.9261 51.8946L64.4261 51.0069L64.1911 52.9931L71.6911 53.8808L71.9261 51.8946ZM64.8956 51.1904L55.7384 44.5516L54.5645 46.1708L63.7216 52.8096L64.8956 51.1904ZM56.6009 42.8725L63.9924 45.3364L64.6248 43.439L57.2333 40.9752L56.6009 42.8725ZM64.9813 43.6478L59.4813 38.6478L58.1359 40.1276L63.6359 45.1276L64.9813 43.6478ZM51.8086 42.8877V35.3877H49.8086V42.8877H51.8086ZM51.2942 36.2619L55.7942 33.7619L54.823 32.0135L50.323 34.5135L51.2942 36.2619ZM54.9924 33.8364L56.4924 34.3364L57.1248 32.439L55.6248 31.939L54.9924 33.8364ZM61.0145 35.3435L67.5145 37.3435L68.1027 35.4319L61.6027 33.4319L61.0145 35.3435ZM67.1015 37.0948L75.1015 45.0948L76.5157 43.6806L68.5157 35.6806L67.1015 37.0948ZM55.4448 43.3514C55.6573 42.9264 56.15 42.7223 56.6009 42.8725L57.2333 40.9752C55.8383 40.5102 54.3136 41.1417 53.6559 42.457L55.4448 43.3514ZM55.7384 44.5516C55.36 44.2773 55.2358 43.7694 55.4448 43.3514L53.6559 42.457C53.0092 43.7505 53.3936 45.322 54.5645 46.1708L55.7384 44.5516Z" fill="#005B9C"/>
<path d="M19 41.3877H25.8571L27 48.3877H20.1429L19 41.3877Z" stroke="#005B9C" stroke-width="2" stroke-linejoin="round"/>
<path d="M21 54.3877H27.8571L29 61.3877H22.1429L21 54.3877Z" stroke="#005B9C" stroke-width="2" stroke-linejoin="round"/>
<path d="M32.5 44.8877H40.5" stroke="#005B9C" stroke-width="2" stroke-linecap="round" stroke-linejoin="round"/>
<path d="M35 56.3877H43" stroke="#005B9C" stroke-width="2" stroke-linecap="round" stroke-linejoin="round"/>
</svg>
