<svg width="35" height="31" viewBox="0 0 35 31" fill="none" xmlns="http://www.w3.org/2000/svg">
<g id="Group 66">
<path id="Rectangle 126" d="M23.2895 7L16.5 1M23.2895 7H17.5L16.5 1M23.2895 7L24 10M16.5 1H1.5L6.71053 30H28.5L27.5 25.5" stroke="#62DCB2" stroke-width="2" stroke-linecap="round" stroke-linejoin="round"/>
<path id="Rectangle 128" d="M23.2895 7L16.5 1M23.2895 7H17.5L16.5 1M23.2895 7L24 10M16.5 1H1.5L6.71053 30H28.5L27.5 25.5" stroke="#62DCB2" stroke-width="2" stroke-linecap="round" stroke-linejoin="round"/>
<path id="Rectangle 129" d="M23.2895 7L16.5 1M23.2895 7H17.5L16.5 1M23.2895 7L24 10M16.5 1H1.5L6.71053 30H28.5L27.5 25.5" stroke="#62DCB2" stroke-width="2" stroke-linecap="round" stroke-linejoin="round"/>
<path id="Rectangle 127" d="M29.2729 7L33.5056 9.66169L26.0529 21.5131L21.8202 24L21.8202 18.8514L29.2729 7Z" stroke="#62DCB2" stroke-width="2" stroke-linejoin="round"/>
<path id="Rectangle 130" d="M29.2729 7L33.5056 9.66169L26.0529 21.5131L21.8202 24L21.8202 18.8514L29.2729 7Z" stroke="#62DCB2" stroke-width="2" stroke-linejoin="round"/>
<g id="Group 65">
<circle id="Ellipse 31" cx="11.6194" cy="8" r="2" stroke="#62DCB2" stroke-width="2" stroke-linecap="round" stroke-linejoin="round"/>
<path id="Ellipse 32" d="M16.7388 14.0866C16.4875 13.48 16.1192 12.9288 15.6549 12.4645C15.1906 12.0002 14.6394 11.6319 14.0328 11.3806C13.4262 11.1293 12.776 11 12.1194 11C11.4628 11 10.8126 11.1293 10.206 11.3806C9.59935 11.6319 9.04816 12.0002 8.58386 12.4645C8.11957 12.9288 7.75127 13.48 7.5 14.0866" stroke="#62DCB2" stroke-width="2" stroke-linecap="round" stroke-linejoin="round"/>
</g>
<path id="Vector 50" d="M9.5 18.5H17" stroke="#62DCB2" stroke-width="2" stroke-linecap="round" stroke-linejoin="round"/>
<path id="Vector 51" d="M10.5 22H18" stroke="#62DCB2" stroke-width="2" stroke-linecap="round" stroke-linejoin="round"/>
</g>
</svg>
