<svg width="17" height="20" viewBox="0 0 17 20" fill="none" xmlns="http://www.w3.org/2000/svg">
<g id="Group">
<path id="Vector" d="M15.9671 5.54092L11.3783 1.01804C11.0517 0.694336 10.6633 0.437686 10.2354 0.262942C9.8075 0.0881984 9.34871 -0.00116907 8.88555 1.15465e-05H3.52562C2.59087 0.000968234 1.69467 0.367387 1.0337 1.01886C0.372731 1.67034 0.000970632 2.55366 0 3.47498V16.525C0.000970632 17.4464 0.372731 18.3297 1.0337 18.9811C1.69467 19.6326 2.59087 19.999 3.52562 20H13.4744C14.4091 19.999 15.3053 19.6326 15.9663 18.9811C16.6273 18.3297 16.999 17.4464 17 16.525V7.99842C17.0014 7.54181 16.9108 7.08946 16.7335 6.66761C16.5562 6.24575 16.2957 5.86279 15.9671 5.54092ZM14.59 6.14974H12.8718C12.3109 6.14911 11.7732 5.92924 11.3767 5.53837C10.9801 5.14749 10.757 4.61754 10.7564 4.06475V2.37008L14.59 6.14974ZM15.5897 16.525C15.5891 17.0778 15.3661 17.6078 14.9695 17.9987C14.5729 18.3896 14.0352 18.6094 13.4744 18.61H3.52562C2.96477 18.6094 2.42707 18.3896 2.03049 17.9987C1.63391 17.6078 1.41085 17.0778 1.41025 16.525V3.47498C1.41085 2.92219 1.63391 2.39221 2.03049 2.00133C2.42707 1.61045 2.96477 1.39059 3.52562 1.39H8.88555C9.04052 1.39161 9.19481 1.41025 9.34558 1.4456V4.06475C9.34655 4.98608 9.71831 5.8694 10.3793 6.52087C11.0403 7.17235 11.9364 7.53877 12.8712 7.53973H15.5343C15.5699 7.69014 15.5885 7.84398 15.5897 7.99842V16.525ZM12.5076 12.9836C12.5076 13.1679 12.4333 13.3447 12.3011 13.4751C12.1689 13.6054 11.9895 13.6786 11.8025 13.6786H5.19747C5.01046 13.6786 4.83111 13.6054 4.69887 13.4751C4.56664 13.3447 4.49235 13.1679 4.49235 12.9836C4.49235 12.7993 4.56664 12.6225 4.69887 12.4922C4.83111 12.3618 5.01046 12.2886 5.19747 12.2886H11.8025C11.9895 12.2886 12.1689 12.3618 12.3011 12.4922C12.4333 12.6225 12.5076 12.7993 12.5076 12.9836ZM12.5076 10.2036C12.5076 10.388 12.4333 10.5647 12.3011 10.6951C12.1689 10.8254 11.9895 10.8986 11.8025 10.8986H5.19747C5.01046 10.8986 4.83111 10.8254 4.69887 10.6951C4.56664 10.5647 4.49235 10.388 4.49235 10.2036C4.49235 10.0193 4.56664 9.84254 4.69887 9.7122C4.83111 9.58187 5.01046 9.50865 5.19747 9.50865H11.8025C11.9895 9.50865 12.1689 9.58187 12.3011 9.7122C12.4333 9.84254 12.5076 10.0193 12.5076 10.2036ZM9.68714 15.7636C9.68714 15.9479 9.61285 16.1247 9.48061 16.255C9.34838 16.3854 9.16903 16.4586 8.98201 16.4586H5.19747C5.01046 16.4586 4.83111 16.3854 4.69887 16.255C4.56664 16.1247 4.49235 15.9479 4.49235 15.7636C4.49235 15.5793 4.56664 15.4025 4.69887 15.2722C4.83111 15.1418 5.01046 15.0686 5.19747 15.0686H8.98201C9.16903 15.0686 9.34838 15.1418 9.48061 15.2722C9.61285 15.4025 9.68714 15.5793 9.68714 15.7636Z" fill="#1F335B"/>
</g>
</svg>
