<svg width="80" height="68" viewBox="0 0 80 68" fill="none" xmlns="http://www.w3.org/2000/svg">
<g id="Group 348">
<path id="Vector 172" d="M43.2299 58.3619L46.0858 54.8899L45.3157 46.98L50.4789 37.7164C51.0374 36.7145 52.2142 36.2315 53.3155 36.5523V36.5523C54.5659 36.9166 55.3157 38.1924 55.0255 39.462L53.0226 48.2259L58.0485 46.5388L65.5452 37.4248L67.6294 24.5313C67.8538 23.143 69.1672 22.204 70.5534 22.4409V22.4409C71.6988 22.6365 72.5637 23.5872 72.6506 24.7459L73.7448 39.3381C73.8068 40.1652 73.6101 40.9912 73.182 41.7017L63.8726 57.1505L57.5728 62.1556L53.6459 66.9296" stroke="#005B9C" stroke-width="4" stroke-linecap="round" stroke-linejoin="round"/>
<path id="Vector 173" d="M37.7706 58.3619L34.9147 54.8899L35.6848 46.98L30.5216 37.7164C29.9631 36.7145 28.7863 36.2315 27.685 36.5523V36.5523C26.4346 36.9166 25.6848 38.1924 25.975 39.462L27.9779 48.2259L22.952 46.5388L15.4553 37.4248L13.3711 24.5313C13.1467 23.143 11.8333 22.204 10.4471 22.4409V22.4409C9.30166 22.6365 8.43674 23.5872 8.34986 24.7459L7.25573 39.3381C7.19371 40.1652 7.39037 40.9912 7.81849 41.7017L17.1279 57.1505L23.4277 62.1556L27.3546 66.9296" stroke="#005B9C" stroke-width="4" stroke-linecap="round" stroke-linejoin="round"/>
<path id="Ellipse 96" d="M54.0993 20.6639C54.0993 28.4254 47.8094 34.7174 40.0504 34.7174C32.2914 34.7174 26.0015 28.4254 26.0015 20.6639C26.0015 18.7055 26.041 16.9989 26.5634 15.0436C27.525 11.4449 28.8112 8.86007 30.3008 6.61041C30.3008 9.05203 31.621 13.9281 34.9928 15.0524C33.8689 11.1174 38.6507 2.06101 44.546 1C42.8602 6.6214 42.2982 16.7388 47.8529 18.4252C50.7276 13.9281 51.2905 7.73469 51.2905 7.73469C51.2905 7.73469 52.9754 12.2318 53.5373 14.4809C54.0993 16.73 54.0993 19.0912 54.0993 20.6639Z" stroke="#379B45" stroke-width="4" stroke-linecap="round" stroke-linejoin="round"/>
</g>
</svg>
