<svg width="24" height="24" viewBox="0 0 24 24" fill="none" xmlns="http://www.w3.org/2000/svg">
<g id="widget_money personality" clip-path="url(#clip0_10169_21365)">
<path id="Vector" d="M0.559819 17.3299C0.199819 17.0799 0.289819 16.5299 0.709819 16.3899C7.12982 14.2099 4.45982 8.26992 8.39982 4.20992C11.1398 1.38992 13.9698 0.999924 14.9798 0.959924C15.2198 0.949924 15.4498 1.01992 15.6398 1.15992L23.5598 6.75992C23.9398 7.02992 23.8198 7.63992 23.3598 7.71992C22.0098 7.96992 19.8798 8.70992 17.7998 10.8499C13.7498 15.0299 16.6798 21.1899 9.54982 23.1999C9.23982 23.2899 8.89982 23.2199 8.63982 23.0399L0.559819 17.3299Z" fill="#3A9DD1"/>
<path id="Vector_2" d="M14.6146 11.5415C15.0791 9.13379 13.8028 6.86303 11.7638 6.46964C9.72479 6.07626 7.69528 7.70922 7.23075 10.117C6.76622 12.5247 8.04258 14.7955 10.0816 15.1889C12.1206 15.5822 14.1501 13.9493 14.6146 11.5415Z" fill="#3C70B7"/>
<path id="Vector_3" d="M14.5692 3.38056C15.235 3.27701 15.719 2.83473 15.6502 2.39269C15.5815 1.95066 14.986 1.67626 14.3203 1.7798C13.6545 1.88335 13.1705 2.32563 13.2392 2.76766C13.308 3.2097 13.9034 3.4841 14.5692 3.38056Z" fill="#F5F4F1"/>
<path id="Vector_4" d="M9.80114 22.3483C10.4669 22.2448 10.9509 21.8025 10.8822 21.3605C10.8134 20.9184 10.218 20.644 9.55219 20.7476C8.8864 20.8511 8.40241 21.2934 8.47116 21.7354C8.5399 22.1775 9.13536 22.4519 9.80114 22.3483Z" fill="#F5F4F1"/>
</g>
<defs>
<clipPath id="clip0_10169_21365">
<rect width="24" height="24" fill="white"/>
</clipPath>
</defs>
</svg>
