<svg width="22" height="14" viewBox="0 0 22 14" fill="none" xmlns="http://www.w3.org/2000/svg">
<g id="Group">
<path id="Vector" d="M18.5625 0.333984H3.4375C2.52615 0.33509 1.65245 0.702326 1.00803 1.35514C0.363606 2.00795 0.00109165 2.89304 0 3.81625V9.85172C0.00109165 10.7749 0.363606 11.66 1.00803 12.3128C1.65245 12.9656 2.52615 13.3329 3.4375 13.334H18.5625C19.4738 13.3329 20.3476 12.9656 20.992 12.3128C21.6364 11.66 21.9989 10.7749 22 9.85172V3.81625C21.9989 2.89304 21.6364 2.00795 20.992 1.35514C20.3476 0.702326 19.4738 0.33509 18.5625 0.333984ZM20.625 9.85172C20.6244 10.4057 20.4069 10.9368 20.0203 11.3285C19.6336 11.7202 19.1093 11.9405 18.5625 11.9411H3.4375C2.89067 11.9405 2.3664 11.7202 1.97974 11.3285C1.59307 10.9368 1.37558 10.4057 1.375 9.85172V3.81625C1.37558 3.2623 1.59307 2.73121 1.97974 2.3395C2.3664 1.9478 2.89067 1.72748 3.4375 1.72689H18.5625C19.1093 1.72748 19.6336 1.9478 20.0203 2.3395C20.4069 2.73121 20.6244 3.2623 20.625 3.81625V9.85172ZM11 3.17356C10.2853 3.17356 9.58674 3.38824 8.99252 3.79046C8.39831 4.19267 7.93517 4.76435 7.66169 5.4332C7.3882 6.10206 7.31665 6.83805 7.45607 7.5481C7.59549 8.25815 7.93963 8.91037 8.44497 9.42229C8.9503 9.93421 9.59414 10.2828 10.2951 10.4241C10.996 10.5653 11.7225 10.4928 12.3828 10.2158C13.043 9.93872 13.6074 9.46956 14.0044 8.86761C14.4014 8.26565 14.6134 7.55795 14.6134 6.83398C14.6123 5.8635 14.2313 4.93305 13.5539 4.24682C12.8765 3.56058 11.958 3.1746 11 3.17356ZM11 9.1015C10.5573 9.1015 10.1245 8.96851 9.75643 8.71935C9.38834 8.47019 9.10144 8.11606 8.93202 7.70172C8.76261 7.28739 8.71828 6.83147 8.80465 6.39161C8.89101 5.95176 9.1042 5.54773 9.41724 5.23061C9.73028 4.91349 10.1291 4.69753 10.5633 4.61004C10.9975 4.52255 11.4476 4.56745 11.8566 4.73908C12.2656 4.9107 12.6152 5.20133 12.8611 5.57422C13.1071 5.94711 13.2384 6.38551 13.2384 6.83398C13.2376 7.43513 13.0015 8.01143 12.5819 8.4365C12.1623 8.86158 11.5934 9.10072 11 9.1015ZM4.97502 3.81625C4.97502 3.90771 4.95724 3.99827 4.92269 4.08277C4.88814 4.16727 4.8375 4.24405 4.77366 4.30872C4.70982 4.37339 4.63403 4.42469 4.55062 4.45969C4.46721 4.49469 4.37781 4.5127 4.28752 4.5127H3.4375C3.25516 4.5127 3.0803 4.43933 2.95136 4.30872C2.82243 4.17811 2.75 4.00096 2.75 3.81625C2.75 3.63154 2.82243 3.4544 2.95136 3.32378C3.0803 3.19317 3.25516 3.1198 3.4375 3.1198H4.28752C4.46986 3.1198 4.64473 3.19317 4.77366 3.32378C4.90259 3.4544 4.97502 3.63154 4.97502 3.81625ZM19.25 9.85172C19.25 10.0364 19.1776 10.2136 19.0486 10.3442C18.9197 10.4748 18.7448 10.5482 18.5625 10.5482H17.7125C17.5301 10.5482 17.3553 10.4748 17.2263 10.3442C17.0974 10.2136 17.025 10.0364 17.025 9.85172C17.025 9.66701 17.0974 9.48986 17.2263 9.35925C17.3553 9.22864 17.5301 9.15526 17.7125 9.15526H18.5625C18.7448 9.15526 18.9197 9.22864 19.0486 9.35925C19.1776 9.48986 19.25 9.66701 19.25 9.85172Z" fill="#1F335B"/>
</g>
</svg>
