<svg width="24" height="24" viewBox="0 0 24 24" fill="none" xmlns="http://www.w3.org/2000/svg">
<g id="widget_blog">
<path id="Vector" d="M19.8002 0.280029H4.2002C3.6502 0.280029 3.2002 0.730029 3.2002 1.28003V21.24C3.2002 21.79 3.6502 22.24 4.2002 22.24H19.8102C20.3602 22.24 20.8102 21.79 20.8102 21.24V1.28003C20.8102 0.730029 20.3602 0.280029 19.8102 0.280029H19.8002ZM19.8002 21.24H5.6302C5.3202 21.13 5.0302 21.04 4.8902 21.04C4.5002 21.04 4.2002 20.86 4.2002 20.34C4.2002 20.31 4.2002 20.3 4.2002 20.27V19.45C4.2002 19.45 4.2002 19.41 4.2002 19.38C4.2002 18.86 4.5002 18.68 4.8902 18.68H19.8002V21.23V21.24Z" fill="#3A9DD1"/>
<path id="Vector_2" d="M18.6698 2.09998H5.31982C5.04368 2.09998 4.81982 2.32383 4.81982 2.59998V9.96998C4.81982 10.2461 5.04368 10.47 5.31982 10.47H18.6698C18.946 10.47 19.1698 10.2461 19.1698 9.96998V2.59998C19.1698 2.32383 18.946 2.09998 18.6698 2.09998Z" fill="#3C70B7"/>
<path id="Vector_3" d="M4.97021 19.98V23.63L6.44022 23.16L7.99021 23.72V19.98H4.97021Z" fill="#3C70B7"/>
<path id="Vector_4" d="M15.1701 6.03999C15.6837 6.03999 16.1001 5.62362 16.1001 5.10999C16.1001 4.59637 15.6837 4.17999 15.1701 4.17999L8.1701 4.17999C7.65647 4.17999 7.2401 4.59637 7.2401 5.10999C7.2401 5.62362 7.65647 6.03999 8.1701 6.03999H15.1701Z" fill="#F5F4F1"/>
</g>
</svg>
