<svg width="24" height="24" viewBox="0 0 24 24" fill="none" xmlns="http://www.w3.org/2000/svg">
<g id="icon / line / profile">
<path id="Union" fill-rule="evenodd" clip-rule="evenodd" d="M12.5409 2.03213C10.9218 1.90036 9.29539 2.17523 7.80949 2.83177C6.32359 3.48831 5.02528 4.50572 4.03253 5.79156C3.03977 7.0774 2.38402 8.59091 2.12487 10.1946C1.86572 11.7983 2.01137 13.4413 2.54859 14.9744C3.08319 16.5 3.98868 17.8686 5.18343 18.9571C5.2358 19.0242 5.29921 19.0819 5.37097 19.1277C7.13769 20.6706 9.40394 21.521 11.75 21.521C14.096 21.521 16.3623 20.6706 18.129 19.1278C18.2007 19.082 18.264 19.0243 18.3164 18.9573C19.3154 18.0502 20.1144 16.9448 20.6626 15.7115C21.2139 14.4711 21.4992 13.1289 21.5 11.7715C21.5036 10.147 21.1012 8.54738 20.3294 7.11793C19.5577 5.68848 18.441 4.47452 17.0808 3.58634C15.7206 2.69816 14.1601 2.16391 12.5409 2.03213ZM21.25 11.7709L21.5 11.7711V11.7715L21.25 11.7709ZM18.131 18.7879L18.3338 18.9341C18.3282 18.9419 18.3223 18.9497 18.3164 18.9573L18.2986 18.9734L18.131 18.7879ZM17.98 18.9259L18.1448 19.1139L18.129 19.1278C18.1218 19.1323 18.1146 19.1368 18.1073 19.1411L17.98 18.9259ZM5.51998 18.9259L5.39264 19.1411C5.38533 19.1368 5.37811 19.1323 5.37097 19.1277L5.35513 19.1139L5.51998 18.9259ZM5.36898 18.7879L5.20106 18.9731L5.18343 18.9571C5.17753 18.9496 5.17176 18.9419 5.16614 18.9341L5.36898 18.7879ZM10.8379 3.55312C12.1767 3.40421 13.5315 3.58536 14.7841 4.08076C16.0367 4.57615 17.1489 5.37072 18.0237 6.39505C18.8984 7.41938 19.509 8.64232 19.8022 9.95704C20.0954 11.2718 20.0621 12.6383 19.7055 13.9372C19.3792 15.1252 18.7914 16.2237 17.9868 17.1529C17.6728 16.6417 17.1606 16.0598 16.3298 15.5768C15.3231 14.9915 13.8635 14.5599 11.75 14.5599C9.63641 14.5599 8.17682 14.9921 7.17016 15.5776C6.33917 16.0609 5.8269 16.643 5.51295 17.1536C4.21807 15.6634 3.50075 13.7527 3.49998 11.7708L3.49998 11.7704C3.49706 10.4234 3.82402 9.09617 4.45228 7.90465C5.08054 6.71313 5.99099 5.69357 7.10411 4.93503C8.21723 4.17649 9.49916 3.70204 10.8379 3.55312ZM12.5939 5.15206C11.7548 4.98514 10.885 5.07081 10.0945 5.39824C9.30402 5.72566 8.62839 6.28013 8.15304 6.99154C7.67769 7.70295 7.42398 8.53934 7.42398 9.39494V9.39524C7.42538 10.5421 7.88158 11.6415 8.6925 12.4524C9.50342 13.2633 10.6029 13.7195 11.7497 13.7209H11.75C12.6056 13.7209 13.442 13.4672 14.1534 12.9919C14.8648 12.5165 15.4193 11.8409 15.7467 11.0504C16.0741 10.26 16.1598 9.39014 15.9929 8.55098C15.8259 7.71182 15.4139 6.941 14.8089 6.33599C14.2039 5.73099 13.4331 5.31898 12.5939 5.15206ZM11.7503 6.57294L11.8967 6.57275C12.4041 6.59912 12.896 6.76191 13.32 7.04521C13.7848 7.35573 14.147 7.79709 14.3609 8.31348C14.5748 8.82986 14.6307 9.39807 14.5217 9.94626C14.4126 10.4945 14.1435 10.998 13.7483 11.3932C13.353 11.7884 12.8495 12.0576 12.3013 12.1666C11.7531 12.2757 11.1849 12.2197 10.6685 12.0058C10.1521 11.7919 9.71077 11.4297 9.40025 10.965C9.08977 10.5003 8.92403 9.95405 8.92398 9.39522C8.92602 8.6467 9.22452 7.92947 9.75416 7.40052C10.2839 6.87149 11.0016 6.57391 11.7503 6.57294ZM11.75 20.0209C9.88968 20.0209 8.08608 19.3908 6.63183 18.2364C6.77195 17.9217 7.07248 17.4466 7.70419 17.0215C8.45741 16.5145 9.70175 16.0649 11.75 16.0649C13.7983 16.0649 15.0429 16.5141 15.7962 17.0208C16.4284 17.446 16.7288 17.9212 16.8684 18.2362C15.4141 19.3907 13.6104 20.0209 11.75 20.0209Z" fill="#1F335B"/>
</g>
</svg>
