<svg width="24" height="24" viewBox="0 0 24 24" fill="none" xmlns="http://www.w3.org/2000/svg">
<g clip-path="url(#clip0_10502_21275)">
<path fill-rule="evenodd" clip-rule="evenodd" d="M12 23C18.0751 23 23 18.0751 23 12C23 5.92493 18.0751 1 12 1C5.92487 1 1 5.92493 1 12C1 18.0751 5.92487 23 12 23ZM12 21C16.9706 21 21 16.9706 21 12C21 7.02942 16.9706 3 12 3C7.02943 3 3 7.02942 3 12C3 16.9706 7.02943 21 12 21Z" fill="#1F335B"/>
<path d="M11.9122 14.9667C11.646 14.9667 11.4278 14.8889 11.2575 14.7333C11.0978 14.5778 11.018 14.3611 11.018 14.0833V13.8667C11.018 13.4556 11.0978 13.0944 11.2575 12.7833C11.4172 12.4722 11.6141 12.2111 11.8483 12C12.0825 11.7778 12.3806 11.5278 12.7425 11.25C13.2216 10.8944 13.5782 10.5778 13.8124 10.3C14.0466 10.0222 14.1637 9.68333 14.1637 9.28333C14.1637 8.73889 13.9827 8.31111 13.6208 8C13.2695 7.68889 12.7478 7.53333 12.0559 7.53333C11.0126 7.53333 10.1557 7.93889 9.48503 8.75C9.29341 8.98333 9.06454 9.1 8.7984 9.1C8.62808 9.1 8.48436 9.05556 8.36727 8.96667C8.12242 8.8 8 8.58333 8 8.31667C8 8.15 8.05323 7.98889 8.15968 7.83333C8.57485 7.24444 9.11776 6.79444 9.78842 6.48333C10.4591 6.16111 11.2149 6 12.0559 6C12.8649 6 13.5675 6.13889 14.1637 6.41667C14.7598 6.68333 15.2122 7.06667 15.521 7.56667C15.8403 8.05556 16 8.62778 16 9.28333C16 9.71667 15.9148 10.1 15.7445 10.4333C15.5742 10.7667 15.3666 11.05 15.1218 11.2833C14.8876 11.5056 14.5788 11.7611 14.1956 12.05C13.7272 12.4056 13.3812 12.7111 13.1577 12.9667C12.9448 13.2222 12.8383 13.5222 12.8383 13.8667V14.0833C12.8383 14.3611 12.7532 14.5778 12.5828 14.7333C12.4125 14.8889 12.189 14.9667 11.9122 14.9667ZM11.9441 18C11.5609 18 11.2575 17.9 11.0339 17.7C10.8104 17.4889 10.6986 17.2111 10.6986 16.8667C10.6986 16.5222 10.8104 16.2444 11.0339 16.0333C11.2575 15.8111 11.5609 15.7 11.9441 15.7C12.3167 15.7 12.6148 15.8111 12.8383 16.0333C13.0619 16.2444 13.1737 16.5222 13.1737 16.8667C13.1737 17.2111 13.0619 17.4889 12.8383 17.7C12.6148 17.9 12.3167 18 11.9441 18Z" fill="#1F335B"/>
</g>
<defs>
<clipPath id="clip0_10502_21275">
<rect width="24" height="24" fill="white"/>
</clipPath>
</defs>
</svg>
