<svg width="24" height="24" viewBox="0 0 24 24" fill="none" xmlns="http://www.w3.org/2000/svg">
<g id="Group">
<g id="Vector">
<path d="M12.1711 1.00069C13.5629 1.01753 14.4184 1.39579 15.1815 2.49552C15.2111 2.53785 15.2411 2.57973 15.2728 2.62047C15.5873 3.00897 16.09 3.15213 16.5666 3.06951C16.7414 3.03787 16.9144 2.99554 17.0897 2.96345C18.9464 2.64072 21.3955 5.09034 21.0733 6.94775C21.0412 7.12254 20.9988 7.29552 20.9667 7.47076C20.8286 8.26869 21.3766 8.73551 21.9579 9.13631C21.9946 9.16226 22.0315 9.18889 22.067 9.21574C23.8452 10.5852 23.2074 13.9413 21.5724 15.055C21.5255 15.0876 21.4791 15.1208 21.4338 15.1549C20.8404 15.6183 20.9358 16.2999 21.0667 16.9322C21.0753 16.9755 21.0831 17.0189 21.0906 17.0622C21.3685 18.8556 18.7786 21.3007 17.0367 20.9623C16.8899 20.9318 16.7444 20.8976 16.5976 20.8685C15.7676 20.7147 15.3113 21.2545 14.905 21.8504C14.8795 21.887 14.8531 21.9232 14.8265 21.9594C13.714 23.4206 10.2565 23.3054 9.23581 21.8497C9.14955 21.7232 9.06648 21.5939 8.98045 21.4669C8.62927 20.9653 8.06983 20.7622 7.47693 20.8822C7.34174 20.9118 7.20769 20.9443 7.07272 20.9723C4.89532 21.3959 2.72905 18.5084 3.15421 16.5595C3.16604 16.5035 3.17674 16.4473 3.18584 16.3908C3.26596 15.8692 3.02015 15.3737 2.6 15.0776C2.45365 14.9766 2.30116 14.8839 2.15437 14.7824C0.615136 13.6961 0.615136 10.2365 2.15482 9.1499C2.30162 9.04884 2.45365 8.95576 2.60045 8.85471C3.23815 8.40566 3.22749 7.69944 3.07043 7.02299C3.0586 6.96632 3.04699 6.91033 3.03675 6.85366C2.74315 5.07432 5.28197 2.6024 7.04744 2.94948C7.20403 2.98316 7.35833 3.0239 7.51492 3.05759C8.09301 3.1748 8.64356 2.94993 8.97905 2.46673C9.06531 2.33928 9.14769 2.21023 9.23395 2.08278C9.86304 1.18242 10.9179 1.0131 11.9696 1.00034C12.07 0.999886 12.07 0.999886 12.1706 1.00034L12.1711 1.00069ZM11.9819 2.52978C11.1157 2.54048 10.7217 2.6215 10.2404 3.33115C10.2017 3.38668 10.1623 3.44176 10.122 3.49638C9.44491 4.39564 8.28166 4.77389 7.2033 4.5547C7.04057 4.5201 6.88057 4.47527 6.71807 4.44363C6.30772 4.36875 5.90441 4.81575 5.65043 5.04836C4.95651 5.68152 4.43918 6.12305 4.64858 7.0519C4.66223 7.11722 4.67498 7.18231 4.68681 7.24763C4.92442 8.67307 4.12807 9.64784 3.02948 10.4044C2.9983 10.4258 2.96826 10.4483 2.93935 10.4718C2.36831 10.949 2.41771 13.0964 3.02948 13.5281C3.16263 13.6199 3.30009 13.7045 3.43437 13.7953C4.66772 14.6484 4.82567 15.9202 4.55847 17.2892C4.55278 17.3228 4.54732 17.3558 4.54367 17.3895C4.44945 18.4494 6.23468 19.5879 7.1615 19.3856C7.22568 19.3728 7.28895 19.3605 7.35313 19.3489C8.78061 19.1134 9.74267 19.9106 10.5083 21.0017C10.5301 21.0322 10.5531 21.0629 10.577 21.0918C11.0659 21.6674 13.1882 21.6185 13.6313 21.0017C13.7242 20.8697 13.8098 20.7325 13.9006 20.5989C14.7489 19.3885 16.002 19.203 17.3628 19.4675C17.3994 19.4741 17.4363 19.4802 17.4729 19.4848C18.1969 19.5572 19.7059 17.9945 19.5714 17.2589C19.5402 17.0989 19.502 16.9407 19.4703 16.7812C19.1997 15.318 19.9776 14.325 21.1022 13.5275C21.1327 13.5049 21.163 13.4822 21.1923 13.4576C21.7725 12.9596 21.7199 10.8535 21.1015 10.4044C20.9704 10.3111 20.8343 10.2251 20.7014 10.1347C19.4906 9.28376 19.3147 8.03947 19.5671 6.67707C19.5737 6.63975 19.5793 6.60311 19.5834 6.56532C19.6508 5.82606 18.0947 4.34055 17.3587 4.4685C17.1996 4.49763 17.0421 4.53518 16.883 4.56591C15.4229 4.83311 14.4223 4.06179 13.6313 2.9295C13.6095 2.89832 13.5869 2.86827 13.563 2.83869C13.2958 2.52301 12.6515 2.54259 12.3238 2.53234C12.21 2.5303 12.0959 2.52939 11.9817 2.52984" fill="#1F335B"/>
<path d="M11.9819 2.52978C11.1157 2.54048 10.7217 2.6215 10.2404 3.33115C10.2017 3.38668 10.1623 3.44176 10.122 3.49638C9.44491 4.39564 8.28166 4.77389 7.2033 4.5547C7.04057 4.5201 6.88057 4.47527 6.71807 4.44363C6.30772 4.36875 5.90441 4.81575 5.65043 5.04836C4.95651 5.68152 4.43918 6.12305 4.64858 7.0519C4.66223 7.11722 4.67498 7.18231 4.68681 7.24763C4.92442 8.67307 4.12807 9.64784 3.02948 10.4044C2.9983 10.4258 2.96826 10.4483 2.93935 10.4718C2.36831 10.949 2.41771 13.0964 3.02948 13.5281C3.16263 13.6199 3.30009 13.7045 3.43437 13.7953C4.66772 14.6484 4.82567 15.9202 4.55847 17.2892C4.55278 17.3228 4.54732 17.3558 4.54367 17.3895C4.44945 18.4494 6.23468 19.5879 7.1615 19.3856C7.22568 19.3728 7.28895 19.3605 7.35313 19.3489C8.78061 19.1134 9.74267 19.9106 10.5083 21.0017C10.5301 21.0322 10.5531 21.0629 10.577 21.0918C11.0659 21.6674 13.1882 21.6185 13.6313 21.0017C13.7242 20.8697 13.8098 20.7325 13.9006 20.5989C14.7489 19.3885 16.002 19.203 17.3628 19.4675C17.3994 19.4741 17.4363 19.4802 17.4729 19.4848C18.1969 19.5572 19.7059 17.9945 19.5714 17.2589C19.5402 17.0989 19.502 16.9407 19.4703 16.7812C19.1997 15.318 19.9776 14.325 21.1022 13.5275C21.1327 13.5049 21.163 13.4822 21.1923 13.4576C21.7725 12.9596 21.7199 10.8535 21.1015 10.4044C20.9704 10.3111 20.8343 10.2251 20.7014 10.1347C19.4906 9.28376 19.3147 8.03947 19.5671 6.67707C19.5737 6.63975 19.5793 6.60311 19.5834 6.56532C19.6508 5.82606 18.0947 4.34055 17.3587 4.4685C17.1996 4.49763 17.0421 4.53518 16.883 4.56591C15.4229 4.83311 14.4223 4.06179 13.6313 2.9295C13.6095 2.89832 13.5869 2.86827 13.563 2.83869C13.2958 2.52301 12.6515 2.54259 12.3238 2.53234C12.21 2.5303 12.0959 2.52939 11.9817 2.52984M12.1711 1.00069C13.5629 1.01753 14.4184 1.39579 15.1815 2.49552C15.2111 2.53785 15.2411 2.57973 15.2728 2.62047C15.5873 3.00897 16.09 3.15213 16.5666 3.06951C16.7414 3.03787 16.9144 2.99554 17.0897 2.96345C18.9464 2.64072 21.3955 5.09034 21.0733 6.94775C21.0412 7.12254 20.9988 7.29552 20.9667 7.47076C20.8286 8.26869 21.3766 8.73551 21.9579 9.13631C21.9946 9.16226 22.0315 9.18889 22.067 9.21574C23.8452 10.5852 23.2074 13.9413 21.5724 15.055C21.5255 15.0875 21.4791 15.1208 21.4338 15.1549C20.8404 15.6183 20.9358 16.2999 21.0667 16.9322C21.0753 16.9755 21.0831 17.0189 21.0906 17.0622C21.3685 18.8556 18.7786 21.3007 17.0367 20.9623C16.8899 20.9318 16.7444 20.8976 16.5976 20.8685C15.7676 20.7147 15.3113 21.2545 14.905 21.8504C14.8795 21.887 14.8531 21.9232 14.8265 21.9594C13.714 23.4206 10.2565 23.3054 9.23581 21.8497C9.14955 21.7232 9.06648 21.5939 8.98045 21.4669C8.62927 20.9653 8.06983 20.7622 7.47693 20.8822C7.34174 20.9118 7.20769 20.9443 7.07272 20.9723C4.89532 21.3959 2.72905 18.5084 3.15421 16.5595C3.16604 16.5035 3.17674 16.4473 3.18584 16.3908C3.26596 15.8692 3.02015 15.3737 2.6 15.0776C2.45365 14.9766 2.30116 14.8839 2.15437 14.7824C0.615136 13.6961 0.615136 10.2365 2.15482 9.1499C2.30162 9.04884 2.45365 8.95576 2.60045 8.85471C3.23815 8.40566 3.22749 7.69944 3.07043 7.02299C3.0586 6.96632 3.04699 6.91033 3.03675 6.85366C2.74315 5.07432 5.28197 2.6024 7.04744 2.94948C7.20403 2.98316 7.35833 3.0239 7.51492 3.05759C8.09301 3.1748 8.64356 2.94993 8.97905 2.46673C9.06531 2.33928 9.14769 2.21023 9.23395 2.08278C9.86303 1.18242 10.9179 1.0131 11.9696 1.00034C12.07 0.999886 12.07 0.999886 12.1706 1.00034L12.1711 1.00069Z" stroke="#1F335B" stroke-width="0.3"/>
</g>
<path id="Vector_2" d="M12.1205 8.14283C12.2985 8.14579 12.4758 8.15968 12.6522 8.18608C13.0095 8.24116 13.3593 8.34676 13.687 8.50016C14.4818 8.87137 15.1359 9.51775 15.5167 10.3079C15.6667 10.6188 15.7741 10.9502 15.8348 11.2898C15.9063 11.6885 15.9138 12.0985 15.8574 12.4997C15.8028 12.8891 15.6876 13.2694 15.5169 13.6238C15.3237 14.0246 15.0601 14.3906 14.7419 14.7015C14.4007 15.0344 13.9981 15.3025 13.5591 15.4887C13.1048 15.6808 12.6135 15.7828 12.1205 15.7889C11.625 15.7955 11.13 15.7054 10.6691 15.5238C10.2255 15.3483 9.81566 15.0895 9.46648 14.7648C9.1301 14.4512 8.85062 14.077 8.64577 13.665C8.47097 13.3139 8.35103 12.9349 8.2914 12.5471C8.23018 12.1469 8.23268 11.7371 8.29914 11.3371C8.36082 10.9655 8.47803 10.6036 8.64577 10.2665C9.02244 9.50886 9.65176 8.88753 10.4133 8.51994C10.7385 8.3629 11.0863 8.25274 11.4427 8.19356C11.6182 8.16443 11.795 8.14873 11.973 8.14304C12.0224 8.14258 12.0709 8.14238 12.1205 8.14283ZM12.0415 9.67181C11.7167 9.67841 11.3972 9.74828 11.1029 9.88598C10.6589 10.0929 10.2872 10.4438 10.0537 10.8735C9.94605 11.0708 9.86867 11.2834 9.82338 11.5037C9.77081 11.7606 9.76261 12.0272 9.79949 12.2878C9.83203 12.5201 9.90099 12.7475 10.003 12.9596C10.1234 13.2088 10.289 13.4353 10.4889 13.6264C10.6964 13.8238 10.94 13.9824 11.2051 14.091C11.4794 14.2032 11.775 14.2603 12.0713 14.2603C12.3674 14.2603 12.6633 14.2032 12.9375 14.091C13.2027 13.9824 13.4465 13.8238 13.6538 13.6264C13.8536 13.4353 14.0193 13.2083 14.1397 12.9596C14.2417 12.7475 14.3104 12.5201 14.3432 12.2871C14.381 12.0178 14.3712 11.7411 14.3131 11.4754C14.2617 11.2383 14.1713 11.01 14.048 10.8008C13.8129 10.4037 13.4581 10.081 13.0395 9.88569C12.7454 9.74799 12.4257 9.67812 12.1009 9.67152L12.0415 9.67181Z" fill="#1F335B" stroke="#1F335B" stroke-width="0.3"/>
</g>
</svg>
