<svg width="24" height="25" viewBox="0 0 24 25" fill="none" xmlns="http://www.w3.org/2000/svg">
<path d="M12.7152 23.5H11.2893C10.842 23.4998 10.4263 23.2696 10.189 22.8905C10.0856 22.7276 9.45412 21.6693 9.13286 21.0421L7.99303 20.5734C7.29773 20.7935 6.04568 21.1058 5.93778 21.1322C5.5008 21.2328 5.04263 21.1015 4.72538 20.7846L3.71541 19.7746C3.39815 19.4575 3.26676 18.9992 3.36775 18.5622C3.41181 18.373 3.71096 17.1782 3.92663 16.507L3.45785 15.3716C2.79768 15.0371 1.69746 14.3704 1.60952 14.3154C1.2304 14.0781 1.00016 13.6623 1 13.2152V11.7848C1.00015 11.3375 1.23039 10.9219 1.60952 10.6846C1.77237 10.5811 2.83069 9.94968 3.45785 9.62842L3.92663 8.49303C3.70652 7.79773 3.39416 6.54568 3.36775 6.43778C3.26722 6.00064 3.39845 5.54263 3.71541 5.22538L4.72538 4.21541C5.04249 3.89815 5.5008 3.7666 5.93778 3.8676C6.12703 3.91165 7.32182 4.21081 7.99303 4.42647L9.12842 3.9577C9.46288 3.29753 10.1296 2.19731 10.1846 2.10937C10.4219 1.73025 10.8377 1.5 11.2848 1.5H12.7107C13.158 1.5 13.5737 1.73039 13.811 2.10952C13.9144 2.27237 14.5459 3.33069 14.8671 3.95785L16.0025 4.42663C16.6978 4.20652 17.9499 3.89416 18.0578 3.86775C18.4948 3.76722 18.9529 3.89845 19.2703 4.21526L20.2803 5.22522C20.5976 5.54233 20.7289 6.00064 20.628 6.43778C20.5839 6.62703 20.2847 7.82182 20.0691 8.49303L20.5379 9.62842C21.198 9.96288 22.2982 10.6296 22.3862 10.6846C22.7653 10.9219 22.9956 11.3375 22.9957 11.7848V13.2107C22.9956 13.658 22.7653 14.0737 22.3862 14.311C22.2233 14.4144 21.165 15.0459 20.5379 15.3671L20.0778 16.507C20.2979 17.2023 20.6103 18.4543 20.6367 18.5622C20.7372 18.9992 20.606 19.4574 20.2891 19.7746L19.2791 20.7846C18.9618 21.1015 18.5037 21.2328 18.0667 21.1322C17.8774 21.0882 16.6826 20.789 16.0114 20.5734L14.876 21.0421C14.5416 21.7023 13.8748 22.8025 13.8199 22.8905C13.5817 23.271 13.164 23.5014 12.7152 23.5ZM8.02588 19.2665L10.0217 20.0959L10.1207 20.3161C10.3232 20.7561 11.0536 21.9928 11.2209 22.2459C11.2364 22.2711 11.2641 22.2859 11.2935 22.2855H12.7195C12.7489 22.2859 12.7764 22.2709 12.7921 22.2457C12.9219 22.0388 13.6722 20.7846 13.8923 20.3159L13.9913 20.0958L15.9937 19.2662L16.2138 19.3475C16.6694 19.5148 18.0579 19.8712 18.3504 19.9417C18.3782 19.9498 18.4081 19.9415 18.4273 19.9199L19.4373 18.9099C19.4585 18.8904 19.4669 18.8607 19.4594 18.8329C19.4044 18.5974 19.0479 17.1781 18.8652 16.6963L18.7839 16.4762L19.6091 14.4782L19.8292 14.3792C20.2692 14.1767 21.5059 13.4463 21.759 13.279C21.784 13.2635 21.7989 13.2358 21.7984 13.2064V11.7804C21.7989 11.751 21.7839 11.7235 21.7588 11.7078C21.5519 11.578 20.2977 10.8277 19.829 10.6076L19.6089 10.5086L18.7793 8.50618L18.8606 8.28607C19.0279 7.8305 19.3843 6.44202 19.4548 6.14948C19.4611 6.1217 19.453 6.09284 19.433 6.07258L18.423 5.06262C18.4035 5.04144 18.3738 5.03299 18.346 5.04052C18.1105 5.09546 16.6957 5.45204 16.2094 5.63467L15.9893 5.71602L13.9824 4.89086L13.8834 4.67075C13.681 4.2307 12.9505 2.99401 12.7832 2.74092C12.7677 2.7159 12.7401 2.70102 12.7106 2.70148H11.2936C11.2641 2.70102 11.2365 2.71606 11.221 2.74108C11.0911 2.94798 10.3409 4.20217 10.1208 4.6709L10.0218 4.89101L8.01932 5.72062L7.79921 5.63927C7.34364 5.47196 5.95516 5.11556 5.66262 5.04511C5.63484 5.03697 5.60491 5.04526 5.58557 5.0669L4.57561 6.07687C4.55443 6.09636 4.54598 6.12614 4.55366 6.15392C4.60861 6.38937 4.96518 7.80869 5.14782 8.29051L5.22917 8.51062L4.404 10.5175L4.18389 10.6165C3.74384 10.819 2.50716 11.5494 2.25407 11.7167C2.2289 11.7322 2.21401 11.7598 2.21447 11.7893V13.2152C2.21401 13.2447 2.22905 13.2722 2.25422 13.2878C2.46113 13.4177 3.71531 14.1679 4.18405 14.3881L4.40415 14.4871L5.23376 16.4895L5.15241 16.7096C4.98511 17.1652 4.62871 18.5537 4.55825 18.8462C4.55211 18.874 4.56009 18.9028 4.58005 18.9231L5.59001 19.9331C5.6095 19.9543 5.63928 19.9627 5.66706 19.9552C5.90252 19.9002 7.31739 19.5436 7.80365 19.361L8.02588 19.2665ZM12.002 17.6381C10.6387 17.6381 9.33125 17.0966 8.36734 16.1326C7.40327 15.1686 6.86177 13.8612 6.86177 12.4979C6.86177 11.1346 7.40327 9.82716 8.36734 8.86324C9.33125 7.89918 10.6387 7.35767 12.002 7.35767C13.3653 7.35767 14.6727 7.89918 15.6367 8.86324C16.6007 9.82716 17.1422 11.1346 17.1422 12.4979C17.1399 13.8604 16.5977 15.1665 15.634 16.13C14.6705 17.0936 13.3645 17.6358 12.002 17.6381ZM12.002 8.57467C10.9615 8.57467 9.96349 8.98804 9.22779 9.72385C8.49194 10.4595 8.07861 11.4575 8.07861 12.4981C8.07861 13.5386 8.49198 14.5366 9.22779 15.2723C9.96349 16.0081 10.9615 16.4214 12.002 16.4214C13.0425 16.4214 14.0405 16.0081 14.7762 15.2723C15.5121 14.5366 15.9254 13.5386 15.9254 12.4981C15.9242 11.4578 15.5105 10.4606 14.775 9.72511C14.0395 8.98961 13.0422 8.57589 12.002 8.57467Z" fill="#ABB0C3" stroke="#ABB0C3" stroke-width="0.8" stroke-linejoin="round"/>
</svg>
