<svg width="75" height="63" viewBox="0 0 75 63" fill="none" xmlns="http://www.w3.org/2000/svg">
<g id="Group 349">
<path id="Union" d="M27.6538 17H35.3462L35.684 21.3934C37.0627 21.7622 38.3688 22.3084 39.576 23.0066L42.9226 20.1381L48.3619 25.5776L45.4934 28.9242C46.1916 30.1314 46.7381 31.4374 47.1068 32.8158L51.5 33.1538V40.8462L47.1068 41.1842C46.7381 42.5627 46.1916 43.8686 45.4934 45.0758L48.3619 48.4224L42.9226 53.8619L39.576 50.9934C38.3688 51.6916 37.0627 52.2378 35.684 52.6066L35.3462 57H27.6538L27.316 52.6066C25.9374 52.2378 24.6314 51.6916 23.4242 50.9934L20.0776 53.8619L14.6383 48.4224L17.5066 45.0762C16.8084 43.869 16.2619 42.563 15.8932 41.1842L11.5 40.8462V33.1538L15.8932 32.8158C16.2619 31.437 16.8084 30.131 17.5066 28.9238L14.6383 25.5776L20.0776 20.1381L23.4242 23.0066C24.6314 22.3084 25.9374 21.7622 27.316 21.3934L27.6538 17Z" stroke="#005B9C" stroke-width="3" stroke-linejoin="round"/>
<path id="Union_2" d="M58 1H63L63.2196 3.85571C64.1157 4.09546 64.9647 4.45044 65.7494 4.9043L67.9247 3.03979L71.4602 6.57544L69.5957 8.75073C70.0496 9.5354 70.4048 10.3843 70.6444 11.2803L73.5 11.5V16.5L70.6444 16.7197C70.4048 17.6157 70.0496 18.4646 69.5957 19.2493L71.4602 21.4246L67.9247 24.9602L65.7494 23.0957C64.9647 23.5496 64.1157 23.9045 63.2196 24.1443L63 27H58L57.7804 24.1443C56.8843 23.9045 56.0354 23.5496 55.2507 23.0957L53.0754 24.9602L49.5399 21.4246L51.4043 19.2495C50.9504 18.4648 50.5952 17.616 50.3556 16.7197L47.5 16.5V11.5L50.3556 11.2803C50.5952 10.384 50.9504 9.53516 51.4043 8.75049L49.5399 6.57544L53.0754 3.03979L55.2507 4.9043C56.0354 4.45044 56.8843 4.09546 57.7804 3.85571L58 1Z" stroke="#005B9C" stroke-width="3" stroke-linejoin="round"/>
<circle id="Ellipse 97" cx="31.5" cy="37" r="9" stroke="#005B9C" stroke-width="3" stroke-linejoin="round"/>
<circle id="Ellipse 99" cx="60.5" cy="14" r="4" stroke="#379B45" stroke-width="3" stroke-linejoin="round"/>
<path id="Ellipse 98" d="M58.5 36.5609C58.5 45.0658 54.4366 52.637 48.1154 57.4984C45.5136 59.4993 42.5293 61.0411 39.2885 62M4.5 36.5609C4.5 33.3288 5.08683 30.2316 6.16138 27.3667C9.96387 17.2288 19.8738 10 31.5 10" stroke="#379B45" stroke-width="3" stroke-linecap="round" stroke-linejoin="round"/>
<path id="Vector 174" d="M1 34L4.5 38L8 34" stroke="#379B45" stroke-width="3" stroke-linecap="round" stroke-linejoin="round"/>
<path id="Vector 175" d="M61.5 39.5L58.5742 36.1675L55.6384 38.8803" stroke="#379B45" stroke-width="3" stroke-linecap="round" stroke-linejoin="round"/>
</g>
</svg>
