<svg width="22" height="22" viewBox="0 0 22 22" fill="none" xmlns="http://www.w3.org/2000/svg">
<g id="Union">
<path d="M11 9C11.5523 9 12 9.44775 12 10V16C12 16.5522 11.5523 17 11 17C10.4477 17 10 16.5522 10 16V10C10 9.44775 10.4477 9 11 9Z" fill="#1F335B"/>
<path d="M11 7C11.5523 7 12 6.55225 12 6C12 5.44775 11.5523 5 11 5C10.4477 5 10 5.44775 10 6C10 6.55225 10.4477 7 11 7Z" fill="#1F335B"/>
<path fill-rule="evenodd" clip-rule="evenodd" d="M11 22C17.0751 22 22 17.0751 22 11C22 4.92493 17.0751 0 11 0C4.92487 0 0 4.92493 0 11C0 17.0751 4.92487 22 11 22ZM11 20C15.9706 20 20 15.9706 20 11C20 6.02942 15.9706 2 11 2C6.02943 2 2 6.02942 2 11C2 15.9706 6.02943 20 11 20Z" fill="#1F335B"/>
</g>
</svg>
