<svg width="24" height="24" viewBox="0 0 24 24" fill="none" xmlns="http://www.w3.org/2000/svg">
<g id="widget_promo">
<path id="Vector" d="M20.19 3.6199L13.59 0.369896C13.31 0.229896 12.97 0.229896 12.69 0.379896L6.34004 3.6099C6.00004 3.7799 5.79004 4.1299 5.79004 4.4999V18.6899H15.3C15.85 18.6899 16.3 19.1399 16.3 19.6899V20.7599C16.27 20.8999 16.25 21.0599 16.25 21.2099C16.25 22.5199 17.37 23.5699 18.72 23.4499C19.89 23.3399 20.75 22.2699 20.75 21.0899V4.5099C20.75 4.1299 20.53 3.7799 20.19 3.6199ZM13.09 2.9399C12.68 2.9399 12.35 2.5999 12.35 2.1899C12.35 1.7799 12.68 1.4499 13.09 1.4499C13.5 1.4499 13.83 1.7799 13.83 2.1899C13.83 2.5999 13.5 2.9399 13.09 2.9399Z" fill="#3A9DD1"/>
<path id="Vector_2" d="M18.5 23.4599H3.54003C2.30003 23.4599 1.29003 22.4499 1.29003 21.2099C1.29003 21.1899 1.30003 21.1599 1.30003 21.1399H1.28003V19.6899C1.28003 19.1399 1.73003 18.6899 2.28003 18.6899H15.3C15.85 18.6899 16.3 19.1399 16.3 19.6899V21.4199C16.3 21.6699 16.36 21.9299 16.47 22.1699C16.8 22.8699 17.56 23.4599 18.5 23.4599Z" fill="#3C70B7"/>
<path id="Vector_3" d="M19.2201 6.93994V21.1699C19.2201 21.7199 18.7701 22.1699 18.2201 22.1699H16.4701C16.3601 21.9299 16.3001 21.6699 16.3001 21.4199V19.6899C16.3001 19.1399 15.8501 18.6899 15.3001 18.6899H7.32007V6.93994C7.32007 6.38994 7.77007 5.93994 8.32007 5.93994H18.2201C18.7701 5.93994 19.2201 6.38994 19.2201 6.93994Z" fill="#F5F4F1"/>
<g id="Group">
<path id="Vector_4" d="M11.1001 11.1699C11.7849 11.1699 12.3401 10.6148 12.3401 9.92994C12.3401 9.24511 11.7849 8.68994 11.1001 8.68994C10.4153 8.68994 9.86011 9.24511 9.86011 9.92994C9.86011 10.6148 10.4153 11.1699 11.1001 11.1699Z" fill="#3A9DD1"/>
<path id="Vector_5" d="M15.44 15.5098C16.1248 15.5098 16.68 14.9546 16.68 14.2698C16.68 13.585 16.1248 13.0298 15.44 13.0298C14.7551 13.0298 14.2 13.585 14.2 14.2698C14.2 14.9546 14.7551 15.5098 15.44 15.5098Z" fill="#3A9DD1"/>
<path id="Vector_6" d="M16.3998 10.2819C16.763 9.91872 16.763 9.32988 16.3998 8.96669C16.0366 8.6035 15.4478 8.6035 15.0846 8.96669L10.1348 13.9164C9.77164 14.2796 9.77164 14.8685 10.1348 15.2317C10.498 15.5948 11.0869 15.5948 11.45 15.2317L16.3998 10.2819Z" fill="#3A9DD1"/>
</g>
</g>
</svg>
